G04 #@! TF.GenerationSoftware,KiCad,Pcbnew,(5.1.9)-1*
G04 #@! TF.CreationDate,2021-03-05T16:25:43+01:00*
G04 #@! TF.ProjectId,BOBcad,424f4263-6164-42e6-9b69-6361645f7063,v1.0.2*
G04 #@! TF.SameCoordinates,Original*
G04 #@! TF.FileFunction,Copper,L2,Inr*
G04 #@! TF.FilePolarity,Positive*
%FSLAX46Y46*%
G04 Gerber Fmt 4.6, Leading zero omitted, Abs format (unit mm)*
G04 Created by KiCad (PCBNEW (5.1.9)-1) date 2021-03-05 16:25:43*
%MOMM*%
%LPD*%
G01*
G04 APERTURE LIST*
G04 #@! TA.AperFunction,ComponentPad*
%ADD10C,1.524000*%
G04 #@! TD*
G04 #@! TA.AperFunction,ComponentPad*
%ADD11R,1.200000X1.200000*%
G04 #@! TD*
G04 #@! TA.AperFunction,ComponentPad*
%ADD12C,1.200000*%
G04 #@! TD*
G04 #@! TA.AperFunction,ComponentPad*
%ADD13R,1.524000X1.524000*%
G04 #@! TD*
G04 #@! TA.AperFunction,ComponentPad*
%ADD14C,3.000000*%
G04 #@! TD*
G04 #@! TA.AperFunction,ComponentPad*
%ADD15R,3.000000X3.000000*%
G04 #@! TD*
G04 #@! TA.AperFunction,ComponentPad*
%ADD16R,1.000000X1.000000*%
G04 #@! TD*
G04 #@! TA.AperFunction,ComponentPad*
%ADD17O,1.000000X1.000000*%
G04 #@! TD*
G04 #@! TA.AperFunction,ComponentPad*
%ADD18R,1.700000X1.700000*%
G04 #@! TD*
G04 #@! TA.AperFunction,ComponentPad*
%ADD19O,1.700000X1.700000*%
G04 #@! TD*
G04 #@! TA.AperFunction,ComponentPad*
%ADD20C,6.400000*%
G04 #@! TD*
G04 #@! TA.AperFunction,ViaPad*
%ADD21C,1.000000*%
G04 #@! TD*
G04 #@! TA.AperFunction,ViaPad*
%ADD22C,0.800000*%
G04 #@! TD*
G04 #@! TA.AperFunction,Conductor*
%ADD23C,0.254000*%
G04 #@! TD*
G04 #@! TA.AperFunction,Conductor*
%ADD24C,0.100000*%
G04 #@! TD*
G04 APERTURE END LIST*
D10*
X161006000Y-116092000D03*
X161006000Y-113552000D03*
X161006000Y-111012000D03*
X161006000Y-108472000D03*
X161006000Y-105932000D03*
X161006000Y-103392000D03*
X161006000Y-100852000D03*
X161006000Y-98312000D03*
X161006000Y-95772000D03*
X161006000Y-93232000D03*
X161006000Y-90692000D03*
X161006000Y-88152000D03*
X161006000Y-85612000D03*
X161006000Y-83072000D03*
X161006000Y-80532000D03*
X135606000Y-93232000D03*
X135606000Y-80532000D03*
X135606000Y-103392000D03*
X135606000Y-90692000D03*
X135606000Y-83072000D03*
X135606000Y-100852000D03*
X135606000Y-113552000D03*
X135606000Y-111012000D03*
X135606000Y-98312000D03*
X135606000Y-108472000D03*
X135606000Y-88152000D03*
X135606000Y-95772000D03*
X135606000Y-85612000D03*
X135606000Y-116092000D03*
X135606000Y-105932000D03*
D11*
X104762000Y-88146000D03*
D12*
X106262000Y-88146000D03*
D11*
X104508000Y-117610000D03*
D12*
X106008000Y-117610000D03*
D11*
X185280000Y-124722000D03*
D12*
X185280000Y-126222000D03*
D10*
X157196000Y-80532000D03*
X157196000Y-83072000D03*
X157196000Y-85612000D03*
X157196000Y-88152000D03*
X157196000Y-90692000D03*
X157196000Y-93232000D03*
X157196000Y-95772000D03*
X157196000Y-98312000D03*
X157196000Y-100852000D03*
X157196000Y-103392000D03*
X157196000Y-105932000D03*
X157196000Y-108472000D03*
X157196000Y-111012000D03*
X157196000Y-113552000D03*
X139416000Y-113552000D03*
X139416000Y-111012000D03*
X139416000Y-108472000D03*
X139416000Y-105932000D03*
X139416000Y-103392000D03*
X139416000Y-100852000D03*
X139416000Y-98312000D03*
X139416000Y-95772000D03*
X139416000Y-93232000D03*
X139416000Y-90692000D03*
X139416000Y-88152000D03*
X139416000Y-85612000D03*
X139416000Y-83072000D03*
D13*
X139416000Y-80532000D03*
X129256000Y-105932000D03*
D10*
X129256000Y-103392000D03*
X129256000Y-100852000D03*
X129256000Y-98312000D03*
D13*
X94966000Y-71642000D03*
D10*
X94966000Y-74182000D03*
X94966000Y-76722000D03*
X94966000Y-79262000D03*
X94966000Y-81802000D03*
D14*
X98776000Y-113552000D03*
X98776000Y-108472000D03*
D15*
X98776000Y-118632000D03*
D14*
X98776000Y-103392000D03*
D15*
X98776000Y-98312000D03*
D14*
X98776000Y-93232000D03*
X98776000Y-88152000D03*
D16*
X173071000Y-84342000D03*
D17*
X174341000Y-84342000D03*
X173071000Y-85612000D03*
X174341000Y-85612000D03*
X173071000Y-86882000D03*
X174341000Y-86882000D03*
X173071000Y-88152000D03*
X174341000Y-88152000D03*
X173071000Y-89422000D03*
X174341000Y-89422000D03*
D10*
X177660000Y-121674000D03*
X180200000Y-121674000D03*
X182740000Y-121674000D03*
X185280000Y-121674000D03*
X175120000Y-96274000D03*
X177660000Y-96274000D03*
X180200000Y-96274000D03*
X182740000Y-96274000D03*
X185280000Y-96274000D03*
D13*
X187820000Y-96274000D03*
D14*
X185136000Y-70372000D03*
X185136000Y-75452000D03*
D15*
X185136000Y-65292000D03*
D14*
X185136000Y-80532000D03*
X185136000Y-85612000D03*
X185136000Y-90692000D03*
D18*
X173706000Y-66562000D03*
D19*
X173706000Y-69102000D03*
X173706000Y-71642000D03*
X173706000Y-74182000D03*
X173706000Y-76722000D03*
X173706000Y-79262000D03*
D18*
X98776000Y-65540000D03*
D19*
X96236000Y-65540000D03*
D20*
X166626000Y-123682000D03*
X106626000Y-123682000D03*
X166626000Y-65682000D03*
X106626000Y-65682000D03*
D21*
X140576000Y-115578000D03*
X122855959Y-79764000D03*
D22*
X151641000Y-73707000D03*
X144640000Y-81796000D03*
X137528000Y-88146000D03*
D21*
X124447000Y-80272000D03*
D22*
X164706000Y-89416000D03*
X166992000Y-89416000D03*
X159118000Y-112022000D03*
X159118000Y-104656000D03*
X144894000Y-109736000D03*
X142100000Y-109736000D03*
X142100000Y-107196000D03*
X141084000Y-112530000D03*
X133718000Y-109736000D03*
X132194000Y-109736000D03*
X99936000Y-105926000D03*
X142862000Y-75446000D03*
X148704000Y-73922000D03*
X148704000Y-75954000D03*
X97650000Y-105926000D03*
X169786000Y-73668000D03*
X157848000Y-71128000D03*
X157848000Y-73668000D03*
X169786000Y-76462000D03*
X157848000Y-76462000D03*
X145402000Y-78240000D03*
X145402000Y-72906000D03*
X137528000Y-94750000D03*
X137528000Y-102116000D03*
X111620000Y-70620000D03*
X129400000Y-70620000D03*
X111620000Y-88146000D03*
X129400000Y-88146000D03*
X111620000Y-98560000D03*
X111620000Y-111006000D03*
X127114000Y-111260000D03*
X111620000Y-123706000D03*
X126860000Y-123960000D03*
X96126000Y-123960000D03*
X175120000Y-106180000D03*
X187820000Y-106180000D03*
X187820000Y-118880000D03*
D21*
X147180000Y-80780000D03*
D22*
X175628000Y-88146000D03*
D21*
X151498000Y-124468000D03*
X130316000Y-79222000D03*
D23*
X190691424Y-61351580D02*
X190754356Y-61370580D01*
X190812405Y-61401445D01*
X190863343Y-61442989D01*
X190905248Y-61493644D01*
X190936515Y-61551471D01*
X190955956Y-61614272D01*
X190966000Y-61709835D01*
X190966001Y-127649711D01*
X190956420Y-127747424D01*
X190937420Y-127810357D01*
X190906554Y-127868406D01*
X190865011Y-127919343D01*
X190814356Y-127961248D01*
X190756529Y-127992515D01*
X190693728Y-128011956D01*
X190598165Y-128022000D01*
X92658279Y-128022000D01*
X92560576Y-128012420D01*
X92497643Y-127993420D01*
X92439594Y-127962554D01*
X92388657Y-127921011D01*
X92346752Y-127870356D01*
X92315485Y-127812529D01*
X92296044Y-127749728D01*
X92286000Y-127654165D01*
X92286000Y-126382881D01*
X104104724Y-126382881D01*
X104464912Y-126872548D01*
X105128882Y-127232849D01*
X105850385Y-127456694D01*
X106601695Y-127535480D01*
X107353938Y-127466178D01*
X108078208Y-127251452D01*
X108746670Y-126899555D01*
X108787088Y-126872548D01*
X109147276Y-126382881D01*
X164104724Y-126382881D01*
X164464912Y-126872548D01*
X165128882Y-127232849D01*
X165850385Y-127456694D01*
X166601695Y-127535480D01*
X167353938Y-127466178D01*
X168078208Y-127251452D01*
X168419542Y-127071764D01*
X184609841Y-127071764D01*
X184657148Y-127295348D01*
X184878516Y-127396237D01*
X185115313Y-127452000D01*
X185358438Y-127460495D01*
X185598549Y-127421395D01*
X185826418Y-127336202D01*
X185902852Y-127295348D01*
X185950159Y-127071764D01*
X185280000Y-126401605D01*
X184609841Y-127071764D01*
X168419542Y-127071764D01*
X168746670Y-126899555D01*
X168787088Y-126872548D01*
X169147276Y-126382881D01*
X169064833Y-126300438D01*
X184041505Y-126300438D01*
X184080605Y-126540549D01*
X184165798Y-126768418D01*
X184206652Y-126844852D01*
X184430236Y-126892159D01*
X185100395Y-126222000D01*
X185086253Y-126207858D01*
X185265858Y-126028253D01*
X185280000Y-126042395D01*
X185294143Y-126028253D01*
X185473748Y-126207858D01*
X185459605Y-126222000D01*
X186129764Y-126892159D01*
X186353348Y-126844852D01*
X186454237Y-126623484D01*
X186510000Y-126386687D01*
X186518495Y-126143562D01*
X186479395Y-125903451D01*
X186399549Y-125689883D01*
X186410537Y-125676494D01*
X186469502Y-125566180D01*
X186505812Y-125446482D01*
X186518072Y-125322000D01*
X186518072Y-124122000D01*
X186505812Y-123997518D01*
X186469502Y-123877820D01*
X186410537Y-123767506D01*
X186331185Y-123670815D01*
X186234494Y-123591463D01*
X186124180Y-123532498D01*
X186004482Y-123496188D01*
X185880000Y-123483928D01*
X184680000Y-123483928D01*
X184555518Y-123496188D01*
X184435820Y-123532498D01*
X184325506Y-123591463D01*
X184228815Y-123670815D01*
X184149463Y-123767506D01*
X184090498Y-123877820D01*
X184054188Y-123997518D01*
X184041928Y-124122000D01*
X184041928Y-125322000D01*
X184054188Y-125446482D01*
X184090498Y-125566180D01*
X184149463Y-125676494D01*
X184163568Y-125693681D01*
X184105763Y-125820516D01*
X184050000Y-126057313D01*
X184041505Y-126300438D01*
X169064833Y-126300438D01*
X166626000Y-123861605D01*
X164104724Y-126382881D01*
X109147276Y-126382881D01*
X106626000Y-123861605D01*
X104104724Y-126382881D01*
X92286000Y-126382881D01*
X92286000Y-123657695D01*
X102772520Y-123657695D01*
X102841822Y-124409938D01*
X103056548Y-125134208D01*
X103408445Y-125802670D01*
X103435452Y-125843088D01*
X103925119Y-126203276D01*
X106446395Y-123682000D01*
X106805605Y-123682000D01*
X109326881Y-126203276D01*
X109816548Y-125843088D01*
X110176849Y-125179118D01*
X110400694Y-124457615D01*
X110411327Y-124356212D01*
X150363000Y-124356212D01*
X150363000Y-124579788D01*
X150406617Y-124799067D01*
X150492176Y-125005624D01*
X150616388Y-125191520D01*
X150774480Y-125349612D01*
X150960376Y-125473824D01*
X151166933Y-125559383D01*
X151386212Y-125603000D01*
X151609788Y-125603000D01*
X151829067Y-125559383D01*
X152035624Y-125473824D01*
X152221520Y-125349612D01*
X152379612Y-125191520D01*
X152503824Y-125005624D01*
X152589383Y-124799067D01*
X152633000Y-124579788D01*
X152633000Y-124356212D01*
X152589383Y-124136933D01*
X152503824Y-123930376D01*
X152379612Y-123744480D01*
X152292827Y-123657695D01*
X162772520Y-123657695D01*
X162841822Y-124409938D01*
X163056548Y-125134208D01*
X163408445Y-125802670D01*
X163435452Y-125843088D01*
X163925119Y-126203276D01*
X166446395Y-123682000D01*
X166805605Y-123682000D01*
X169326881Y-126203276D01*
X169816548Y-125843088D01*
X170176849Y-125179118D01*
X170400694Y-124457615D01*
X170479480Y-123706305D01*
X170410178Y-122954062D01*
X170316939Y-122639565D01*
X176874040Y-122639565D01*
X176941020Y-122879656D01*
X177190048Y-122996756D01*
X177457135Y-123063023D01*
X177732017Y-123075910D01*
X178004133Y-123034922D01*
X178263023Y-122941636D01*
X178378980Y-122879656D01*
X178445960Y-122639565D01*
X177660000Y-121853605D01*
X176874040Y-122639565D01*
X170316939Y-122639565D01*
X170195452Y-122229792D01*
X169940780Y-121746017D01*
X176258090Y-121746017D01*
X176299078Y-122018133D01*
X176392364Y-122277023D01*
X176454344Y-122392980D01*
X176694435Y-122459960D01*
X177480395Y-121674000D01*
X177839605Y-121674000D01*
X178625565Y-122459960D01*
X178865656Y-122392980D01*
X178929485Y-122257240D01*
X178961995Y-122335727D01*
X179114880Y-122564535D01*
X179309465Y-122759120D01*
X179538273Y-122912005D01*
X179792510Y-123017314D01*
X180062408Y-123071000D01*
X180337592Y-123071000D01*
X180607490Y-123017314D01*
X180861727Y-122912005D01*
X181090535Y-122759120D01*
X181285120Y-122564535D01*
X181438005Y-122335727D01*
X181470000Y-122258485D01*
X181501995Y-122335727D01*
X181654880Y-122564535D01*
X181849465Y-122759120D01*
X182078273Y-122912005D01*
X182332510Y-123017314D01*
X182602408Y-123071000D01*
X182877592Y-123071000D01*
X183147490Y-123017314D01*
X183401727Y-122912005D01*
X183630535Y-122759120D01*
X183825120Y-122564535D01*
X183978005Y-122335727D01*
X184010000Y-122258485D01*
X184041995Y-122335727D01*
X184194880Y-122564535D01*
X184389465Y-122759120D01*
X184618273Y-122912005D01*
X184872510Y-123017314D01*
X185142408Y-123071000D01*
X185417592Y-123071000D01*
X185687490Y-123017314D01*
X185941727Y-122912005D01*
X186170535Y-122759120D01*
X186365120Y-122564535D01*
X186518005Y-122335727D01*
X186623314Y-122081490D01*
X186677000Y-121811592D01*
X186677000Y-121536408D01*
X186623314Y-121266510D01*
X186518005Y-121012273D01*
X186365120Y-120783465D01*
X186170535Y-120588880D01*
X185941727Y-120435995D01*
X185687490Y-120330686D01*
X185417592Y-120277000D01*
X185142408Y-120277000D01*
X184872510Y-120330686D01*
X184618273Y-120435995D01*
X184389465Y-120588880D01*
X184194880Y-120783465D01*
X184041995Y-121012273D01*
X184010000Y-121089515D01*
X183978005Y-121012273D01*
X183825120Y-120783465D01*
X183630535Y-120588880D01*
X183401727Y-120435995D01*
X183147490Y-120330686D01*
X182877592Y-120277000D01*
X182602408Y-120277000D01*
X182332510Y-120330686D01*
X182078273Y-120435995D01*
X181849465Y-120588880D01*
X181654880Y-120783465D01*
X181501995Y-121012273D01*
X181470000Y-121089515D01*
X181438005Y-121012273D01*
X181285120Y-120783465D01*
X181090535Y-120588880D01*
X180861727Y-120435995D01*
X180607490Y-120330686D01*
X180337592Y-120277000D01*
X180062408Y-120277000D01*
X179792510Y-120330686D01*
X179538273Y-120435995D01*
X179309465Y-120588880D01*
X179114880Y-120783465D01*
X178961995Y-121012273D01*
X178932308Y-121083943D01*
X178927636Y-121070977D01*
X178865656Y-120955020D01*
X178625565Y-120888040D01*
X177839605Y-121674000D01*
X177480395Y-121674000D01*
X176694435Y-120888040D01*
X176454344Y-120955020D01*
X176337244Y-121204048D01*
X176270977Y-121471135D01*
X176258090Y-121746017D01*
X169940780Y-121746017D01*
X169843555Y-121561330D01*
X169816548Y-121520912D01*
X169326881Y-121160724D01*
X166805605Y-123682000D01*
X166446395Y-123682000D01*
X163925119Y-121160724D01*
X163435452Y-121520912D01*
X163075151Y-122184882D01*
X162851306Y-122906385D01*
X162772520Y-123657695D01*
X152292827Y-123657695D01*
X152221520Y-123586388D01*
X152035624Y-123462176D01*
X151829067Y-123376617D01*
X151609788Y-123333000D01*
X151386212Y-123333000D01*
X151166933Y-123376617D01*
X150960376Y-123462176D01*
X150774480Y-123586388D01*
X150616388Y-123744480D01*
X150492176Y-123930376D01*
X150406617Y-124136933D01*
X150363000Y-124356212D01*
X110411327Y-124356212D01*
X110479480Y-123706305D01*
X110410178Y-122954062D01*
X110195452Y-122229792D01*
X109843555Y-121561330D01*
X109816548Y-121520912D01*
X109326881Y-121160724D01*
X106805605Y-123682000D01*
X106446395Y-123682000D01*
X103925119Y-121160724D01*
X103435452Y-121520912D01*
X103075151Y-122184882D01*
X102851306Y-122906385D01*
X102772520Y-123657695D01*
X92286000Y-123657695D01*
X92286000Y-120981119D01*
X104104724Y-120981119D01*
X106626000Y-123502395D01*
X109147276Y-120981119D01*
X164104724Y-120981119D01*
X166626000Y-123502395D01*
X169147276Y-120981119D01*
X168946696Y-120708435D01*
X176874040Y-120708435D01*
X177660000Y-121494395D01*
X178445960Y-120708435D01*
X178378980Y-120468344D01*
X178129952Y-120351244D01*
X177862865Y-120284977D01*
X177587983Y-120272090D01*
X177315867Y-120313078D01*
X177056977Y-120406364D01*
X176941020Y-120468344D01*
X176874040Y-120708435D01*
X168946696Y-120708435D01*
X168787088Y-120491452D01*
X168123118Y-120131151D01*
X167401615Y-119907306D01*
X166650305Y-119828520D01*
X165898062Y-119897822D01*
X165173792Y-120112548D01*
X164505330Y-120464445D01*
X164464912Y-120491452D01*
X164104724Y-120981119D01*
X109147276Y-120981119D01*
X108787088Y-120491452D01*
X108123118Y-120131151D01*
X107401615Y-119907306D01*
X106650305Y-119828520D01*
X105898062Y-119897822D01*
X105173792Y-120112548D01*
X104505330Y-120464445D01*
X104464912Y-120491452D01*
X104104724Y-120981119D01*
X92286000Y-120981119D01*
X92286000Y-117132000D01*
X96637928Y-117132000D01*
X96637928Y-120132000D01*
X96650188Y-120256482D01*
X96686498Y-120376180D01*
X96745463Y-120486494D01*
X96824815Y-120583185D01*
X96921506Y-120662537D01*
X97031820Y-120721502D01*
X97151518Y-120757812D01*
X97276000Y-120770072D01*
X100276000Y-120770072D01*
X100400482Y-120757812D01*
X100520180Y-120721502D01*
X100630494Y-120662537D01*
X100727185Y-120583185D01*
X100806537Y-120486494D01*
X100865502Y-120376180D01*
X100901812Y-120256482D01*
X100914072Y-120132000D01*
X100914072Y-117132000D01*
X100902057Y-117010000D01*
X103269928Y-117010000D01*
X103269928Y-118210000D01*
X103282188Y-118334482D01*
X103318498Y-118454180D01*
X103377463Y-118564494D01*
X103456815Y-118661185D01*
X103553506Y-118740537D01*
X103663820Y-118799502D01*
X103783518Y-118835812D01*
X103908000Y-118848072D01*
X105108000Y-118848072D01*
X105232482Y-118835812D01*
X105352180Y-118799502D01*
X105462494Y-118740537D01*
X105479681Y-118726432D01*
X105606516Y-118784237D01*
X105843313Y-118840000D01*
X106086438Y-118848495D01*
X106326549Y-118809395D01*
X106554418Y-118724202D01*
X106630852Y-118683348D01*
X106678159Y-118459764D01*
X106008000Y-117789605D01*
X105993858Y-117803748D01*
X105814253Y-117624143D01*
X105828395Y-117610000D01*
X106187605Y-117610000D01*
X106857764Y-118280159D01*
X107081348Y-118232852D01*
X107182237Y-118011484D01*
X107238000Y-117774687D01*
X107246495Y-117531562D01*
X107207395Y-117291451D01*
X107122202Y-117063582D01*
X107081348Y-116987148D01*
X106857764Y-116939841D01*
X106187605Y-117610000D01*
X105828395Y-117610000D01*
X105814253Y-117595858D01*
X105993858Y-117416253D01*
X106008000Y-117430395D01*
X106678159Y-116760236D01*
X106630852Y-116536652D01*
X106409484Y-116435763D01*
X106172687Y-116380000D01*
X105929562Y-116371505D01*
X105689451Y-116410605D01*
X105475883Y-116490451D01*
X105462494Y-116479463D01*
X105352180Y-116420498D01*
X105232482Y-116384188D01*
X105108000Y-116371928D01*
X103908000Y-116371928D01*
X103783518Y-116384188D01*
X103663820Y-116420498D01*
X103553506Y-116479463D01*
X103456815Y-116558815D01*
X103377463Y-116655506D01*
X103318498Y-116765820D01*
X103282188Y-116885518D01*
X103269928Y-117010000D01*
X100902057Y-117010000D01*
X100901812Y-117007518D01*
X100865502Y-116887820D01*
X100806537Y-116777506D01*
X100727185Y-116680815D01*
X100630494Y-116601463D01*
X100520180Y-116542498D01*
X100400482Y-116506188D01*
X100276000Y-116493928D01*
X97276000Y-116493928D01*
X97151518Y-116506188D01*
X97031820Y-116542498D01*
X96921506Y-116601463D01*
X96824815Y-116680815D01*
X96745463Y-116777506D01*
X96686498Y-116887820D01*
X96650188Y-117007518D01*
X96637928Y-117132000D01*
X92286000Y-117132000D01*
X92286000Y-115043653D01*
X97463952Y-115043653D01*
X97619962Y-115359214D01*
X97994745Y-115550020D01*
X98399551Y-115664044D01*
X98818824Y-115696902D01*
X99236451Y-115647334D01*
X99636383Y-115517243D01*
X99932038Y-115359214D01*
X100088048Y-115043653D01*
X98776000Y-113731605D01*
X97463952Y-115043653D01*
X92286000Y-115043653D01*
X92286000Y-113594824D01*
X96631098Y-113594824D01*
X96680666Y-114012451D01*
X96810757Y-114412383D01*
X96968786Y-114708038D01*
X97284347Y-114864048D01*
X98596395Y-113552000D01*
X98955605Y-113552000D01*
X100267653Y-114864048D01*
X100583214Y-114708038D01*
X100774020Y-114333255D01*
X100888044Y-113928449D01*
X100920902Y-113509176D01*
X100871334Y-113091549D01*
X100741243Y-112691617D01*
X100583214Y-112395962D01*
X100267653Y-112239952D01*
X98955605Y-113552000D01*
X98596395Y-113552000D01*
X97284347Y-112239952D01*
X96968786Y-112395962D01*
X96777980Y-112770745D01*
X96663956Y-113175551D01*
X96631098Y-113594824D01*
X92286000Y-113594824D01*
X92286000Y-112060347D01*
X97463952Y-112060347D01*
X98776000Y-113372395D01*
X100088048Y-112060347D01*
X99932038Y-111744786D01*
X99557255Y-111553980D01*
X99152449Y-111439956D01*
X98733176Y-111407098D01*
X98315549Y-111456666D01*
X97915617Y-111586757D01*
X97619962Y-111744786D01*
X97463952Y-112060347D01*
X92286000Y-112060347D01*
X92286000Y-108261721D01*
X96641000Y-108261721D01*
X96641000Y-108682279D01*
X96723047Y-109094756D01*
X96883988Y-109483302D01*
X97117637Y-109832983D01*
X97415017Y-110130363D01*
X97764698Y-110364012D01*
X98153244Y-110524953D01*
X98565721Y-110607000D01*
X98986279Y-110607000D01*
X99398756Y-110524953D01*
X99787302Y-110364012D01*
X100136983Y-110130363D01*
X100434363Y-109832983D01*
X100668012Y-109483302D01*
X100828953Y-109094756D01*
X100911000Y-108682279D01*
X100911000Y-108261721D01*
X100828953Y-107849244D01*
X100668012Y-107460698D01*
X100434363Y-107111017D01*
X100136983Y-106813637D01*
X99787302Y-106579988D01*
X99398756Y-106419047D01*
X98986279Y-106337000D01*
X98565721Y-106337000D01*
X98153244Y-106419047D01*
X97764698Y-106579988D01*
X97415017Y-106813637D01*
X97117637Y-107111017D01*
X96883988Y-107460698D01*
X96723047Y-107849244D01*
X96641000Y-108261721D01*
X92286000Y-108261721D01*
X92286000Y-103181721D01*
X96641000Y-103181721D01*
X96641000Y-103602279D01*
X96723047Y-104014756D01*
X96883988Y-104403302D01*
X97117637Y-104752983D01*
X97415017Y-105050363D01*
X97764698Y-105284012D01*
X98153244Y-105444953D01*
X98565721Y-105527000D01*
X98986279Y-105527000D01*
X99398756Y-105444953D01*
X99787302Y-105284012D01*
X99957933Y-105170000D01*
X127855928Y-105170000D01*
X127855928Y-106694000D01*
X127868188Y-106818482D01*
X127904498Y-106938180D01*
X127963463Y-107048494D01*
X128042815Y-107145185D01*
X128139506Y-107224537D01*
X128249820Y-107283502D01*
X128369518Y-107319812D01*
X128494000Y-107332072D01*
X130018000Y-107332072D01*
X130142482Y-107319812D01*
X130262180Y-107283502D01*
X130372494Y-107224537D01*
X130469185Y-107145185D01*
X130548537Y-107048494D01*
X130607502Y-106938180D01*
X130643812Y-106818482D01*
X130656072Y-106694000D01*
X130656072Y-105170000D01*
X130643812Y-105045518D01*
X130607502Y-104925820D01*
X130548537Y-104815506D01*
X130469185Y-104718815D01*
X130372494Y-104639463D01*
X130262180Y-104580498D01*
X130142482Y-104544188D01*
X130018000Y-104531928D01*
X129993317Y-104531928D01*
X130041960Y-104357565D01*
X129256000Y-103571605D01*
X128470040Y-104357565D01*
X128518683Y-104531928D01*
X128494000Y-104531928D01*
X128369518Y-104544188D01*
X128249820Y-104580498D01*
X128139506Y-104639463D01*
X128042815Y-104718815D01*
X127963463Y-104815506D01*
X127904498Y-104925820D01*
X127868188Y-105045518D01*
X127855928Y-105170000D01*
X99957933Y-105170000D01*
X100136983Y-105050363D01*
X100434363Y-104752983D01*
X100668012Y-104403302D01*
X100828953Y-104014756D01*
X100911000Y-103602279D01*
X100911000Y-103464017D01*
X127854090Y-103464017D01*
X127895078Y-103736133D01*
X127988364Y-103995023D01*
X128050344Y-104110980D01*
X128290435Y-104177960D01*
X129076395Y-103392000D01*
X129435605Y-103392000D01*
X130221565Y-104177960D01*
X130461656Y-104110980D01*
X130578756Y-103861952D01*
X130645023Y-103594865D01*
X130657910Y-103319983D01*
X130616922Y-103047867D01*
X130523636Y-102788977D01*
X130461656Y-102673020D01*
X130221565Y-102606040D01*
X129435605Y-103392000D01*
X129076395Y-103392000D01*
X128290435Y-102606040D01*
X128050344Y-102673020D01*
X127933244Y-102922048D01*
X127866977Y-103189135D01*
X127854090Y-103464017D01*
X100911000Y-103464017D01*
X100911000Y-103181721D01*
X100828953Y-102769244D01*
X100668012Y-102380698D01*
X100434363Y-102031017D01*
X100220911Y-101817565D01*
X128470040Y-101817565D01*
X128537020Y-102057656D01*
X128667644Y-102119079D01*
X128652977Y-102124364D01*
X128537020Y-102186344D01*
X128470040Y-102426435D01*
X129256000Y-103212395D01*
X130041960Y-102426435D01*
X129974980Y-102186344D01*
X129844356Y-102124921D01*
X129859023Y-102119636D01*
X129974980Y-102057656D01*
X130041960Y-101817565D01*
X129256000Y-101031605D01*
X128470040Y-101817565D01*
X100220911Y-101817565D01*
X100136983Y-101733637D01*
X99787302Y-101499988D01*
X99398756Y-101339047D01*
X98986279Y-101257000D01*
X98565721Y-101257000D01*
X98153244Y-101339047D01*
X97764698Y-101499988D01*
X97415017Y-101733637D01*
X97117637Y-102031017D01*
X96883988Y-102380698D01*
X96723047Y-102769244D01*
X96641000Y-103181721D01*
X92286000Y-103181721D01*
X92286000Y-100924017D01*
X127854090Y-100924017D01*
X127895078Y-101196133D01*
X127988364Y-101455023D01*
X128050344Y-101570980D01*
X128290435Y-101637960D01*
X129076395Y-100852000D01*
X129435605Y-100852000D01*
X130221565Y-101637960D01*
X130461656Y-101570980D01*
X130578756Y-101321952D01*
X130645023Y-101054865D01*
X130657910Y-100779983D01*
X130616922Y-100507867D01*
X130523636Y-100248977D01*
X130461656Y-100133020D01*
X130221565Y-100066040D01*
X129435605Y-100852000D01*
X129076395Y-100852000D01*
X128290435Y-100066040D01*
X128050344Y-100133020D01*
X127933244Y-100382048D01*
X127866977Y-100649135D01*
X127854090Y-100924017D01*
X92286000Y-100924017D01*
X92286000Y-96812000D01*
X96637928Y-96812000D01*
X96637928Y-99812000D01*
X96650188Y-99936482D01*
X96686498Y-100056180D01*
X96745463Y-100166494D01*
X96824815Y-100263185D01*
X96921506Y-100342537D01*
X97031820Y-100401502D01*
X97151518Y-100437812D01*
X97276000Y-100450072D01*
X100276000Y-100450072D01*
X100400482Y-100437812D01*
X100520180Y-100401502D01*
X100630494Y-100342537D01*
X100727185Y-100263185D01*
X100806537Y-100166494D01*
X100865502Y-100056180D01*
X100901812Y-99936482D01*
X100914072Y-99812000D01*
X100914072Y-98174408D01*
X127859000Y-98174408D01*
X127859000Y-98449592D01*
X127912686Y-98719490D01*
X128017995Y-98973727D01*
X128170880Y-99202535D01*
X128365465Y-99397120D01*
X128594273Y-99550005D01*
X128665943Y-99579692D01*
X128652977Y-99584364D01*
X128537020Y-99646344D01*
X128470040Y-99886435D01*
X129256000Y-100672395D01*
X130041960Y-99886435D01*
X129974980Y-99646344D01*
X129839240Y-99582515D01*
X129917727Y-99550005D01*
X130146535Y-99397120D01*
X130341120Y-99202535D01*
X130494005Y-98973727D01*
X130599314Y-98719490D01*
X130653000Y-98449592D01*
X130653000Y-98174408D01*
X130599314Y-97904510D01*
X130494005Y-97650273D01*
X130341120Y-97421465D01*
X130146535Y-97226880D01*
X129917727Y-97073995D01*
X129663490Y-96968686D01*
X129393592Y-96915000D01*
X129118408Y-96915000D01*
X128848510Y-96968686D01*
X128594273Y-97073995D01*
X128365465Y-97226880D01*
X128170880Y-97421465D01*
X128017995Y-97650273D01*
X127912686Y-97904510D01*
X127859000Y-98174408D01*
X100914072Y-98174408D01*
X100914072Y-96812000D01*
X100901812Y-96687518D01*
X100865502Y-96567820D01*
X100806537Y-96457506D01*
X100727185Y-96360815D01*
X100630494Y-96281463D01*
X100520180Y-96222498D01*
X100400482Y-96186188D01*
X100276000Y-96173928D01*
X97276000Y-96173928D01*
X97151518Y-96186188D01*
X97031820Y-96222498D01*
X96921506Y-96281463D01*
X96824815Y-96360815D01*
X96745463Y-96457506D01*
X96686498Y-96567820D01*
X96650188Y-96687518D01*
X96637928Y-96812000D01*
X92286000Y-96812000D01*
X92286000Y-94723653D01*
X97463952Y-94723653D01*
X97619962Y-95039214D01*
X97994745Y-95230020D01*
X98399551Y-95344044D01*
X98818824Y-95376902D01*
X99236451Y-95327334D01*
X99636383Y-95197243D01*
X99932038Y-95039214D01*
X100088048Y-94723653D01*
X98776000Y-93411605D01*
X97463952Y-94723653D01*
X92286000Y-94723653D01*
X92286000Y-93274824D01*
X96631098Y-93274824D01*
X96680666Y-93692451D01*
X96810757Y-94092383D01*
X96968786Y-94388038D01*
X97284347Y-94544048D01*
X98596395Y-93232000D01*
X98955605Y-93232000D01*
X100267653Y-94544048D01*
X100583214Y-94388038D01*
X100774020Y-94013255D01*
X100888044Y-93608449D01*
X100920902Y-93189176D01*
X100871334Y-92771549D01*
X100741243Y-92371617D01*
X100583214Y-92075962D01*
X100267653Y-91919952D01*
X98955605Y-93232000D01*
X98596395Y-93232000D01*
X97284347Y-91919952D01*
X96968786Y-92075962D01*
X96777980Y-92450745D01*
X96663956Y-92855551D01*
X96631098Y-93274824D01*
X92286000Y-93274824D01*
X92286000Y-91740347D01*
X97463952Y-91740347D01*
X98776000Y-93052395D01*
X100088048Y-91740347D01*
X99932038Y-91424786D01*
X99557255Y-91233980D01*
X99152449Y-91119956D01*
X98733176Y-91087098D01*
X98315549Y-91136666D01*
X97915617Y-91266757D01*
X97619962Y-91424786D01*
X97463952Y-91740347D01*
X92286000Y-91740347D01*
X92286000Y-87941721D01*
X96641000Y-87941721D01*
X96641000Y-88362279D01*
X96723047Y-88774756D01*
X96883988Y-89163302D01*
X97117637Y-89512983D01*
X97415017Y-89810363D01*
X97764698Y-90044012D01*
X98153244Y-90204953D01*
X98565721Y-90287000D01*
X98986279Y-90287000D01*
X99398756Y-90204953D01*
X99787302Y-90044012D01*
X100136983Y-89810363D01*
X100434363Y-89512983D01*
X100668012Y-89163302D01*
X100828953Y-88774756D01*
X100911000Y-88362279D01*
X100911000Y-87941721D01*
X100832286Y-87546000D01*
X103523928Y-87546000D01*
X103523928Y-88746000D01*
X103536188Y-88870482D01*
X103572498Y-88990180D01*
X103631463Y-89100494D01*
X103710815Y-89197185D01*
X103807506Y-89276537D01*
X103917820Y-89335502D01*
X104037518Y-89371812D01*
X104162000Y-89384072D01*
X105362000Y-89384072D01*
X105486482Y-89371812D01*
X105606180Y-89335502D01*
X105716494Y-89276537D01*
X105733681Y-89262432D01*
X105860516Y-89320237D01*
X106097313Y-89376000D01*
X106340438Y-89384495D01*
X106580549Y-89345395D01*
X106808418Y-89260202D01*
X106884852Y-89219348D01*
X106932159Y-88995764D01*
X106262000Y-88325605D01*
X106247858Y-88339748D01*
X106068253Y-88160143D01*
X106082395Y-88146000D01*
X106441605Y-88146000D01*
X107111764Y-88816159D01*
X107335348Y-88768852D01*
X107436237Y-88547484D01*
X107492000Y-88310687D01*
X107500495Y-88067562D01*
X107461395Y-87827451D01*
X107376202Y-87599582D01*
X107335348Y-87523148D01*
X107111764Y-87475841D01*
X106441605Y-88146000D01*
X106082395Y-88146000D01*
X106068253Y-88131858D01*
X106247858Y-87952253D01*
X106262000Y-87966395D01*
X106932159Y-87296236D01*
X106884852Y-87072652D01*
X106663484Y-86971763D01*
X106426687Y-86916000D01*
X106183562Y-86907505D01*
X105943451Y-86946605D01*
X105729883Y-87026451D01*
X105716494Y-87015463D01*
X105606180Y-86956498D01*
X105486482Y-86920188D01*
X105362000Y-86907928D01*
X104162000Y-86907928D01*
X104037518Y-86920188D01*
X103917820Y-86956498D01*
X103807506Y-87015463D01*
X103710815Y-87094815D01*
X103631463Y-87191506D01*
X103572498Y-87301820D01*
X103536188Y-87421518D01*
X103523928Y-87546000D01*
X100832286Y-87546000D01*
X100828953Y-87529244D01*
X100668012Y-87140698D01*
X100434363Y-86791017D01*
X100136983Y-86493637D01*
X99787302Y-86259988D01*
X99398756Y-86099047D01*
X98986279Y-86017000D01*
X98565721Y-86017000D01*
X98153244Y-86099047D01*
X97764698Y-86259988D01*
X97415017Y-86493637D01*
X97117637Y-86791017D01*
X96883988Y-87140698D01*
X96723047Y-87529244D01*
X96641000Y-87941721D01*
X92286000Y-87941721D01*
X92286000Y-85474408D01*
X134209000Y-85474408D01*
X134209000Y-85749592D01*
X134262686Y-86019490D01*
X134367995Y-86273727D01*
X134520880Y-86502535D01*
X134715465Y-86697120D01*
X134944273Y-86850005D01*
X135021515Y-86882000D01*
X134944273Y-86913995D01*
X134715465Y-87066880D01*
X134520880Y-87261465D01*
X134367995Y-87490273D01*
X134262686Y-87744510D01*
X134209000Y-88014408D01*
X134209000Y-88289592D01*
X134262686Y-88559490D01*
X134367995Y-88813727D01*
X134520880Y-89042535D01*
X134715465Y-89237120D01*
X134944273Y-89390005D01*
X135021515Y-89422000D01*
X134944273Y-89453995D01*
X134715465Y-89606880D01*
X134520880Y-89801465D01*
X134367995Y-90030273D01*
X134262686Y-90284510D01*
X134209000Y-90554408D01*
X134209000Y-90829592D01*
X134262686Y-91099490D01*
X134367995Y-91353727D01*
X134520880Y-91582535D01*
X134715465Y-91777120D01*
X134944273Y-91930005D01*
X135021515Y-91962000D01*
X134944273Y-91993995D01*
X134715465Y-92146880D01*
X134520880Y-92341465D01*
X134367995Y-92570273D01*
X134262686Y-92824510D01*
X134209000Y-93094408D01*
X134209000Y-93369592D01*
X134262686Y-93639490D01*
X134367995Y-93893727D01*
X134520880Y-94122535D01*
X134715465Y-94317120D01*
X134944273Y-94470005D01*
X135021515Y-94502000D01*
X134944273Y-94533995D01*
X134715465Y-94686880D01*
X134520880Y-94881465D01*
X134367995Y-95110273D01*
X134262686Y-95364510D01*
X134209000Y-95634408D01*
X134209000Y-95909592D01*
X134262686Y-96179490D01*
X134367995Y-96433727D01*
X134520880Y-96662535D01*
X134715465Y-96857120D01*
X134944273Y-97010005D01*
X135021515Y-97042000D01*
X134944273Y-97073995D01*
X134715465Y-97226880D01*
X134520880Y-97421465D01*
X134367995Y-97650273D01*
X134262686Y-97904510D01*
X134209000Y-98174408D01*
X134209000Y-98449592D01*
X134262686Y-98719490D01*
X134367995Y-98973727D01*
X134520880Y-99202535D01*
X134715465Y-99397120D01*
X134944273Y-99550005D01*
X135021515Y-99582000D01*
X134944273Y-99613995D01*
X134715465Y-99766880D01*
X134520880Y-99961465D01*
X134367995Y-100190273D01*
X134262686Y-100444510D01*
X134209000Y-100714408D01*
X134209000Y-100989592D01*
X134262686Y-101259490D01*
X134367995Y-101513727D01*
X134520880Y-101742535D01*
X134715465Y-101937120D01*
X134944273Y-102090005D01*
X135021515Y-102122000D01*
X134944273Y-102153995D01*
X134715465Y-102306880D01*
X134520880Y-102501465D01*
X134367995Y-102730273D01*
X134262686Y-102984510D01*
X134209000Y-103254408D01*
X134209000Y-103529592D01*
X134262686Y-103799490D01*
X134367995Y-104053727D01*
X134520880Y-104282535D01*
X134715465Y-104477120D01*
X134944273Y-104630005D01*
X135021515Y-104662000D01*
X134944273Y-104693995D01*
X134715465Y-104846880D01*
X134520880Y-105041465D01*
X134367995Y-105270273D01*
X134262686Y-105524510D01*
X134209000Y-105794408D01*
X134209000Y-106069592D01*
X134262686Y-106339490D01*
X134367995Y-106593727D01*
X134520880Y-106822535D01*
X134715465Y-107017120D01*
X134944273Y-107170005D01*
X135021515Y-107202000D01*
X134944273Y-107233995D01*
X134715465Y-107386880D01*
X134520880Y-107581465D01*
X134367995Y-107810273D01*
X134262686Y-108064510D01*
X134209000Y-108334408D01*
X134209000Y-108609592D01*
X134262686Y-108879490D01*
X134367995Y-109133727D01*
X134520880Y-109362535D01*
X134715465Y-109557120D01*
X134944273Y-109710005D01*
X135021515Y-109742000D01*
X134944273Y-109773995D01*
X134715465Y-109926880D01*
X134520880Y-110121465D01*
X134367995Y-110350273D01*
X134262686Y-110604510D01*
X134209000Y-110874408D01*
X134209000Y-111149592D01*
X134262686Y-111419490D01*
X134367995Y-111673727D01*
X134520880Y-111902535D01*
X134715465Y-112097120D01*
X134944273Y-112250005D01*
X135021515Y-112282000D01*
X134944273Y-112313995D01*
X134715465Y-112466880D01*
X134520880Y-112661465D01*
X134367995Y-112890273D01*
X134262686Y-113144510D01*
X134209000Y-113414408D01*
X134209000Y-113689592D01*
X134262686Y-113959490D01*
X134367995Y-114213727D01*
X134520880Y-114442535D01*
X134715465Y-114637120D01*
X134944273Y-114790005D01*
X135021515Y-114822000D01*
X134944273Y-114853995D01*
X134715465Y-115006880D01*
X134520880Y-115201465D01*
X134367995Y-115430273D01*
X134262686Y-115684510D01*
X134209000Y-115954408D01*
X134209000Y-116229592D01*
X134262686Y-116499490D01*
X134367995Y-116753727D01*
X134520880Y-116982535D01*
X134715465Y-117177120D01*
X134944273Y-117330005D01*
X135198510Y-117435314D01*
X135468408Y-117489000D01*
X135743592Y-117489000D01*
X136013490Y-117435314D01*
X136267727Y-117330005D01*
X136496535Y-117177120D01*
X136691120Y-116982535D01*
X136844005Y-116753727D01*
X136949314Y-116499490D01*
X137003000Y-116229592D01*
X137003000Y-115954408D01*
X136949314Y-115684510D01*
X136844005Y-115430273D01*
X136691120Y-115201465D01*
X136496535Y-115006880D01*
X136267727Y-114853995D01*
X136190485Y-114822000D01*
X136267727Y-114790005D01*
X136496535Y-114637120D01*
X136691120Y-114442535D01*
X136844005Y-114213727D01*
X136949314Y-113959490D01*
X137003000Y-113689592D01*
X137003000Y-113414408D01*
X136949314Y-113144510D01*
X136844005Y-112890273D01*
X136691120Y-112661465D01*
X136496535Y-112466880D01*
X136267727Y-112313995D01*
X136190485Y-112282000D01*
X136267727Y-112250005D01*
X136496535Y-112097120D01*
X136691120Y-111902535D01*
X136844005Y-111673727D01*
X136949314Y-111419490D01*
X137003000Y-111149592D01*
X137003000Y-110874408D01*
X136949314Y-110604510D01*
X136844005Y-110350273D01*
X136691120Y-110121465D01*
X136496535Y-109926880D01*
X136267727Y-109773995D01*
X136190485Y-109742000D01*
X136267727Y-109710005D01*
X136496535Y-109557120D01*
X136691120Y-109362535D01*
X136844005Y-109133727D01*
X136949314Y-108879490D01*
X137003000Y-108609592D01*
X137003000Y-108334408D01*
X136949314Y-108064510D01*
X136844005Y-107810273D01*
X136691120Y-107581465D01*
X136496535Y-107386880D01*
X136267727Y-107233995D01*
X136190485Y-107202000D01*
X136267727Y-107170005D01*
X136496535Y-107017120D01*
X136691120Y-106822535D01*
X136844005Y-106593727D01*
X136949314Y-106339490D01*
X137003000Y-106069592D01*
X137003000Y-105794408D01*
X136949314Y-105524510D01*
X136844005Y-105270273D01*
X136691120Y-105041465D01*
X136496535Y-104846880D01*
X136267727Y-104693995D01*
X136190485Y-104662000D01*
X136267727Y-104630005D01*
X136496535Y-104477120D01*
X136691120Y-104282535D01*
X136844005Y-104053727D01*
X136949314Y-103799490D01*
X137003000Y-103529592D01*
X137003000Y-103254408D01*
X136949314Y-102984510D01*
X136844005Y-102730273D01*
X136691120Y-102501465D01*
X136496535Y-102306880D01*
X136267727Y-102153995D01*
X136190485Y-102122000D01*
X136267727Y-102090005D01*
X136496535Y-101937120D01*
X136691120Y-101742535D01*
X136844005Y-101513727D01*
X136949314Y-101259490D01*
X137003000Y-100989592D01*
X137003000Y-100714408D01*
X136949314Y-100444510D01*
X136844005Y-100190273D01*
X136691120Y-99961465D01*
X136496535Y-99766880D01*
X136267727Y-99613995D01*
X136190485Y-99582000D01*
X136267727Y-99550005D01*
X136496535Y-99397120D01*
X136691120Y-99202535D01*
X136844005Y-98973727D01*
X136949314Y-98719490D01*
X137003000Y-98449592D01*
X137003000Y-98174408D01*
X136949314Y-97904510D01*
X136844005Y-97650273D01*
X136691120Y-97421465D01*
X136496535Y-97226880D01*
X136267727Y-97073995D01*
X136190485Y-97042000D01*
X136267727Y-97010005D01*
X136496535Y-96857120D01*
X136691120Y-96662535D01*
X136844005Y-96433727D01*
X136949314Y-96179490D01*
X137003000Y-95909592D01*
X137003000Y-95634408D01*
X136949314Y-95364510D01*
X136844005Y-95110273D01*
X136691120Y-94881465D01*
X136496535Y-94686880D01*
X136267727Y-94533995D01*
X136190485Y-94502000D01*
X136267727Y-94470005D01*
X136496535Y-94317120D01*
X136691120Y-94122535D01*
X136844005Y-93893727D01*
X136949314Y-93639490D01*
X137003000Y-93369592D01*
X137003000Y-93094408D01*
X136949314Y-92824510D01*
X136844005Y-92570273D01*
X136691120Y-92341465D01*
X136496535Y-92146880D01*
X136267727Y-91993995D01*
X136190485Y-91962000D01*
X136267727Y-91930005D01*
X136496535Y-91777120D01*
X136691120Y-91582535D01*
X136844005Y-91353727D01*
X136949314Y-91099490D01*
X137003000Y-90829592D01*
X137003000Y-90554408D01*
X136949314Y-90284510D01*
X136844005Y-90030273D01*
X136691120Y-89801465D01*
X136496535Y-89606880D01*
X136267727Y-89453995D01*
X136190485Y-89422000D01*
X136267727Y-89390005D01*
X136496535Y-89237120D01*
X136691120Y-89042535D01*
X136844005Y-88813727D01*
X136949314Y-88559490D01*
X137003000Y-88289592D01*
X137003000Y-88014408D01*
X136949314Y-87744510D01*
X136844005Y-87490273D01*
X136691120Y-87261465D01*
X136496535Y-87066880D01*
X136267727Y-86913995D01*
X136190485Y-86882000D01*
X136267727Y-86850005D01*
X136496535Y-86697120D01*
X136691120Y-86502535D01*
X136844005Y-86273727D01*
X136949314Y-86019490D01*
X137003000Y-85749592D01*
X137003000Y-85474408D01*
X136949314Y-85204510D01*
X136844005Y-84950273D01*
X136691120Y-84721465D01*
X136496535Y-84526880D01*
X136267727Y-84373995D01*
X136196057Y-84344308D01*
X136209023Y-84339636D01*
X136324980Y-84277656D01*
X136391960Y-84037565D01*
X135606000Y-83251605D01*
X134820040Y-84037565D01*
X134887020Y-84277656D01*
X135022760Y-84341485D01*
X134944273Y-84373995D01*
X134715465Y-84526880D01*
X134520880Y-84721465D01*
X134367995Y-84950273D01*
X134262686Y-85204510D01*
X134209000Y-85474408D01*
X92286000Y-85474408D01*
X92286000Y-72404000D01*
X93565928Y-72404000D01*
X93578188Y-72528482D01*
X93614498Y-72648180D01*
X93673463Y-72758494D01*
X93752815Y-72855185D01*
X93849506Y-72934537D01*
X93959820Y-72993502D01*
X94079518Y-73029812D01*
X94163465Y-73038080D01*
X94075465Y-73096880D01*
X93880880Y-73291465D01*
X93727995Y-73520273D01*
X93622686Y-73774510D01*
X93569000Y-74044408D01*
X93569000Y-74319592D01*
X93622686Y-74589490D01*
X93727995Y-74843727D01*
X93880880Y-75072535D01*
X94075465Y-75267120D01*
X94304273Y-75420005D01*
X94381515Y-75452000D01*
X94304273Y-75483995D01*
X94075465Y-75636880D01*
X93880880Y-75831465D01*
X93727995Y-76060273D01*
X93622686Y-76314510D01*
X93569000Y-76584408D01*
X93569000Y-76859592D01*
X93622686Y-77129490D01*
X93727995Y-77383727D01*
X93880880Y-77612535D01*
X94075465Y-77807120D01*
X94304273Y-77960005D01*
X94381515Y-77992000D01*
X94304273Y-78023995D01*
X94075465Y-78176880D01*
X93880880Y-78371465D01*
X93727995Y-78600273D01*
X93622686Y-78854510D01*
X93569000Y-79124408D01*
X93569000Y-79399592D01*
X93622686Y-79669490D01*
X93727995Y-79923727D01*
X93880880Y-80152535D01*
X94075465Y-80347120D01*
X94304273Y-80500005D01*
X94381515Y-80532000D01*
X94304273Y-80563995D01*
X94075465Y-80716880D01*
X93880880Y-80911465D01*
X93727995Y-81140273D01*
X93622686Y-81394510D01*
X93569000Y-81664408D01*
X93569000Y-81939592D01*
X93622686Y-82209490D01*
X93727995Y-82463727D01*
X93880880Y-82692535D01*
X94075465Y-82887120D01*
X94304273Y-83040005D01*
X94558510Y-83145314D01*
X94828408Y-83199000D01*
X95103592Y-83199000D01*
X95373490Y-83145314D01*
X95376621Y-83144017D01*
X134204090Y-83144017D01*
X134245078Y-83416133D01*
X134338364Y-83675023D01*
X134400344Y-83790980D01*
X134640435Y-83857960D01*
X135426395Y-83072000D01*
X135785605Y-83072000D01*
X136571565Y-83857960D01*
X136811656Y-83790980D01*
X136928756Y-83541952D01*
X136995023Y-83274865D01*
X137007910Y-82999983D01*
X136966922Y-82727867D01*
X136873636Y-82468977D01*
X136811656Y-82353020D01*
X136571565Y-82286040D01*
X135785605Y-83072000D01*
X135426395Y-83072000D01*
X134640435Y-82286040D01*
X134400344Y-82353020D01*
X134283244Y-82602048D01*
X134216977Y-82869135D01*
X134204090Y-83144017D01*
X95376621Y-83144017D01*
X95627727Y-83040005D01*
X95856535Y-82887120D01*
X96051120Y-82692535D01*
X96204005Y-82463727D01*
X96309314Y-82209490D01*
X96363000Y-81939592D01*
X96363000Y-81664408D01*
X96309314Y-81394510D01*
X96204005Y-81140273D01*
X96051120Y-80911465D01*
X95856535Y-80716880D01*
X95627727Y-80563995D01*
X95550485Y-80532000D01*
X95627727Y-80500005D01*
X95856535Y-80347120D01*
X96051120Y-80152535D01*
X96204005Y-79923727D01*
X96309314Y-79669490D01*
X96312750Y-79652212D01*
X121720959Y-79652212D01*
X121720959Y-79875788D01*
X121764576Y-80095067D01*
X121850135Y-80301624D01*
X121974347Y-80487520D01*
X122132439Y-80645612D01*
X122318335Y-80769824D01*
X122524892Y-80855383D01*
X122744171Y-80899000D01*
X122967747Y-80899000D01*
X123187026Y-80855383D01*
X123393583Y-80769824D01*
X123579479Y-80645612D01*
X123737571Y-80487520D01*
X123799786Y-80394408D01*
X134209000Y-80394408D01*
X134209000Y-80669592D01*
X134262686Y-80939490D01*
X134367995Y-81193727D01*
X134520880Y-81422535D01*
X134715465Y-81617120D01*
X134944273Y-81770005D01*
X135015943Y-81799692D01*
X135002977Y-81804364D01*
X134887020Y-81866344D01*
X134820040Y-82106435D01*
X135606000Y-82892395D01*
X136391960Y-82106435D01*
X136324980Y-81866344D01*
X136189240Y-81802515D01*
X136267727Y-81770005D01*
X136496535Y-81617120D01*
X136691120Y-81422535D01*
X136844005Y-81193727D01*
X136949314Y-80939490D01*
X137003000Y-80669592D01*
X137003000Y-80394408D01*
X136949314Y-80124510D01*
X136844005Y-79870273D01*
X136777005Y-79770000D01*
X138015928Y-79770000D01*
X138015928Y-81294000D01*
X138028188Y-81418482D01*
X138064498Y-81538180D01*
X138123463Y-81648494D01*
X138202815Y-81745185D01*
X138299506Y-81824537D01*
X138409820Y-81883502D01*
X138529518Y-81919812D01*
X138613465Y-81928080D01*
X138525465Y-81986880D01*
X138330880Y-82181465D01*
X138177995Y-82410273D01*
X138072686Y-82664510D01*
X138019000Y-82934408D01*
X138019000Y-83209592D01*
X138072686Y-83479490D01*
X138177995Y-83733727D01*
X138330880Y-83962535D01*
X138525465Y-84157120D01*
X138754273Y-84310005D01*
X138831515Y-84342000D01*
X138754273Y-84373995D01*
X138525465Y-84526880D01*
X138330880Y-84721465D01*
X138177995Y-84950273D01*
X138072686Y-85204510D01*
X138019000Y-85474408D01*
X138019000Y-85749592D01*
X138072686Y-86019490D01*
X138177995Y-86273727D01*
X138330880Y-86502535D01*
X138525465Y-86697120D01*
X138754273Y-86850005D01*
X138831515Y-86882000D01*
X138754273Y-86913995D01*
X138525465Y-87066880D01*
X138330880Y-87261465D01*
X138177995Y-87490273D01*
X138072686Y-87744510D01*
X138019000Y-88014408D01*
X138019000Y-88289592D01*
X138072686Y-88559490D01*
X138177995Y-88813727D01*
X138330880Y-89042535D01*
X138525465Y-89237120D01*
X138754273Y-89390005D01*
X138831515Y-89422000D01*
X138754273Y-89453995D01*
X138525465Y-89606880D01*
X138330880Y-89801465D01*
X138177995Y-90030273D01*
X138072686Y-90284510D01*
X138019000Y-90554408D01*
X138019000Y-90829592D01*
X138072686Y-91099490D01*
X138177995Y-91353727D01*
X138330880Y-91582535D01*
X138525465Y-91777120D01*
X138754273Y-91930005D01*
X138831515Y-91962000D01*
X138754273Y-91993995D01*
X138525465Y-92146880D01*
X138330880Y-92341465D01*
X138177995Y-92570273D01*
X138072686Y-92824510D01*
X138019000Y-93094408D01*
X138019000Y-93369592D01*
X138072686Y-93639490D01*
X138177995Y-93893727D01*
X138330880Y-94122535D01*
X138525465Y-94317120D01*
X138754273Y-94470005D01*
X138831515Y-94502000D01*
X138754273Y-94533995D01*
X138525465Y-94686880D01*
X138330880Y-94881465D01*
X138177995Y-95110273D01*
X138072686Y-95364510D01*
X138019000Y-95634408D01*
X138019000Y-95909592D01*
X138072686Y-96179490D01*
X138177995Y-96433727D01*
X138330880Y-96662535D01*
X138525465Y-96857120D01*
X138754273Y-97010005D01*
X138831515Y-97042000D01*
X138754273Y-97073995D01*
X138525465Y-97226880D01*
X138330880Y-97421465D01*
X138177995Y-97650273D01*
X138072686Y-97904510D01*
X138019000Y-98174408D01*
X138019000Y-98449592D01*
X138072686Y-98719490D01*
X138177995Y-98973727D01*
X138330880Y-99202535D01*
X138525465Y-99397120D01*
X138754273Y-99550005D01*
X138831515Y-99582000D01*
X138754273Y-99613995D01*
X138525465Y-99766880D01*
X138330880Y-99961465D01*
X138177995Y-100190273D01*
X138072686Y-100444510D01*
X138019000Y-100714408D01*
X138019000Y-100989592D01*
X138072686Y-101259490D01*
X138177995Y-101513727D01*
X138330880Y-101742535D01*
X138525465Y-101937120D01*
X138754273Y-102090005D01*
X138831515Y-102122000D01*
X138754273Y-102153995D01*
X138525465Y-102306880D01*
X138330880Y-102501465D01*
X138177995Y-102730273D01*
X138072686Y-102984510D01*
X138019000Y-103254408D01*
X138019000Y-103529592D01*
X138072686Y-103799490D01*
X138177995Y-104053727D01*
X138330880Y-104282535D01*
X138525465Y-104477120D01*
X138754273Y-104630005D01*
X138831515Y-104662000D01*
X138754273Y-104693995D01*
X138525465Y-104846880D01*
X138330880Y-105041465D01*
X138177995Y-105270273D01*
X138072686Y-105524510D01*
X138019000Y-105794408D01*
X138019000Y-106069592D01*
X138072686Y-106339490D01*
X138177995Y-106593727D01*
X138330880Y-106822535D01*
X138525465Y-107017120D01*
X138754273Y-107170005D01*
X138831515Y-107202000D01*
X138754273Y-107233995D01*
X138525465Y-107386880D01*
X138330880Y-107581465D01*
X138177995Y-107810273D01*
X138072686Y-108064510D01*
X138019000Y-108334408D01*
X138019000Y-108609592D01*
X138072686Y-108879490D01*
X138177995Y-109133727D01*
X138330880Y-109362535D01*
X138525465Y-109557120D01*
X138754273Y-109710005D01*
X138831515Y-109742000D01*
X138754273Y-109773995D01*
X138525465Y-109926880D01*
X138330880Y-110121465D01*
X138177995Y-110350273D01*
X138072686Y-110604510D01*
X138019000Y-110874408D01*
X138019000Y-111149592D01*
X138072686Y-111419490D01*
X138177995Y-111673727D01*
X138330880Y-111902535D01*
X138525465Y-112097120D01*
X138754273Y-112250005D01*
X138831515Y-112282000D01*
X138754273Y-112313995D01*
X138525465Y-112466880D01*
X138330880Y-112661465D01*
X138177995Y-112890273D01*
X138072686Y-113144510D01*
X138019000Y-113414408D01*
X138019000Y-113689592D01*
X138072686Y-113959490D01*
X138177995Y-114213727D01*
X138330880Y-114442535D01*
X138525465Y-114637120D01*
X138754273Y-114790005D01*
X139008510Y-114895314D01*
X139278408Y-114949000D01*
X139553592Y-114949000D01*
X139643132Y-114931189D01*
X139570176Y-115040376D01*
X139484617Y-115246933D01*
X139441000Y-115466212D01*
X139441000Y-115689788D01*
X139484617Y-115909067D01*
X139570176Y-116115624D01*
X139694388Y-116301520D01*
X139852480Y-116459612D01*
X140038376Y-116583824D01*
X140244933Y-116669383D01*
X140464212Y-116713000D01*
X140687788Y-116713000D01*
X140907067Y-116669383D01*
X141113624Y-116583824D01*
X141299520Y-116459612D01*
X141457612Y-116301520D01*
X141581824Y-116115624D01*
X141667383Y-115909067D01*
X141711000Y-115689788D01*
X141711000Y-115466212D01*
X141667383Y-115246933D01*
X141581824Y-115040376D01*
X141457612Y-114854480D01*
X141299520Y-114696388D01*
X141113624Y-114572176D01*
X140907067Y-114486617D01*
X140687788Y-114443000D01*
X140500655Y-114443000D01*
X140501120Y-114442535D01*
X140654005Y-114213727D01*
X140759314Y-113959490D01*
X140813000Y-113689592D01*
X140813000Y-113414408D01*
X140759314Y-113144510D01*
X140654005Y-112890273D01*
X140501120Y-112661465D01*
X140306535Y-112466880D01*
X140077727Y-112313995D01*
X140000485Y-112282000D01*
X140077727Y-112250005D01*
X140306535Y-112097120D01*
X140501120Y-111902535D01*
X140654005Y-111673727D01*
X140759314Y-111419490D01*
X140813000Y-111149592D01*
X140813000Y-110874408D01*
X140759314Y-110604510D01*
X140654005Y-110350273D01*
X140501120Y-110121465D01*
X140306535Y-109926880D01*
X140077727Y-109773995D01*
X140000485Y-109742000D01*
X140077727Y-109710005D01*
X140306535Y-109557120D01*
X140501120Y-109362535D01*
X140654005Y-109133727D01*
X140759314Y-108879490D01*
X140813000Y-108609592D01*
X140813000Y-108334408D01*
X140759314Y-108064510D01*
X140654005Y-107810273D01*
X140501120Y-107581465D01*
X140306535Y-107386880D01*
X140077727Y-107233995D01*
X140000485Y-107202000D01*
X140077727Y-107170005D01*
X140306535Y-107017120D01*
X140501120Y-106822535D01*
X140654005Y-106593727D01*
X140759314Y-106339490D01*
X140813000Y-106069592D01*
X140813000Y-105794408D01*
X140759314Y-105524510D01*
X140654005Y-105270273D01*
X140501120Y-105041465D01*
X140306535Y-104846880D01*
X140077727Y-104693995D01*
X140000485Y-104662000D01*
X140077727Y-104630005D01*
X140306535Y-104477120D01*
X140501120Y-104282535D01*
X140654005Y-104053727D01*
X140759314Y-103799490D01*
X140813000Y-103529592D01*
X140813000Y-103254408D01*
X140759314Y-102984510D01*
X140654005Y-102730273D01*
X140501120Y-102501465D01*
X140306535Y-102306880D01*
X140077727Y-102153995D01*
X140000485Y-102122000D01*
X140077727Y-102090005D01*
X140306535Y-101937120D01*
X140501120Y-101742535D01*
X140654005Y-101513727D01*
X140759314Y-101259490D01*
X140813000Y-100989592D01*
X140813000Y-100714408D01*
X140759314Y-100444510D01*
X140654005Y-100190273D01*
X140501120Y-99961465D01*
X140306535Y-99766880D01*
X140077727Y-99613995D01*
X140000485Y-99582000D01*
X140077727Y-99550005D01*
X140306535Y-99397120D01*
X140501120Y-99202535D01*
X140654005Y-98973727D01*
X140759314Y-98719490D01*
X140813000Y-98449592D01*
X140813000Y-98174408D01*
X140759314Y-97904510D01*
X140654005Y-97650273D01*
X140501120Y-97421465D01*
X140306535Y-97226880D01*
X140077727Y-97073995D01*
X140000485Y-97042000D01*
X140077727Y-97010005D01*
X140306535Y-96857120D01*
X140501120Y-96662535D01*
X140654005Y-96433727D01*
X140759314Y-96179490D01*
X140813000Y-95909592D01*
X140813000Y-95634408D01*
X140759314Y-95364510D01*
X140654005Y-95110273D01*
X140501120Y-94881465D01*
X140306535Y-94686880D01*
X140077727Y-94533995D01*
X140000485Y-94502000D01*
X140077727Y-94470005D01*
X140306535Y-94317120D01*
X140501120Y-94122535D01*
X140654005Y-93893727D01*
X140759314Y-93639490D01*
X140813000Y-93369592D01*
X140813000Y-93094408D01*
X140759314Y-92824510D01*
X140654005Y-92570273D01*
X140501120Y-92341465D01*
X140306535Y-92146880D01*
X140077727Y-91993995D01*
X140000485Y-91962000D01*
X140077727Y-91930005D01*
X140306535Y-91777120D01*
X140501120Y-91582535D01*
X140654005Y-91353727D01*
X140759314Y-91099490D01*
X140813000Y-90829592D01*
X140813000Y-90554408D01*
X140759314Y-90284510D01*
X140654005Y-90030273D01*
X140501120Y-89801465D01*
X140306535Y-89606880D01*
X140077727Y-89453995D01*
X140000485Y-89422000D01*
X140077727Y-89390005D01*
X140306535Y-89237120D01*
X140501120Y-89042535D01*
X140654005Y-88813727D01*
X140759314Y-88559490D01*
X140813000Y-88289592D01*
X140813000Y-88014408D01*
X140759314Y-87744510D01*
X140654005Y-87490273D01*
X140501120Y-87261465D01*
X140306535Y-87066880D01*
X140077727Y-86913995D01*
X140000485Y-86882000D01*
X140077727Y-86850005D01*
X140306535Y-86697120D01*
X140501120Y-86502535D01*
X140654005Y-86273727D01*
X140759314Y-86019490D01*
X140813000Y-85749592D01*
X140813000Y-85474408D01*
X155799000Y-85474408D01*
X155799000Y-85749592D01*
X155852686Y-86019490D01*
X155957995Y-86273727D01*
X156110880Y-86502535D01*
X156305465Y-86697120D01*
X156534273Y-86850005D01*
X156611515Y-86882000D01*
X156534273Y-86913995D01*
X156305465Y-87066880D01*
X156110880Y-87261465D01*
X155957995Y-87490273D01*
X155852686Y-87744510D01*
X155799000Y-88014408D01*
X155799000Y-88289592D01*
X155852686Y-88559490D01*
X155957995Y-88813727D01*
X156110880Y-89042535D01*
X156305465Y-89237120D01*
X156534273Y-89390005D01*
X156611515Y-89422000D01*
X156534273Y-89453995D01*
X156305465Y-89606880D01*
X156110880Y-89801465D01*
X155957995Y-90030273D01*
X155852686Y-90284510D01*
X155799000Y-90554408D01*
X155799000Y-90829592D01*
X155852686Y-91099490D01*
X155957995Y-91353727D01*
X156110880Y-91582535D01*
X156305465Y-91777120D01*
X156534273Y-91930005D01*
X156611515Y-91962000D01*
X156534273Y-91993995D01*
X156305465Y-92146880D01*
X156110880Y-92341465D01*
X155957995Y-92570273D01*
X155852686Y-92824510D01*
X155799000Y-93094408D01*
X155799000Y-93369592D01*
X155852686Y-93639490D01*
X155957995Y-93893727D01*
X156110880Y-94122535D01*
X156305465Y-94317120D01*
X156534273Y-94470005D01*
X156611515Y-94502000D01*
X156534273Y-94533995D01*
X156305465Y-94686880D01*
X156110880Y-94881465D01*
X155957995Y-95110273D01*
X155852686Y-95364510D01*
X155799000Y-95634408D01*
X155799000Y-95909592D01*
X155852686Y-96179490D01*
X155957995Y-96433727D01*
X156110880Y-96662535D01*
X156305465Y-96857120D01*
X156534273Y-97010005D01*
X156611515Y-97042000D01*
X156534273Y-97073995D01*
X156305465Y-97226880D01*
X156110880Y-97421465D01*
X155957995Y-97650273D01*
X155852686Y-97904510D01*
X155799000Y-98174408D01*
X155799000Y-98449592D01*
X155852686Y-98719490D01*
X155957995Y-98973727D01*
X156110880Y-99202535D01*
X156305465Y-99397120D01*
X156534273Y-99550005D01*
X156611515Y-99582000D01*
X156534273Y-99613995D01*
X156305465Y-99766880D01*
X156110880Y-99961465D01*
X155957995Y-100190273D01*
X155852686Y-100444510D01*
X155799000Y-100714408D01*
X155799000Y-100989592D01*
X155852686Y-101259490D01*
X155957995Y-101513727D01*
X156110880Y-101742535D01*
X156305465Y-101937120D01*
X156534273Y-102090005D01*
X156611515Y-102122000D01*
X156534273Y-102153995D01*
X156305465Y-102306880D01*
X156110880Y-102501465D01*
X155957995Y-102730273D01*
X155852686Y-102984510D01*
X155799000Y-103254408D01*
X155799000Y-103529592D01*
X155852686Y-103799490D01*
X155957995Y-104053727D01*
X156110880Y-104282535D01*
X156305465Y-104477120D01*
X156534273Y-104630005D01*
X156611515Y-104662000D01*
X156534273Y-104693995D01*
X156305465Y-104846880D01*
X156110880Y-105041465D01*
X155957995Y-105270273D01*
X155852686Y-105524510D01*
X155799000Y-105794408D01*
X155799000Y-106069592D01*
X155852686Y-106339490D01*
X155957995Y-106593727D01*
X156110880Y-106822535D01*
X156305465Y-107017120D01*
X156534273Y-107170005D01*
X156611515Y-107202000D01*
X156534273Y-107233995D01*
X156305465Y-107386880D01*
X156110880Y-107581465D01*
X155957995Y-107810273D01*
X155852686Y-108064510D01*
X155799000Y-108334408D01*
X155799000Y-108609592D01*
X155852686Y-108879490D01*
X155957995Y-109133727D01*
X156110880Y-109362535D01*
X156305465Y-109557120D01*
X156534273Y-109710005D01*
X156611515Y-109742000D01*
X156534273Y-109773995D01*
X156305465Y-109926880D01*
X156110880Y-110121465D01*
X155957995Y-110350273D01*
X155852686Y-110604510D01*
X155799000Y-110874408D01*
X155799000Y-111149592D01*
X155852686Y-111419490D01*
X155957995Y-111673727D01*
X156110880Y-111902535D01*
X156305465Y-112097120D01*
X156534273Y-112250005D01*
X156611515Y-112282000D01*
X156534273Y-112313995D01*
X156305465Y-112466880D01*
X156110880Y-112661465D01*
X155957995Y-112890273D01*
X155852686Y-113144510D01*
X155799000Y-113414408D01*
X155799000Y-113689592D01*
X155852686Y-113959490D01*
X155957995Y-114213727D01*
X156110880Y-114442535D01*
X156305465Y-114637120D01*
X156534273Y-114790005D01*
X156788510Y-114895314D01*
X157058408Y-114949000D01*
X157333592Y-114949000D01*
X157603490Y-114895314D01*
X157857727Y-114790005D01*
X158086535Y-114637120D01*
X158281120Y-114442535D01*
X158434005Y-114213727D01*
X158539314Y-113959490D01*
X158593000Y-113689592D01*
X158593000Y-113414408D01*
X158539314Y-113144510D01*
X158434005Y-112890273D01*
X158281120Y-112661465D01*
X158086535Y-112466880D01*
X157857727Y-112313995D01*
X157780485Y-112282000D01*
X157857727Y-112250005D01*
X158086535Y-112097120D01*
X158281120Y-111902535D01*
X158434005Y-111673727D01*
X158539314Y-111419490D01*
X158593000Y-111149592D01*
X158593000Y-110874408D01*
X158539314Y-110604510D01*
X158434005Y-110350273D01*
X158281120Y-110121465D01*
X158086535Y-109926880D01*
X157857727Y-109773995D01*
X157780485Y-109742000D01*
X157857727Y-109710005D01*
X158086535Y-109557120D01*
X158281120Y-109362535D01*
X158434005Y-109133727D01*
X158539314Y-108879490D01*
X158593000Y-108609592D01*
X158593000Y-108334408D01*
X158539314Y-108064510D01*
X158434005Y-107810273D01*
X158281120Y-107581465D01*
X158086535Y-107386880D01*
X157857727Y-107233995D01*
X157780485Y-107202000D01*
X157857727Y-107170005D01*
X158086535Y-107017120D01*
X158281120Y-106822535D01*
X158434005Y-106593727D01*
X158539314Y-106339490D01*
X158593000Y-106069592D01*
X158593000Y-105794408D01*
X158539314Y-105524510D01*
X158434005Y-105270273D01*
X158281120Y-105041465D01*
X158086535Y-104846880D01*
X157857727Y-104693995D01*
X157780485Y-104662000D01*
X157857727Y-104630005D01*
X158086535Y-104477120D01*
X158281120Y-104282535D01*
X158434005Y-104053727D01*
X158539314Y-103799490D01*
X158593000Y-103529592D01*
X158593000Y-103254408D01*
X158539314Y-102984510D01*
X158434005Y-102730273D01*
X158281120Y-102501465D01*
X158086535Y-102306880D01*
X157857727Y-102153995D01*
X157780485Y-102122000D01*
X157857727Y-102090005D01*
X158086535Y-101937120D01*
X158281120Y-101742535D01*
X158434005Y-101513727D01*
X158539314Y-101259490D01*
X158593000Y-100989592D01*
X158593000Y-100714408D01*
X158539314Y-100444510D01*
X158434005Y-100190273D01*
X158281120Y-99961465D01*
X158086535Y-99766880D01*
X157857727Y-99613995D01*
X157780485Y-99582000D01*
X157857727Y-99550005D01*
X158086535Y-99397120D01*
X158281120Y-99202535D01*
X158434005Y-98973727D01*
X158539314Y-98719490D01*
X158593000Y-98449592D01*
X158593000Y-98174408D01*
X158539314Y-97904510D01*
X158434005Y-97650273D01*
X158281120Y-97421465D01*
X158086535Y-97226880D01*
X157857727Y-97073995D01*
X157780485Y-97042000D01*
X157857727Y-97010005D01*
X158086535Y-96857120D01*
X158281120Y-96662535D01*
X158434005Y-96433727D01*
X158539314Y-96179490D01*
X158593000Y-95909592D01*
X158593000Y-95634408D01*
X158539314Y-95364510D01*
X158434005Y-95110273D01*
X158281120Y-94881465D01*
X158086535Y-94686880D01*
X157857727Y-94533995D01*
X157780485Y-94502000D01*
X157857727Y-94470005D01*
X158086535Y-94317120D01*
X158281120Y-94122535D01*
X158434005Y-93893727D01*
X158539314Y-93639490D01*
X158593000Y-93369592D01*
X158593000Y-93094408D01*
X158539314Y-92824510D01*
X158434005Y-92570273D01*
X158281120Y-92341465D01*
X158086535Y-92146880D01*
X157857727Y-91993995D01*
X157780485Y-91962000D01*
X157857727Y-91930005D01*
X158086535Y-91777120D01*
X158281120Y-91582535D01*
X158434005Y-91353727D01*
X158539314Y-91099490D01*
X158593000Y-90829592D01*
X158593000Y-90554408D01*
X158539314Y-90284510D01*
X158434005Y-90030273D01*
X158281120Y-89801465D01*
X158086535Y-89606880D01*
X157857727Y-89453995D01*
X157780485Y-89422000D01*
X157857727Y-89390005D01*
X158086535Y-89237120D01*
X158281120Y-89042535D01*
X158434005Y-88813727D01*
X158539314Y-88559490D01*
X158593000Y-88289592D01*
X158593000Y-88014408D01*
X158539314Y-87744510D01*
X158434005Y-87490273D01*
X158281120Y-87261465D01*
X158086535Y-87066880D01*
X157857727Y-86913995D01*
X157780485Y-86882000D01*
X157857727Y-86850005D01*
X158086535Y-86697120D01*
X158281120Y-86502535D01*
X158434005Y-86273727D01*
X158539314Y-86019490D01*
X158593000Y-85749592D01*
X158593000Y-85474408D01*
X159609000Y-85474408D01*
X159609000Y-85749592D01*
X159662686Y-86019490D01*
X159767995Y-86273727D01*
X159920880Y-86502535D01*
X160115465Y-86697120D01*
X160344273Y-86850005D01*
X160421515Y-86882000D01*
X160344273Y-86913995D01*
X160115465Y-87066880D01*
X159920880Y-87261465D01*
X159767995Y-87490273D01*
X159662686Y-87744510D01*
X159609000Y-88014408D01*
X159609000Y-88289592D01*
X159662686Y-88559490D01*
X159767995Y-88813727D01*
X159920880Y-89042535D01*
X160115465Y-89237120D01*
X160344273Y-89390005D01*
X160421515Y-89422000D01*
X160344273Y-89453995D01*
X160115465Y-89606880D01*
X159920880Y-89801465D01*
X159767995Y-90030273D01*
X159662686Y-90284510D01*
X159609000Y-90554408D01*
X159609000Y-90829592D01*
X159662686Y-91099490D01*
X159767995Y-91353727D01*
X159920880Y-91582535D01*
X160115465Y-91777120D01*
X160344273Y-91930005D01*
X160421515Y-91962000D01*
X160344273Y-91993995D01*
X160115465Y-92146880D01*
X159920880Y-92341465D01*
X159767995Y-92570273D01*
X159662686Y-92824510D01*
X159609000Y-93094408D01*
X159609000Y-93369592D01*
X159662686Y-93639490D01*
X159767995Y-93893727D01*
X159920880Y-94122535D01*
X160115465Y-94317120D01*
X160344273Y-94470005D01*
X160421515Y-94502000D01*
X160344273Y-94533995D01*
X160115465Y-94686880D01*
X159920880Y-94881465D01*
X159767995Y-95110273D01*
X159662686Y-95364510D01*
X159609000Y-95634408D01*
X159609000Y-95909592D01*
X159662686Y-96179490D01*
X159767995Y-96433727D01*
X159920880Y-96662535D01*
X160115465Y-96857120D01*
X160344273Y-97010005D01*
X160421515Y-97042000D01*
X160344273Y-97073995D01*
X160115465Y-97226880D01*
X159920880Y-97421465D01*
X159767995Y-97650273D01*
X159662686Y-97904510D01*
X159609000Y-98174408D01*
X159609000Y-98449592D01*
X159662686Y-98719490D01*
X159767995Y-98973727D01*
X159920880Y-99202535D01*
X160115465Y-99397120D01*
X160344273Y-99550005D01*
X160421515Y-99582000D01*
X160344273Y-99613995D01*
X160115465Y-99766880D01*
X159920880Y-99961465D01*
X159767995Y-100190273D01*
X159662686Y-100444510D01*
X159609000Y-100714408D01*
X159609000Y-100989592D01*
X159662686Y-101259490D01*
X159767995Y-101513727D01*
X159920880Y-101742535D01*
X160115465Y-101937120D01*
X160344273Y-102090005D01*
X160421515Y-102122000D01*
X160344273Y-102153995D01*
X160115465Y-102306880D01*
X159920880Y-102501465D01*
X159767995Y-102730273D01*
X159662686Y-102984510D01*
X159609000Y-103254408D01*
X159609000Y-103529592D01*
X159662686Y-103799490D01*
X159767995Y-104053727D01*
X159920880Y-104282535D01*
X160115465Y-104477120D01*
X160344273Y-104630005D01*
X160421515Y-104662000D01*
X160344273Y-104693995D01*
X160115465Y-104846880D01*
X159920880Y-105041465D01*
X159767995Y-105270273D01*
X159662686Y-105524510D01*
X159609000Y-105794408D01*
X159609000Y-106069592D01*
X159662686Y-106339490D01*
X159767995Y-106593727D01*
X159920880Y-106822535D01*
X160115465Y-107017120D01*
X160344273Y-107170005D01*
X160421515Y-107202000D01*
X160344273Y-107233995D01*
X160115465Y-107386880D01*
X159920880Y-107581465D01*
X159767995Y-107810273D01*
X159662686Y-108064510D01*
X159609000Y-108334408D01*
X159609000Y-108609592D01*
X159662686Y-108879490D01*
X159767995Y-109133727D01*
X159920880Y-109362535D01*
X160115465Y-109557120D01*
X160344273Y-109710005D01*
X160421515Y-109742000D01*
X160344273Y-109773995D01*
X160115465Y-109926880D01*
X159920880Y-110121465D01*
X159767995Y-110350273D01*
X159662686Y-110604510D01*
X159609000Y-110874408D01*
X159609000Y-111149592D01*
X159662686Y-111419490D01*
X159767995Y-111673727D01*
X159920880Y-111902535D01*
X160115465Y-112097120D01*
X160344273Y-112250005D01*
X160421515Y-112282000D01*
X160344273Y-112313995D01*
X160115465Y-112466880D01*
X159920880Y-112661465D01*
X159767995Y-112890273D01*
X159662686Y-113144510D01*
X159609000Y-113414408D01*
X159609000Y-113689592D01*
X159662686Y-113959490D01*
X159767995Y-114213727D01*
X159920880Y-114442535D01*
X160115465Y-114637120D01*
X160344273Y-114790005D01*
X160421515Y-114822000D01*
X160344273Y-114853995D01*
X160115465Y-115006880D01*
X159920880Y-115201465D01*
X159767995Y-115430273D01*
X159662686Y-115684510D01*
X159609000Y-115954408D01*
X159609000Y-116229592D01*
X159662686Y-116499490D01*
X159767995Y-116753727D01*
X159920880Y-116982535D01*
X160115465Y-117177120D01*
X160344273Y-117330005D01*
X160598510Y-117435314D01*
X160868408Y-117489000D01*
X161143592Y-117489000D01*
X161413490Y-117435314D01*
X161667727Y-117330005D01*
X161896535Y-117177120D01*
X162091120Y-116982535D01*
X162244005Y-116753727D01*
X162349314Y-116499490D01*
X162403000Y-116229592D01*
X162403000Y-115954408D01*
X162349314Y-115684510D01*
X162244005Y-115430273D01*
X162091120Y-115201465D01*
X161896535Y-115006880D01*
X161667727Y-114853995D01*
X161590485Y-114822000D01*
X161667727Y-114790005D01*
X161896535Y-114637120D01*
X162091120Y-114442535D01*
X162244005Y-114213727D01*
X162349314Y-113959490D01*
X162403000Y-113689592D01*
X162403000Y-113414408D01*
X162349314Y-113144510D01*
X162244005Y-112890273D01*
X162091120Y-112661465D01*
X161896535Y-112466880D01*
X161667727Y-112313995D01*
X161590485Y-112282000D01*
X161667727Y-112250005D01*
X161896535Y-112097120D01*
X162091120Y-111902535D01*
X162244005Y-111673727D01*
X162349314Y-111419490D01*
X162403000Y-111149592D01*
X162403000Y-110874408D01*
X162349314Y-110604510D01*
X162244005Y-110350273D01*
X162091120Y-110121465D01*
X161896535Y-109926880D01*
X161667727Y-109773995D01*
X161590485Y-109742000D01*
X161667727Y-109710005D01*
X161896535Y-109557120D01*
X162091120Y-109362535D01*
X162244005Y-109133727D01*
X162349314Y-108879490D01*
X162403000Y-108609592D01*
X162403000Y-108334408D01*
X162349314Y-108064510D01*
X162244005Y-107810273D01*
X162091120Y-107581465D01*
X161896535Y-107386880D01*
X161667727Y-107233995D01*
X161590485Y-107202000D01*
X161667727Y-107170005D01*
X161896535Y-107017120D01*
X162091120Y-106822535D01*
X162244005Y-106593727D01*
X162349314Y-106339490D01*
X162403000Y-106069592D01*
X162403000Y-105794408D01*
X162349314Y-105524510D01*
X162244005Y-105270273D01*
X162091120Y-105041465D01*
X161896535Y-104846880D01*
X161667727Y-104693995D01*
X161590485Y-104662000D01*
X161667727Y-104630005D01*
X161896535Y-104477120D01*
X162091120Y-104282535D01*
X162244005Y-104053727D01*
X162349314Y-103799490D01*
X162403000Y-103529592D01*
X162403000Y-103254408D01*
X162349314Y-102984510D01*
X162244005Y-102730273D01*
X162091120Y-102501465D01*
X161896535Y-102306880D01*
X161667727Y-102153995D01*
X161590485Y-102122000D01*
X161667727Y-102090005D01*
X161896535Y-101937120D01*
X162091120Y-101742535D01*
X162244005Y-101513727D01*
X162349314Y-101259490D01*
X162403000Y-100989592D01*
X162403000Y-100714408D01*
X162349314Y-100444510D01*
X162244005Y-100190273D01*
X162091120Y-99961465D01*
X161896535Y-99766880D01*
X161667727Y-99613995D01*
X161590485Y-99582000D01*
X161667727Y-99550005D01*
X161896535Y-99397120D01*
X162091120Y-99202535D01*
X162244005Y-98973727D01*
X162349314Y-98719490D01*
X162403000Y-98449592D01*
X162403000Y-98174408D01*
X162349314Y-97904510D01*
X162244005Y-97650273D01*
X162091120Y-97421465D01*
X161896535Y-97226880D01*
X161667727Y-97073995D01*
X161590485Y-97042000D01*
X161667727Y-97010005D01*
X161896535Y-96857120D01*
X162091120Y-96662535D01*
X162244005Y-96433727D01*
X162349314Y-96179490D01*
X162357883Y-96136408D01*
X173723000Y-96136408D01*
X173723000Y-96411592D01*
X173776686Y-96681490D01*
X173881995Y-96935727D01*
X174034880Y-97164535D01*
X174229465Y-97359120D01*
X174458273Y-97512005D01*
X174712510Y-97617314D01*
X174982408Y-97671000D01*
X175257592Y-97671000D01*
X175527490Y-97617314D01*
X175781727Y-97512005D01*
X176010535Y-97359120D01*
X176205120Y-97164535D01*
X176358005Y-96935727D01*
X176390000Y-96858485D01*
X176421995Y-96935727D01*
X176574880Y-97164535D01*
X176769465Y-97359120D01*
X176998273Y-97512005D01*
X177252510Y-97617314D01*
X177522408Y-97671000D01*
X177797592Y-97671000D01*
X178067490Y-97617314D01*
X178321727Y-97512005D01*
X178550535Y-97359120D01*
X178745120Y-97164535D01*
X178898005Y-96935727D01*
X178930000Y-96858485D01*
X178961995Y-96935727D01*
X179114880Y-97164535D01*
X179309465Y-97359120D01*
X179538273Y-97512005D01*
X179792510Y-97617314D01*
X180062408Y-97671000D01*
X180337592Y-97671000D01*
X180607490Y-97617314D01*
X180861727Y-97512005D01*
X181090535Y-97359120D01*
X181285120Y-97164535D01*
X181438005Y-96935727D01*
X181470000Y-96858485D01*
X181501995Y-96935727D01*
X181654880Y-97164535D01*
X181849465Y-97359120D01*
X182078273Y-97512005D01*
X182332510Y-97617314D01*
X182602408Y-97671000D01*
X182877592Y-97671000D01*
X183147490Y-97617314D01*
X183401727Y-97512005D01*
X183630535Y-97359120D01*
X183825120Y-97164535D01*
X183978005Y-96935727D01*
X184010000Y-96858485D01*
X184041995Y-96935727D01*
X184194880Y-97164535D01*
X184389465Y-97359120D01*
X184618273Y-97512005D01*
X184872510Y-97617314D01*
X185142408Y-97671000D01*
X185417592Y-97671000D01*
X185687490Y-97617314D01*
X185941727Y-97512005D01*
X186170535Y-97359120D01*
X186365120Y-97164535D01*
X186423920Y-97076535D01*
X186432188Y-97160482D01*
X186468498Y-97280180D01*
X186527463Y-97390494D01*
X186606815Y-97487185D01*
X186703506Y-97566537D01*
X186813820Y-97625502D01*
X186933518Y-97661812D01*
X187058000Y-97674072D01*
X188582000Y-97674072D01*
X188706482Y-97661812D01*
X188826180Y-97625502D01*
X188936494Y-97566537D01*
X189033185Y-97487185D01*
X189112537Y-97390494D01*
X189171502Y-97280180D01*
X189207812Y-97160482D01*
X189220072Y-97036000D01*
X189220072Y-95512000D01*
X189207812Y-95387518D01*
X189171502Y-95267820D01*
X189112537Y-95157506D01*
X189033185Y-95060815D01*
X188936494Y-94981463D01*
X188826180Y-94922498D01*
X188706482Y-94886188D01*
X188582000Y-94873928D01*
X187058000Y-94873928D01*
X186933518Y-94886188D01*
X186813820Y-94922498D01*
X186703506Y-94981463D01*
X186606815Y-95060815D01*
X186527463Y-95157506D01*
X186468498Y-95267820D01*
X186432188Y-95387518D01*
X186423920Y-95471465D01*
X186365120Y-95383465D01*
X186170535Y-95188880D01*
X185941727Y-95035995D01*
X185687490Y-94930686D01*
X185417592Y-94877000D01*
X185142408Y-94877000D01*
X184872510Y-94930686D01*
X184618273Y-95035995D01*
X184389465Y-95188880D01*
X184194880Y-95383465D01*
X184041995Y-95612273D01*
X184010000Y-95689515D01*
X183978005Y-95612273D01*
X183825120Y-95383465D01*
X183630535Y-95188880D01*
X183401727Y-95035995D01*
X183147490Y-94930686D01*
X182877592Y-94877000D01*
X182602408Y-94877000D01*
X182332510Y-94930686D01*
X182078273Y-95035995D01*
X181849465Y-95188880D01*
X181654880Y-95383465D01*
X181501995Y-95612273D01*
X181470000Y-95689515D01*
X181438005Y-95612273D01*
X181285120Y-95383465D01*
X181090535Y-95188880D01*
X180861727Y-95035995D01*
X180607490Y-94930686D01*
X180337592Y-94877000D01*
X180062408Y-94877000D01*
X179792510Y-94930686D01*
X179538273Y-95035995D01*
X179309465Y-95188880D01*
X179114880Y-95383465D01*
X178961995Y-95612273D01*
X178930000Y-95689515D01*
X178898005Y-95612273D01*
X178745120Y-95383465D01*
X178550535Y-95188880D01*
X178321727Y-95035995D01*
X178067490Y-94930686D01*
X177797592Y-94877000D01*
X177522408Y-94877000D01*
X177252510Y-94930686D01*
X176998273Y-95035995D01*
X176769465Y-95188880D01*
X176574880Y-95383465D01*
X176421995Y-95612273D01*
X176390000Y-95689515D01*
X176358005Y-95612273D01*
X176205120Y-95383465D01*
X176010535Y-95188880D01*
X175781727Y-95035995D01*
X175527490Y-94930686D01*
X175257592Y-94877000D01*
X174982408Y-94877000D01*
X174712510Y-94930686D01*
X174458273Y-95035995D01*
X174229465Y-95188880D01*
X174034880Y-95383465D01*
X173881995Y-95612273D01*
X173776686Y-95866510D01*
X173723000Y-96136408D01*
X162357883Y-96136408D01*
X162403000Y-95909592D01*
X162403000Y-95634408D01*
X162349314Y-95364510D01*
X162244005Y-95110273D01*
X162091120Y-94881465D01*
X161896535Y-94686880D01*
X161667727Y-94533995D01*
X161590485Y-94502000D01*
X161667727Y-94470005D01*
X161896535Y-94317120D01*
X162091120Y-94122535D01*
X162244005Y-93893727D01*
X162349314Y-93639490D01*
X162403000Y-93369592D01*
X162403000Y-93094408D01*
X162349314Y-92824510D01*
X162244005Y-92570273D01*
X162091120Y-92341465D01*
X161896535Y-92146880D01*
X161667727Y-91993995D01*
X161590485Y-91962000D01*
X161667727Y-91930005D01*
X161896535Y-91777120D01*
X162091120Y-91582535D01*
X162244005Y-91353727D01*
X162349314Y-91099490D01*
X162403000Y-90829592D01*
X162403000Y-90554408D01*
X162349314Y-90284510D01*
X162244005Y-90030273D01*
X162091120Y-89801465D01*
X161896535Y-89606880D01*
X161667727Y-89453995D01*
X161590485Y-89422000D01*
X161667727Y-89390005D01*
X161896535Y-89237120D01*
X162091120Y-89042535D01*
X162244005Y-88813727D01*
X162349314Y-88559490D01*
X162403000Y-88289592D01*
X162403000Y-88040212D01*
X171936000Y-88040212D01*
X171936000Y-88263788D01*
X171979617Y-88483067D01*
X172065176Y-88689624D01*
X172130241Y-88787000D01*
X172065176Y-88884376D01*
X171979617Y-89090933D01*
X171936000Y-89310212D01*
X171936000Y-89533788D01*
X171979617Y-89753067D01*
X172065176Y-89959624D01*
X172189388Y-90145520D01*
X172347480Y-90303612D01*
X172533376Y-90427824D01*
X172739933Y-90513383D01*
X172959212Y-90557000D01*
X173182788Y-90557000D01*
X173402067Y-90513383D01*
X173608624Y-90427824D01*
X173706000Y-90362759D01*
X173803376Y-90427824D01*
X174009933Y-90513383D01*
X174229212Y-90557000D01*
X174452788Y-90557000D01*
X174672067Y-90513383D01*
X174748505Y-90481721D01*
X183001000Y-90481721D01*
X183001000Y-90902279D01*
X183083047Y-91314756D01*
X183243988Y-91703302D01*
X183477637Y-92052983D01*
X183775017Y-92350363D01*
X184124698Y-92584012D01*
X184513244Y-92744953D01*
X184925721Y-92827000D01*
X185346279Y-92827000D01*
X185758756Y-92744953D01*
X186147302Y-92584012D01*
X186496983Y-92350363D01*
X186794363Y-92052983D01*
X187028012Y-91703302D01*
X187188953Y-91314756D01*
X187271000Y-90902279D01*
X187271000Y-90481721D01*
X187188953Y-90069244D01*
X187028012Y-89680698D01*
X186794363Y-89331017D01*
X186496983Y-89033637D01*
X186147302Y-88799988D01*
X185758756Y-88639047D01*
X185346279Y-88557000D01*
X184925721Y-88557000D01*
X184513244Y-88639047D01*
X184124698Y-88799988D01*
X183775017Y-89033637D01*
X183477637Y-89331017D01*
X183243988Y-89680698D01*
X183083047Y-90069244D01*
X183001000Y-90481721D01*
X174748505Y-90481721D01*
X174878624Y-90427824D01*
X175064520Y-90303612D01*
X175222612Y-90145520D01*
X175346824Y-89959624D01*
X175432383Y-89753067D01*
X175476000Y-89533788D01*
X175476000Y-89310212D01*
X175447177Y-89165309D01*
X175526061Y-89181000D01*
X175729939Y-89181000D01*
X175929898Y-89141226D01*
X176118256Y-89063205D01*
X176287774Y-88949937D01*
X176431937Y-88805774D01*
X176545205Y-88636256D01*
X176623226Y-88447898D01*
X176663000Y-88247939D01*
X176663000Y-88044061D01*
X176623226Y-87844102D01*
X176545205Y-87655744D01*
X176431937Y-87486226D01*
X176287774Y-87342063D01*
X176118256Y-87228795D01*
X175929898Y-87150774D01*
X175729939Y-87111000D01*
X175526061Y-87111000D01*
X175449662Y-87126196D01*
X175476000Y-86993788D01*
X175476000Y-86770212D01*
X175432383Y-86550933D01*
X175346824Y-86344376D01*
X175278647Y-86242342D01*
X175328123Y-86172206D01*
X175418446Y-85968864D01*
X175435119Y-85913874D01*
X175308954Y-85739000D01*
X174468000Y-85739000D01*
X174468000Y-85750026D01*
X174452788Y-85747000D01*
X174229212Y-85747000D01*
X174214000Y-85750026D01*
X174214000Y-85739000D01*
X173198000Y-85739000D01*
X173198000Y-86755000D01*
X173209026Y-86755000D01*
X173206000Y-86770212D01*
X173206000Y-86993788D01*
X173209026Y-87009000D01*
X173198000Y-87009000D01*
X173198000Y-87020026D01*
X173182788Y-87017000D01*
X172959212Y-87017000D01*
X172944000Y-87020026D01*
X172944000Y-87009000D01*
X172103046Y-87009000D01*
X171976881Y-87183874D01*
X171993554Y-87238864D01*
X172083877Y-87442206D01*
X172133353Y-87512342D01*
X172065176Y-87614376D01*
X171979617Y-87820933D01*
X171936000Y-88040212D01*
X162403000Y-88040212D01*
X162403000Y-88014408D01*
X162349314Y-87744510D01*
X162244005Y-87490273D01*
X162091120Y-87261465D01*
X161896535Y-87066880D01*
X161667727Y-86913995D01*
X161590485Y-86882000D01*
X161667727Y-86850005D01*
X161896535Y-86697120D01*
X162091120Y-86502535D01*
X162244005Y-86273727D01*
X162349314Y-86019490D01*
X162370322Y-85913874D01*
X171976881Y-85913874D01*
X171993554Y-85968864D01*
X172083877Y-86172206D01*
X172136639Y-86247000D01*
X172083877Y-86321794D01*
X171993554Y-86525136D01*
X171976881Y-86580126D01*
X172103046Y-86755000D01*
X172944000Y-86755000D01*
X172944000Y-85739000D01*
X172103046Y-85739000D01*
X171976881Y-85913874D01*
X162370322Y-85913874D01*
X162403000Y-85749592D01*
X162403000Y-85474408D01*
X162349314Y-85204510D01*
X162244005Y-84950273D01*
X162091120Y-84721465D01*
X161896535Y-84526880D01*
X161667727Y-84373995D01*
X161596057Y-84344308D01*
X161609023Y-84339636D01*
X161724980Y-84277656D01*
X161791960Y-84037565D01*
X161006000Y-83251605D01*
X160220040Y-84037565D01*
X160287020Y-84277656D01*
X160422760Y-84341485D01*
X160344273Y-84373995D01*
X160115465Y-84526880D01*
X159920880Y-84721465D01*
X159767995Y-84950273D01*
X159662686Y-85204510D01*
X159609000Y-85474408D01*
X158593000Y-85474408D01*
X158539314Y-85204510D01*
X158434005Y-84950273D01*
X158281120Y-84721465D01*
X158086535Y-84526880D01*
X157857727Y-84373995D01*
X157786057Y-84344308D01*
X157799023Y-84339636D01*
X157914980Y-84277656D01*
X157981960Y-84037565D01*
X157196000Y-83251605D01*
X156410040Y-84037565D01*
X156477020Y-84277656D01*
X156612760Y-84341485D01*
X156534273Y-84373995D01*
X156305465Y-84526880D01*
X156110880Y-84721465D01*
X155957995Y-84950273D01*
X155852686Y-85204510D01*
X155799000Y-85474408D01*
X140813000Y-85474408D01*
X140759314Y-85204510D01*
X140654005Y-84950273D01*
X140501120Y-84721465D01*
X140306535Y-84526880D01*
X140077727Y-84373995D01*
X140000485Y-84342000D01*
X140077727Y-84310005D01*
X140306535Y-84157120D01*
X140501120Y-83962535D01*
X140654005Y-83733727D01*
X140759314Y-83479490D01*
X140813000Y-83209592D01*
X140813000Y-83144017D01*
X155794090Y-83144017D01*
X155835078Y-83416133D01*
X155928364Y-83675023D01*
X155990344Y-83790980D01*
X156230435Y-83857960D01*
X157016395Y-83072000D01*
X157375605Y-83072000D01*
X158161565Y-83857960D01*
X158401656Y-83790980D01*
X158518756Y-83541952D01*
X158585023Y-83274865D01*
X158591157Y-83144017D01*
X159604090Y-83144017D01*
X159645078Y-83416133D01*
X159738364Y-83675023D01*
X159800344Y-83790980D01*
X160040435Y-83857960D01*
X160826395Y-83072000D01*
X161185605Y-83072000D01*
X161971565Y-83857960D01*
X162028773Y-83842000D01*
X171932928Y-83842000D01*
X171932928Y-84842000D01*
X171945188Y-84966482D01*
X171981498Y-85086180D01*
X172029070Y-85175180D01*
X171993554Y-85255136D01*
X171976881Y-85310126D01*
X172103046Y-85485000D01*
X172944000Y-85485000D01*
X172944000Y-85480072D01*
X173198000Y-85480072D01*
X173198000Y-85485000D01*
X174214000Y-85485000D01*
X174214000Y-84469000D01*
X174468000Y-84469000D01*
X174468000Y-85485000D01*
X175308954Y-85485000D01*
X175369036Y-85401721D01*
X183001000Y-85401721D01*
X183001000Y-85822279D01*
X183083047Y-86234756D01*
X183243988Y-86623302D01*
X183477637Y-86972983D01*
X183775017Y-87270363D01*
X184124698Y-87504012D01*
X184513244Y-87664953D01*
X184925721Y-87747000D01*
X185346279Y-87747000D01*
X185758756Y-87664953D01*
X186147302Y-87504012D01*
X186496983Y-87270363D01*
X186794363Y-86972983D01*
X187028012Y-86623302D01*
X187188953Y-86234756D01*
X187271000Y-85822279D01*
X187271000Y-85401721D01*
X187188953Y-84989244D01*
X187028012Y-84600698D01*
X186794363Y-84251017D01*
X186496983Y-83953637D01*
X186147302Y-83719988D01*
X185758756Y-83559047D01*
X185346279Y-83477000D01*
X184925721Y-83477000D01*
X184513244Y-83559047D01*
X184124698Y-83719988D01*
X183775017Y-83953637D01*
X183477637Y-84251017D01*
X183243988Y-84600698D01*
X183083047Y-84989244D01*
X183001000Y-85401721D01*
X175369036Y-85401721D01*
X175435119Y-85310126D01*
X175418446Y-85255136D01*
X175328123Y-85051794D01*
X175275361Y-84977000D01*
X175328123Y-84902206D01*
X175418446Y-84698864D01*
X175435119Y-84643874D01*
X175308954Y-84469000D01*
X174468000Y-84469000D01*
X174214000Y-84469000D01*
X174209072Y-84469000D01*
X174209072Y-84215000D01*
X174214000Y-84215000D01*
X174214000Y-83372871D01*
X174468000Y-83372871D01*
X174468000Y-84215000D01*
X175308954Y-84215000D01*
X175435119Y-84040126D01*
X175418446Y-83985136D01*
X175328123Y-83781794D01*
X175199865Y-83599980D01*
X175038601Y-83446682D01*
X174850529Y-83327790D01*
X174642876Y-83247874D01*
X174468000Y-83372871D01*
X174214000Y-83372871D01*
X174039124Y-83247874D01*
X173903894Y-83299918D01*
X173815180Y-83252498D01*
X173695482Y-83216188D01*
X173571000Y-83203928D01*
X172571000Y-83203928D01*
X172446518Y-83216188D01*
X172326820Y-83252498D01*
X172216506Y-83311463D01*
X172119815Y-83390815D01*
X172040463Y-83487506D01*
X171981498Y-83597820D01*
X171945188Y-83717518D01*
X171932928Y-83842000D01*
X162028773Y-83842000D01*
X162211656Y-83790980D01*
X162328756Y-83541952D01*
X162395023Y-83274865D01*
X162407910Y-82999983D01*
X162366922Y-82727867D01*
X162273636Y-82468977D01*
X162211656Y-82353020D01*
X161971565Y-82286040D01*
X161185605Y-83072000D01*
X160826395Y-83072000D01*
X160040435Y-82286040D01*
X159800344Y-82353020D01*
X159683244Y-82602048D01*
X159616977Y-82869135D01*
X159604090Y-83144017D01*
X158591157Y-83144017D01*
X158597910Y-82999983D01*
X158556922Y-82727867D01*
X158463636Y-82468977D01*
X158401656Y-82353020D01*
X158161565Y-82286040D01*
X157375605Y-83072000D01*
X157016395Y-83072000D01*
X156230435Y-82286040D01*
X155990344Y-82353020D01*
X155873244Y-82602048D01*
X155806977Y-82869135D01*
X155794090Y-83144017D01*
X140813000Y-83144017D01*
X140813000Y-82934408D01*
X140759314Y-82664510D01*
X140654005Y-82410273D01*
X140501120Y-82181465D01*
X140306535Y-81986880D01*
X140218535Y-81928080D01*
X140302482Y-81919812D01*
X140422180Y-81883502D01*
X140532494Y-81824537D01*
X140629185Y-81745185D01*
X140671141Y-81694061D01*
X143605000Y-81694061D01*
X143605000Y-81897939D01*
X143644774Y-82097898D01*
X143722795Y-82286256D01*
X143836063Y-82455774D01*
X143980226Y-82599937D01*
X144149744Y-82713205D01*
X144338102Y-82791226D01*
X144538061Y-82831000D01*
X144741939Y-82831000D01*
X144941898Y-82791226D01*
X145130256Y-82713205D01*
X145299774Y-82599937D01*
X145443937Y-82455774D01*
X145557205Y-82286256D01*
X145635226Y-82097898D01*
X145675000Y-81897939D01*
X145675000Y-81694061D01*
X145635226Y-81494102D01*
X145557205Y-81305744D01*
X145443937Y-81136226D01*
X145299774Y-80992063D01*
X145130256Y-80878795D01*
X144941898Y-80800774D01*
X144741939Y-80761000D01*
X144538061Y-80761000D01*
X144338102Y-80800774D01*
X144149744Y-80878795D01*
X143980226Y-80992063D01*
X143836063Y-81136226D01*
X143722795Y-81305744D01*
X143644774Y-81494102D01*
X143605000Y-81694061D01*
X140671141Y-81694061D01*
X140708537Y-81648494D01*
X140767502Y-81538180D01*
X140803812Y-81418482D01*
X140816072Y-81294000D01*
X140816072Y-80394408D01*
X155799000Y-80394408D01*
X155799000Y-80669592D01*
X155852686Y-80939490D01*
X155957995Y-81193727D01*
X156110880Y-81422535D01*
X156305465Y-81617120D01*
X156534273Y-81770005D01*
X156605943Y-81799692D01*
X156592977Y-81804364D01*
X156477020Y-81866344D01*
X156410040Y-82106435D01*
X157196000Y-82892395D01*
X157981960Y-82106435D01*
X157914980Y-81866344D01*
X157779240Y-81802515D01*
X157857727Y-81770005D01*
X158086535Y-81617120D01*
X158281120Y-81422535D01*
X158434005Y-81193727D01*
X158539314Y-80939490D01*
X158593000Y-80669592D01*
X158593000Y-80394408D01*
X159609000Y-80394408D01*
X159609000Y-80669592D01*
X159662686Y-80939490D01*
X159767995Y-81193727D01*
X159920880Y-81422535D01*
X160115465Y-81617120D01*
X160344273Y-81770005D01*
X160415943Y-81799692D01*
X160402977Y-81804364D01*
X160287020Y-81866344D01*
X160220040Y-82106435D01*
X161006000Y-82892395D01*
X161791960Y-82106435D01*
X161724980Y-81866344D01*
X161589240Y-81802515D01*
X161667727Y-81770005D01*
X161896535Y-81617120D01*
X162091120Y-81422535D01*
X162244005Y-81193727D01*
X162349314Y-80939490D01*
X162403000Y-80669592D01*
X162403000Y-80394408D01*
X162349314Y-80124510D01*
X162244005Y-79870273D01*
X162091120Y-79641465D01*
X161896535Y-79446880D01*
X161667727Y-79293995D01*
X161413490Y-79188686D01*
X161143592Y-79135000D01*
X160868408Y-79135000D01*
X160598510Y-79188686D01*
X160344273Y-79293995D01*
X160115465Y-79446880D01*
X159920880Y-79641465D01*
X159767995Y-79870273D01*
X159662686Y-80124510D01*
X159609000Y-80394408D01*
X158593000Y-80394408D01*
X158539314Y-80124510D01*
X158434005Y-79870273D01*
X158281120Y-79641465D01*
X158086535Y-79446880D01*
X157857727Y-79293995D01*
X157603490Y-79188686D01*
X157333592Y-79135000D01*
X157058408Y-79135000D01*
X156788510Y-79188686D01*
X156534273Y-79293995D01*
X156305465Y-79446880D01*
X156110880Y-79641465D01*
X155957995Y-79870273D01*
X155852686Y-80124510D01*
X155799000Y-80394408D01*
X140816072Y-80394408D01*
X140816072Y-79770000D01*
X140803812Y-79645518D01*
X140767502Y-79525820D01*
X140708537Y-79415506D01*
X140629185Y-79318815D01*
X140532494Y-79239463D01*
X140422180Y-79180498D01*
X140302482Y-79144188D01*
X140178000Y-79131928D01*
X138654000Y-79131928D01*
X138529518Y-79144188D01*
X138409820Y-79180498D01*
X138299506Y-79239463D01*
X138202815Y-79318815D01*
X138123463Y-79415506D01*
X138064498Y-79525820D01*
X138028188Y-79645518D01*
X138015928Y-79770000D01*
X136777005Y-79770000D01*
X136691120Y-79641465D01*
X136496535Y-79446880D01*
X136267727Y-79293995D01*
X136013490Y-79188686D01*
X135743592Y-79135000D01*
X135468408Y-79135000D01*
X135198510Y-79188686D01*
X134944273Y-79293995D01*
X134715465Y-79446880D01*
X134520880Y-79641465D01*
X134367995Y-79870273D01*
X134262686Y-80124510D01*
X134209000Y-80394408D01*
X123799786Y-80394408D01*
X123861783Y-80301624D01*
X123947342Y-80095067D01*
X123990959Y-79875788D01*
X123990959Y-79652212D01*
X123947342Y-79432933D01*
X123861783Y-79226376D01*
X123784165Y-79110212D01*
X129181000Y-79110212D01*
X129181000Y-79333788D01*
X129224617Y-79553067D01*
X129310176Y-79759624D01*
X129434388Y-79945520D01*
X129592480Y-80103612D01*
X129778376Y-80227824D01*
X129984933Y-80313383D01*
X130204212Y-80357000D01*
X130427788Y-80357000D01*
X130647067Y-80313383D01*
X130853624Y-80227824D01*
X131039520Y-80103612D01*
X131197612Y-79945520D01*
X131321824Y-79759624D01*
X131407383Y-79553067D01*
X131451000Y-79333788D01*
X131451000Y-79110212D01*
X131407383Y-78890933D01*
X131321824Y-78684376D01*
X131197612Y-78498480D01*
X131039520Y-78340388D01*
X130853624Y-78216176D01*
X130647067Y-78130617D01*
X130427788Y-78087000D01*
X130204212Y-78087000D01*
X129984933Y-78130617D01*
X129778376Y-78216176D01*
X129592480Y-78340388D01*
X129434388Y-78498480D01*
X129310176Y-78684376D01*
X129224617Y-78890933D01*
X129181000Y-79110212D01*
X123784165Y-79110212D01*
X123737571Y-79040480D01*
X123579479Y-78882388D01*
X123393583Y-78758176D01*
X123187026Y-78672617D01*
X122967747Y-78629000D01*
X122744171Y-78629000D01*
X122524892Y-78672617D01*
X122318335Y-78758176D01*
X122132439Y-78882388D01*
X121974347Y-79040480D01*
X121850135Y-79226376D01*
X121764576Y-79432933D01*
X121720959Y-79652212D01*
X96312750Y-79652212D01*
X96363000Y-79399592D01*
X96363000Y-79124408D01*
X96309314Y-78854510D01*
X96204005Y-78600273D01*
X96051120Y-78371465D01*
X95856535Y-78176880D01*
X95627727Y-78023995D01*
X95550485Y-77992000D01*
X95627727Y-77960005D01*
X95856535Y-77807120D01*
X96051120Y-77612535D01*
X96204005Y-77383727D01*
X96309314Y-77129490D01*
X96363000Y-76859592D01*
X96363000Y-76584408D01*
X96309314Y-76314510D01*
X96204005Y-76060273D01*
X96051120Y-75831465D01*
X95856535Y-75636880D01*
X95627727Y-75483995D01*
X95550485Y-75452000D01*
X95627727Y-75420005D01*
X95856535Y-75267120D01*
X96051120Y-75072535D01*
X96204005Y-74843727D01*
X96309314Y-74589490D01*
X96363000Y-74319592D01*
X96363000Y-74044408D01*
X96309314Y-73774510D01*
X96239126Y-73605061D01*
X150606000Y-73605061D01*
X150606000Y-73808939D01*
X150645774Y-74008898D01*
X150723795Y-74197256D01*
X150837063Y-74366774D01*
X150981226Y-74510937D01*
X151150744Y-74624205D01*
X151339102Y-74702226D01*
X151539061Y-74742000D01*
X151742939Y-74742000D01*
X151942898Y-74702226D01*
X152131256Y-74624205D01*
X152300774Y-74510937D01*
X152444937Y-74366774D01*
X152558205Y-74197256D01*
X152636226Y-74008898D01*
X152676000Y-73808939D01*
X152676000Y-73605061D01*
X152636226Y-73405102D01*
X152558205Y-73216744D01*
X152444937Y-73047226D01*
X152300774Y-72903063D01*
X152131256Y-72789795D01*
X151942898Y-72711774D01*
X151742939Y-72672000D01*
X151539061Y-72672000D01*
X151339102Y-72711774D01*
X151150744Y-72789795D01*
X150981226Y-72903063D01*
X150837063Y-73047226D01*
X150723795Y-73216744D01*
X150645774Y-73405102D01*
X150606000Y-73605061D01*
X96239126Y-73605061D01*
X96204005Y-73520273D01*
X96051120Y-73291465D01*
X95856535Y-73096880D01*
X95768535Y-73038080D01*
X95852482Y-73029812D01*
X95972180Y-72993502D01*
X96082494Y-72934537D01*
X96179185Y-72855185D01*
X96258537Y-72758494D01*
X96317502Y-72648180D01*
X96353812Y-72528482D01*
X96366072Y-72404000D01*
X96363000Y-71927750D01*
X96204250Y-71769000D01*
X95093000Y-71769000D01*
X95093000Y-71789000D01*
X94839000Y-71789000D01*
X94839000Y-71769000D01*
X93727750Y-71769000D01*
X93569000Y-71927750D01*
X93565928Y-72404000D01*
X92286000Y-72404000D01*
X92286000Y-70880000D01*
X93565928Y-70880000D01*
X93569000Y-71356250D01*
X93727750Y-71515000D01*
X94839000Y-71515000D01*
X94839000Y-70403750D01*
X95093000Y-70403750D01*
X95093000Y-71515000D01*
X96204250Y-71515000D01*
X96363000Y-71356250D01*
X96366072Y-70880000D01*
X96353812Y-70755518D01*
X96317502Y-70635820D01*
X96258537Y-70525506D01*
X96179185Y-70428815D01*
X96082494Y-70349463D01*
X95972180Y-70290498D01*
X95852482Y-70254188D01*
X95728000Y-70241928D01*
X95251750Y-70245000D01*
X95093000Y-70403750D01*
X94839000Y-70403750D01*
X94680250Y-70245000D01*
X94204000Y-70241928D01*
X94079518Y-70254188D01*
X93959820Y-70290498D01*
X93849506Y-70349463D01*
X93752815Y-70428815D01*
X93673463Y-70525506D01*
X93614498Y-70635820D01*
X93578188Y-70755518D01*
X93565928Y-70880000D01*
X92286000Y-70880000D01*
X92286000Y-68382881D01*
X104104724Y-68382881D01*
X104464912Y-68872548D01*
X105128882Y-69232849D01*
X105850385Y-69456694D01*
X106601695Y-69535480D01*
X107353938Y-69466178D01*
X108078208Y-69251452D01*
X108746670Y-68899555D01*
X108787088Y-68872548D01*
X109147276Y-68382881D01*
X164104724Y-68382881D01*
X164464912Y-68872548D01*
X165128882Y-69232849D01*
X165850385Y-69456694D01*
X166601695Y-69535480D01*
X167353938Y-69466178D01*
X168078208Y-69251452D01*
X168746670Y-68899555D01*
X168787088Y-68872548D01*
X169147276Y-68382881D01*
X166626000Y-65861605D01*
X164104724Y-68382881D01*
X109147276Y-68382881D01*
X106626000Y-65861605D01*
X104104724Y-68382881D01*
X92286000Y-68382881D01*
X92286000Y-65896891D01*
X94794519Y-65896891D01*
X94891843Y-66171252D01*
X95040822Y-66421355D01*
X95235731Y-66637588D01*
X95469080Y-66811641D01*
X95731901Y-66936825D01*
X95879110Y-66981476D01*
X96109000Y-66860155D01*
X96109000Y-65667000D01*
X94915186Y-65667000D01*
X94794519Y-65896891D01*
X92286000Y-65896891D01*
X92286000Y-65183109D01*
X94794519Y-65183109D01*
X94915186Y-65413000D01*
X96109000Y-65413000D01*
X96109000Y-64219845D01*
X96363000Y-64219845D01*
X96363000Y-65413000D01*
X96383000Y-65413000D01*
X96383000Y-65667000D01*
X96363000Y-65667000D01*
X96363000Y-66860155D01*
X96592890Y-66981476D01*
X96740099Y-66936825D01*
X97002920Y-66811641D01*
X97236269Y-66637588D01*
X97312034Y-66553534D01*
X97336498Y-66634180D01*
X97395463Y-66744494D01*
X97474815Y-66841185D01*
X97571506Y-66920537D01*
X97681820Y-66979502D01*
X97801518Y-67015812D01*
X97926000Y-67028072D01*
X99626000Y-67028072D01*
X99750482Y-67015812D01*
X99870180Y-66979502D01*
X99980494Y-66920537D01*
X100077185Y-66841185D01*
X100156537Y-66744494D01*
X100215502Y-66634180D01*
X100251812Y-66514482D01*
X100264072Y-66390000D01*
X100264072Y-65657695D01*
X102772520Y-65657695D01*
X102841822Y-66409938D01*
X103056548Y-67134208D01*
X103408445Y-67802670D01*
X103435452Y-67843088D01*
X103925119Y-68203276D01*
X106446395Y-65682000D01*
X106805605Y-65682000D01*
X109326881Y-68203276D01*
X109816548Y-67843088D01*
X110176849Y-67179118D01*
X110400694Y-66457615D01*
X110479480Y-65706305D01*
X110475002Y-65657695D01*
X162772520Y-65657695D01*
X162841822Y-66409938D01*
X163056548Y-67134208D01*
X163408445Y-67802670D01*
X163435452Y-67843088D01*
X163925119Y-68203276D01*
X166446395Y-65682000D01*
X166805605Y-65682000D01*
X169326881Y-68203276D01*
X169816548Y-67843088D01*
X170050476Y-67412000D01*
X172217928Y-67412000D01*
X172230188Y-67536482D01*
X172266498Y-67656180D01*
X172325463Y-67766494D01*
X172404815Y-67863185D01*
X172501506Y-67942537D01*
X172611820Y-68001502D01*
X172684380Y-68023513D01*
X172552525Y-68155368D01*
X172390010Y-68398589D01*
X172278068Y-68668842D01*
X172221000Y-68955740D01*
X172221000Y-69248260D01*
X172278068Y-69535158D01*
X172390010Y-69805411D01*
X172552525Y-70048632D01*
X172759368Y-70255475D01*
X172933760Y-70372000D01*
X172759368Y-70488525D01*
X172552525Y-70695368D01*
X172390010Y-70938589D01*
X172278068Y-71208842D01*
X172221000Y-71495740D01*
X172221000Y-71788260D01*
X172278068Y-72075158D01*
X172390010Y-72345411D01*
X172552525Y-72588632D01*
X172759368Y-72795475D01*
X172933760Y-72912000D01*
X172759368Y-73028525D01*
X172552525Y-73235368D01*
X172390010Y-73478589D01*
X172278068Y-73748842D01*
X172221000Y-74035740D01*
X172221000Y-74328260D01*
X172278068Y-74615158D01*
X172390010Y-74885411D01*
X172552525Y-75128632D01*
X172759368Y-75335475D01*
X172933760Y-75452000D01*
X172759368Y-75568525D01*
X172552525Y-75775368D01*
X172390010Y-76018589D01*
X172278068Y-76288842D01*
X172221000Y-76575740D01*
X172221000Y-76868260D01*
X172278068Y-77155158D01*
X172390010Y-77425411D01*
X172552525Y-77668632D01*
X172759368Y-77875475D01*
X172933760Y-77992000D01*
X172759368Y-78108525D01*
X172552525Y-78315368D01*
X172390010Y-78558589D01*
X172278068Y-78828842D01*
X172221000Y-79115740D01*
X172221000Y-79408260D01*
X172278068Y-79695158D01*
X172390010Y-79965411D01*
X172552525Y-80208632D01*
X172759368Y-80415475D01*
X173002589Y-80577990D01*
X173272842Y-80689932D01*
X173559740Y-80747000D01*
X173852260Y-80747000D01*
X174139158Y-80689932D01*
X174409411Y-80577990D01*
X174652632Y-80415475D01*
X174746386Y-80321721D01*
X183001000Y-80321721D01*
X183001000Y-80742279D01*
X183083047Y-81154756D01*
X183243988Y-81543302D01*
X183477637Y-81892983D01*
X183775017Y-82190363D01*
X184124698Y-82424012D01*
X184513244Y-82584953D01*
X184925721Y-82667000D01*
X185346279Y-82667000D01*
X185758756Y-82584953D01*
X186147302Y-82424012D01*
X186496983Y-82190363D01*
X186794363Y-81892983D01*
X187028012Y-81543302D01*
X187188953Y-81154756D01*
X187271000Y-80742279D01*
X187271000Y-80321721D01*
X187188953Y-79909244D01*
X187028012Y-79520698D01*
X186794363Y-79171017D01*
X186496983Y-78873637D01*
X186147302Y-78639988D01*
X185758756Y-78479047D01*
X185346279Y-78397000D01*
X184925721Y-78397000D01*
X184513244Y-78479047D01*
X184124698Y-78639988D01*
X183775017Y-78873637D01*
X183477637Y-79171017D01*
X183243988Y-79520698D01*
X183083047Y-79909244D01*
X183001000Y-80321721D01*
X174746386Y-80321721D01*
X174859475Y-80208632D01*
X175021990Y-79965411D01*
X175133932Y-79695158D01*
X175191000Y-79408260D01*
X175191000Y-79115740D01*
X175133932Y-78828842D01*
X175021990Y-78558589D01*
X174859475Y-78315368D01*
X174652632Y-78108525D01*
X174478240Y-77992000D01*
X174652632Y-77875475D01*
X174859475Y-77668632D01*
X175021990Y-77425411D01*
X175133932Y-77155158D01*
X175191000Y-76868260D01*
X175191000Y-76575740D01*
X175133932Y-76288842D01*
X175021990Y-76018589D01*
X174859475Y-75775368D01*
X174652632Y-75568525D01*
X174478240Y-75452000D01*
X174652632Y-75335475D01*
X174746386Y-75241721D01*
X183001000Y-75241721D01*
X183001000Y-75662279D01*
X183083047Y-76074756D01*
X183243988Y-76463302D01*
X183477637Y-76812983D01*
X183775017Y-77110363D01*
X184124698Y-77344012D01*
X184513244Y-77504953D01*
X184925721Y-77587000D01*
X185346279Y-77587000D01*
X185758756Y-77504953D01*
X186147302Y-77344012D01*
X186496983Y-77110363D01*
X186794363Y-76812983D01*
X187028012Y-76463302D01*
X187188953Y-76074756D01*
X187271000Y-75662279D01*
X187271000Y-75241721D01*
X187188953Y-74829244D01*
X187028012Y-74440698D01*
X186794363Y-74091017D01*
X186496983Y-73793637D01*
X186147302Y-73559988D01*
X185758756Y-73399047D01*
X185346279Y-73317000D01*
X184925721Y-73317000D01*
X184513244Y-73399047D01*
X184124698Y-73559988D01*
X183775017Y-73793637D01*
X183477637Y-74091017D01*
X183243988Y-74440698D01*
X183083047Y-74829244D01*
X183001000Y-75241721D01*
X174746386Y-75241721D01*
X174859475Y-75128632D01*
X175021990Y-74885411D01*
X175133932Y-74615158D01*
X175191000Y-74328260D01*
X175191000Y-74035740D01*
X175133932Y-73748842D01*
X175021990Y-73478589D01*
X174859475Y-73235368D01*
X174652632Y-73028525D01*
X174478240Y-72912000D01*
X174652632Y-72795475D01*
X174859475Y-72588632D01*
X175021990Y-72345411D01*
X175133932Y-72075158D01*
X175191000Y-71788260D01*
X175191000Y-71495740D01*
X175133932Y-71208842D01*
X175021990Y-70938589D01*
X174859475Y-70695368D01*
X174652632Y-70488525D01*
X174478240Y-70372000D01*
X174652632Y-70255475D01*
X174746386Y-70161721D01*
X183001000Y-70161721D01*
X183001000Y-70582279D01*
X183083047Y-70994756D01*
X183243988Y-71383302D01*
X183477637Y-71732983D01*
X183775017Y-72030363D01*
X184124698Y-72264012D01*
X184513244Y-72424953D01*
X184925721Y-72507000D01*
X185346279Y-72507000D01*
X185758756Y-72424953D01*
X186147302Y-72264012D01*
X186496983Y-72030363D01*
X186794363Y-71732983D01*
X187028012Y-71383302D01*
X187188953Y-70994756D01*
X187271000Y-70582279D01*
X187271000Y-70161721D01*
X187188953Y-69749244D01*
X187028012Y-69360698D01*
X186794363Y-69011017D01*
X186496983Y-68713637D01*
X186147302Y-68479988D01*
X185758756Y-68319047D01*
X185346279Y-68237000D01*
X184925721Y-68237000D01*
X184513244Y-68319047D01*
X184124698Y-68479988D01*
X183775017Y-68713637D01*
X183477637Y-69011017D01*
X183243988Y-69360698D01*
X183083047Y-69749244D01*
X183001000Y-70161721D01*
X174746386Y-70161721D01*
X174859475Y-70048632D01*
X175021990Y-69805411D01*
X175133932Y-69535158D01*
X175191000Y-69248260D01*
X175191000Y-68955740D01*
X175133932Y-68668842D01*
X175021990Y-68398589D01*
X174859475Y-68155368D01*
X174727620Y-68023513D01*
X174800180Y-68001502D01*
X174910494Y-67942537D01*
X175007185Y-67863185D01*
X175086537Y-67766494D01*
X175145502Y-67656180D01*
X175181812Y-67536482D01*
X175194072Y-67412000D01*
X175191000Y-66847750D01*
X175032250Y-66689000D01*
X173833000Y-66689000D01*
X173833000Y-66709000D01*
X173579000Y-66709000D01*
X173579000Y-66689000D01*
X172379750Y-66689000D01*
X172221000Y-66847750D01*
X172217928Y-67412000D01*
X170050476Y-67412000D01*
X170176849Y-67179118D01*
X170400694Y-66457615D01*
X170478882Y-65712000D01*
X172217928Y-65712000D01*
X172221000Y-66276250D01*
X172379750Y-66435000D01*
X173579000Y-66435000D01*
X173579000Y-65235750D01*
X173833000Y-65235750D01*
X173833000Y-66435000D01*
X175032250Y-66435000D01*
X175191000Y-66276250D01*
X175194072Y-65712000D01*
X175181812Y-65587518D01*
X175145502Y-65467820D01*
X175086537Y-65357506D01*
X175007185Y-65260815D01*
X174910494Y-65181463D01*
X174800180Y-65122498D01*
X174680482Y-65086188D01*
X174556000Y-65073928D01*
X173991750Y-65077000D01*
X173833000Y-65235750D01*
X173579000Y-65235750D01*
X173420250Y-65077000D01*
X172856000Y-65073928D01*
X172731518Y-65086188D01*
X172611820Y-65122498D01*
X172501506Y-65181463D01*
X172404815Y-65260815D01*
X172325463Y-65357506D01*
X172266498Y-65467820D01*
X172230188Y-65587518D01*
X172217928Y-65712000D01*
X170478882Y-65712000D01*
X170479480Y-65706305D01*
X170410178Y-64954062D01*
X170195452Y-64229792D01*
X169964987Y-63792000D01*
X182997928Y-63792000D01*
X182997928Y-66792000D01*
X183010188Y-66916482D01*
X183046498Y-67036180D01*
X183105463Y-67146494D01*
X183184815Y-67243185D01*
X183281506Y-67322537D01*
X183391820Y-67381502D01*
X183511518Y-67417812D01*
X183636000Y-67430072D01*
X186636000Y-67430072D01*
X186760482Y-67417812D01*
X186880180Y-67381502D01*
X186990494Y-67322537D01*
X187087185Y-67243185D01*
X187166537Y-67146494D01*
X187225502Y-67036180D01*
X187261812Y-66916482D01*
X187274072Y-66792000D01*
X187274072Y-63792000D01*
X187261812Y-63667518D01*
X187225502Y-63547820D01*
X187166537Y-63437506D01*
X187087185Y-63340815D01*
X186990494Y-63261463D01*
X186880180Y-63202498D01*
X186760482Y-63166188D01*
X186636000Y-63153928D01*
X183636000Y-63153928D01*
X183511518Y-63166188D01*
X183391820Y-63202498D01*
X183281506Y-63261463D01*
X183184815Y-63340815D01*
X183105463Y-63437506D01*
X183046498Y-63547820D01*
X183010188Y-63667518D01*
X182997928Y-63792000D01*
X169964987Y-63792000D01*
X169843555Y-63561330D01*
X169816548Y-63520912D01*
X169326881Y-63160724D01*
X166805605Y-65682000D01*
X166446395Y-65682000D01*
X163925119Y-63160724D01*
X163435452Y-63520912D01*
X163075151Y-64184882D01*
X162851306Y-64906385D01*
X162772520Y-65657695D01*
X110475002Y-65657695D01*
X110410178Y-64954062D01*
X110195452Y-64229792D01*
X109843555Y-63561330D01*
X109816548Y-63520912D01*
X109326881Y-63160724D01*
X106805605Y-65682000D01*
X106446395Y-65682000D01*
X103925119Y-63160724D01*
X103435452Y-63520912D01*
X103075151Y-64184882D01*
X102851306Y-64906385D01*
X102772520Y-65657695D01*
X100264072Y-65657695D01*
X100264072Y-64690000D01*
X100251812Y-64565518D01*
X100215502Y-64445820D01*
X100156537Y-64335506D01*
X100077185Y-64238815D01*
X99980494Y-64159463D01*
X99870180Y-64100498D01*
X99750482Y-64064188D01*
X99626000Y-64051928D01*
X97926000Y-64051928D01*
X97801518Y-64064188D01*
X97681820Y-64100498D01*
X97571506Y-64159463D01*
X97474815Y-64238815D01*
X97395463Y-64335506D01*
X97336498Y-64445820D01*
X97312034Y-64526466D01*
X97236269Y-64442412D01*
X97002920Y-64268359D01*
X96740099Y-64143175D01*
X96592890Y-64098524D01*
X96363000Y-64219845D01*
X96109000Y-64219845D01*
X95879110Y-64098524D01*
X95731901Y-64143175D01*
X95469080Y-64268359D01*
X95235731Y-64442412D01*
X95040822Y-64658645D01*
X94891843Y-64908748D01*
X94794519Y-65183109D01*
X92286000Y-65183109D01*
X92286000Y-62981119D01*
X104104724Y-62981119D01*
X106626000Y-65502395D01*
X109147276Y-62981119D01*
X164104724Y-62981119D01*
X166626000Y-65502395D01*
X169147276Y-62981119D01*
X168787088Y-62491452D01*
X168123118Y-62131151D01*
X167401615Y-61907306D01*
X166650305Y-61828520D01*
X165898062Y-61897822D01*
X165173792Y-62112548D01*
X164505330Y-62464445D01*
X164464912Y-62491452D01*
X164104724Y-62981119D01*
X109147276Y-62981119D01*
X108787088Y-62491452D01*
X108123118Y-62131151D01*
X107401615Y-61907306D01*
X106650305Y-61828520D01*
X105898062Y-61897822D01*
X105173792Y-62112548D01*
X104505330Y-62464445D01*
X104464912Y-62491452D01*
X104104724Y-62981119D01*
X92286000Y-62981119D01*
X92286000Y-61714279D01*
X92295580Y-61616576D01*
X92314580Y-61553644D01*
X92345445Y-61495595D01*
X92386989Y-61444657D01*
X92437644Y-61402752D01*
X92495471Y-61371485D01*
X92558272Y-61352044D01*
X92653835Y-61342000D01*
X190593721Y-61342000D01*
X190691424Y-61351580D01*
G04 #@! TA.AperFunction,Conductor*
D24*
G36*
X190691424Y-61351580D02*
G01*
X190754356Y-61370580D01*
X190812405Y-61401445D01*
X190863343Y-61442989D01*
X190905248Y-61493644D01*
X190936515Y-61551471D01*
X190955956Y-61614272D01*
X190966000Y-61709835D01*
X190966001Y-127649711D01*
X190956420Y-127747424D01*
X190937420Y-127810357D01*
X190906554Y-127868406D01*
X190865011Y-127919343D01*
X190814356Y-127961248D01*
X190756529Y-127992515D01*
X190693728Y-128011956D01*
X190598165Y-128022000D01*
X92658279Y-128022000D01*
X92560576Y-128012420D01*
X92497643Y-127993420D01*
X92439594Y-127962554D01*
X92388657Y-127921011D01*
X92346752Y-127870356D01*
X92315485Y-127812529D01*
X92296044Y-127749728D01*
X92286000Y-127654165D01*
X92286000Y-126382881D01*
X104104724Y-126382881D01*
X104464912Y-126872548D01*
X105128882Y-127232849D01*
X105850385Y-127456694D01*
X106601695Y-127535480D01*
X107353938Y-127466178D01*
X108078208Y-127251452D01*
X108746670Y-126899555D01*
X108787088Y-126872548D01*
X109147276Y-126382881D01*
X164104724Y-126382881D01*
X164464912Y-126872548D01*
X165128882Y-127232849D01*
X165850385Y-127456694D01*
X166601695Y-127535480D01*
X167353938Y-127466178D01*
X168078208Y-127251452D01*
X168419542Y-127071764D01*
X184609841Y-127071764D01*
X184657148Y-127295348D01*
X184878516Y-127396237D01*
X185115313Y-127452000D01*
X185358438Y-127460495D01*
X185598549Y-127421395D01*
X185826418Y-127336202D01*
X185902852Y-127295348D01*
X185950159Y-127071764D01*
X185280000Y-126401605D01*
X184609841Y-127071764D01*
X168419542Y-127071764D01*
X168746670Y-126899555D01*
X168787088Y-126872548D01*
X169147276Y-126382881D01*
X169064833Y-126300438D01*
X184041505Y-126300438D01*
X184080605Y-126540549D01*
X184165798Y-126768418D01*
X184206652Y-126844852D01*
X184430236Y-126892159D01*
X185100395Y-126222000D01*
X185086253Y-126207858D01*
X185265858Y-126028253D01*
X185280000Y-126042395D01*
X185294143Y-126028253D01*
X185473748Y-126207858D01*
X185459605Y-126222000D01*
X186129764Y-126892159D01*
X186353348Y-126844852D01*
X186454237Y-126623484D01*
X186510000Y-126386687D01*
X186518495Y-126143562D01*
X186479395Y-125903451D01*
X186399549Y-125689883D01*
X186410537Y-125676494D01*
X186469502Y-125566180D01*
X186505812Y-125446482D01*
X186518072Y-125322000D01*
X186518072Y-124122000D01*
X186505812Y-123997518D01*
X186469502Y-123877820D01*
X186410537Y-123767506D01*
X186331185Y-123670815D01*
X186234494Y-123591463D01*
X186124180Y-123532498D01*
X186004482Y-123496188D01*
X185880000Y-123483928D01*
X184680000Y-123483928D01*
X184555518Y-123496188D01*
X184435820Y-123532498D01*
X184325506Y-123591463D01*
X184228815Y-123670815D01*
X184149463Y-123767506D01*
X184090498Y-123877820D01*
X184054188Y-123997518D01*
X184041928Y-124122000D01*
X184041928Y-125322000D01*
X184054188Y-125446482D01*
X184090498Y-125566180D01*
X184149463Y-125676494D01*
X184163568Y-125693681D01*
X184105763Y-125820516D01*
X184050000Y-126057313D01*
X184041505Y-126300438D01*
X169064833Y-126300438D01*
X166626000Y-123861605D01*
X164104724Y-126382881D01*
X109147276Y-126382881D01*
X106626000Y-123861605D01*
X104104724Y-126382881D01*
X92286000Y-126382881D01*
X92286000Y-123657695D01*
X102772520Y-123657695D01*
X102841822Y-124409938D01*
X103056548Y-125134208D01*
X103408445Y-125802670D01*
X103435452Y-125843088D01*
X103925119Y-126203276D01*
X106446395Y-123682000D01*
X106805605Y-123682000D01*
X109326881Y-126203276D01*
X109816548Y-125843088D01*
X110176849Y-125179118D01*
X110400694Y-124457615D01*
X110411327Y-124356212D01*
X150363000Y-124356212D01*
X150363000Y-124579788D01*
X150406617Y-124799067D01*
X150492176Y-125005624D01*
X150616388Y-125191520D01*
X150774480Y-125349612D01*
X150960376Y-125473824D01*
X151166933Y-125559383D01*
X151386212Y-125603000D01*
X151609788Y-125603000D01*
X151829067Y-125559383D01*
X152035624Y-125473824D01*
X152221520Y-125349612D01*
X152379612Y-125191520D01*
X152503824Y-125005624D01*
X152589383Y-124799067D01*
X152633000Y-124579788D01*
X152633000Y-124356212D01*
X152589383Y-124136933D01*
X152503824Y-123930376D01*
X152379612Y-123744480D01*
X152292827Y-123657695D01*
X162772520Y-123657695D01*
X162841822Y-124409938D01*
X163056548Y-125134208D01*
X163408445Y-125802670D01*
X163435452Y-125843088D01*
X163925119Y-126203276D01*
X166446395Y-123682000D01*
X166805605Y-123682000D01*
X169326881Y-126203276D01*
X169816548Y-125843088D01*
X170176849Y-125179118D01*
X170400694Y-124457615D01*
X170479480Y-123706305D01*
X170410178Y-122954062D01*
X170316939Y-122639565D01*
X176874040Y-122639565D01*
X176941020Y-122879656D01*
X177190048Y-122996756D01*
X177457135Y-123063023D01*
X177732017Y-123075910D01*
X178004133Y-123034922D01*
X178263023Y-122941636D01*
X178378980Y-122879656D01*
X178445960Y-122639565D01*
X177660000Y-121853605D01*
X176874040Y-122639565D01*
X170316939Y-122639565D01*
X170195452Y-122229792D01*
X169940780Y-121746017D01*
X176258090Y-121746017D01*
X176299078Y-122018133D01*
X176392364Y-122277023D01*
X176454344Y-122392980D01*
X176694435Y-122459960D01*
X177480395Y-121674000D01*
X177839605Y-121674000D01*
X178625565Y-122459960D01*
X178865656Y-122392980D01*
X178929485Y-122257240D01*
X178961995Y-122335727D01*
X179114880Y-122564535D01*
X179309465Y-122759120D01*
X179538273Y-122912005D01*
X179792510Y-123017314D01*
X180062408Y-123071000D01*
X180337592Y-123071000D01*
X180607490Y-123017314D01*
X180861727Y-122912005D01*
X181090535Y-122759120D01*
X181285120Y-122564535D01*
X181438005Y-122335727D01*
X181470000Y-122258485D01*
X181501995Y-122335727D01*
X181654880Y-122564535D01*
X181849465Y-122759120D01*
X182078273Y-122912005D01*
X182332510Y-123017314D01*
X182602408Y-123071000D01*
X182877592Y-123071000D01*
X183147490Y-123017314D01*
X183401727Y-122912005D01*
X183630535Y-122759120D01*
X183825120Y-122564535D01*
X183978005Y-122335727D01*
X184010000Y-122258485D01*
X184041995Y-122335727D01*
X184194880Y-122564535D01*
X184389465Y-122759120D01*
X184618273Y-122912005D01*
X184872510Y-123017314D01*
X185142408Y-123071000D01*
X185417592Y-123071000D01*
X185687490Y-123017314D01*
X185941727Y-122912005D01*
X186170535Y-122759120D01*
X186365120Y-122564535D01*
X186518005Y-122335727D01*
X186623314Y-122081490D01*
X186677000Y-121811592D01*
X186677000Y-121536408D01*
X186623314Y-121266510D01*
X186518005Y-121012273D01*
X186365120Y-120783465D01*
X186170535Y-120588880D01*
X185941727Y-120435995D01*
X185687490Y-120330686D01*
X185417592Y-120277000D01*
X185142408Y-120277000D01*
X184872510Y-120330686D01*
X184618273Y-120435995D01*
X184389465Y-120588880D01*
X184194880Y-120783465D01*
X184041995Y-121012273D01*
X184010000Y-121089515D01*
X183978005Y-121012273D01*
X183825120Y-120783465D01*
X183630535Y-120588880D01*
X183401727Y-120435995D01*
X183147490Y-120330686D01*
X182877592Y-120277000D01*
X182602408Y-120277000D01*
X182332510Y-120330686D01*
X182078273Y-120435995D01*
X181849465Y-120588880D01*
X181654880Y-120783465D01*
X181501995Y-121012273D01*
X181470000Y-121089515D01*
X181438005Y-121012273D01*
X181285120Y-120783465D01*
X181090535Y-120588880D01*
X180861727Y-120435995D01*
X180607490Y-120330686D01*
X180337592Y-120277000D01*
X180062408Y-120277000D01*
X179792510Y-120330686D01*
X179538273Y-120435995D01*
X179309465Y-120588880D01*
X179114880Y-120783465D01*
X178961995Y-121012273D01*
X178932308Y-121083943D01*
X178927636Y-121070977D01*
X178865656Y-120955020D01*
X178625565Y-120888040D01*
X177839605Y-121674000D01*
X177480395Y-121674000D01*
X176694435Y-120888040D01*
X176454344Y-120955020D01*
X176337244Y-121204048D01*
X176270977Y-121471135D01*
X176258090Y-121746017D01*
X169940780Y-121746017D01*
X169843555Y-121561330D01*
X169816548Y-121520912D01*
X169326881Y-121160724D01*
X166805605Y-123682000D01*
X166446395Y-123682000D01*
X163925119Y-121160724D01*
X163435452Y-121520912D01*
X163075151Y-122184882D01*
X162851306Y-122906385D01*
X162772520Y-123657695D01*
X152292827Y-123657695D01*
X152221520Y-123586388D01*
X152035624Y-123462176D01*
X151829067Y-123376617D01*
X151609788Y-123333000D01*
X151386212Y-123333000D01*
X151166933Y-123376617D01*
X150960376Y-123462176D01*
X150774480Y-123586388D01*
X150616388Y-123744480D01*
X150492176Y-123930376D01*
X150406617Y-124136933D01*
X150363000Y-124356212D01*
X110411327Y-124356212D01*
X110479480Y-123706305D01*
X110410178Y-122954062D01*
X110195452Y-122229792D01*
X109843555Y-121561330D01*
X109816548Y-121520912D01*
X109326881Y-121160724D01*
X106805605Y-123682000D01*
X106446395Y-123682000D01*
X103925119Y-121160724D01*
X103435452Y-121520912D01*
X103075151Y-122184882D01*
X102851306Y-122906385D01*
X102772520Y-123657695D01*
X92286000Y-123657695D01*
X92286000Y-120981119D01*
X104104724Y-120981119D01*
X106626000Y-123502395D01*
X109147276Y-120981119D01*
X164104724Y-120981119D01*
X166626000Y-123502395D01*
X169147276Y-120981119D01*
X168946696Y-120708435D01*
X176874040Y-120708435D01*
X177660000Y-121494395D01*
X178445960Y-120708435D01*
X178378980Y-120468344D01*
X178129952Y-120351244D01*
X177862865Y-120284977D01*
X177587983Y-120272090D01*
X177315867Y-120313078D01*
X177056977Y-120406364D01*
X176941020Y-120468344D01*
X176874040Y-120708435D01*
X168946696Y-120708435D01*
X168787088Y-120491452D01*
X168123118Y-120131151D01*
X167401615Y-119907306D01*
X166650305Y-119828520D01*
X165898062Y-119897822D01*
X165173792Y-120112548D01*
X164505330Y-120464445D01*
X164464912Y-120491452D01*
X164104724Y-120981119D01*
X109147276Y-120981119D01*
X108787088Y-120491452D01*
X108123118Y-120131151D01*
X107401615Y-119907306D01*
X106650305Y-119828520D01*
X105898062Y-119897822D01*
X105173792Y-120112548D01*
X104505330Y-120464445D01*
X104464912Y-120491452D01*
X104104724Y-120981119D01*
X92286000Y-120981119D01*
X92286000Y-117132000D01*
X96637928Y-117132000D01*
X96637928Y-120132000D01*
X96650188Y-120256482D01*
X96686498Y-120376180D01*
X96745463Y-120486494D01*
X96824815Y-120583185D01*
X96921506Y-120662537D01*
X97031820Y-120721502D01*
X97151518Y-120757812D01*
X97276000Y-120770072D01*
X100276000Y-120770072D01*
X100400482Y-120757812D01*
X100520180Y-120721502D01*
X100630494Y-120662537D01*
X100727185Y-120583185D01*
X100806537Y-120486494D01*
X100865502Y-120376180D01*
X100901812Y-120256482D01*
X100914072Y-120132000D01*
X100914072Y-117132000D01*
X100902057Y-117010000D01*
X103269928Y-117010000D01*
X103269928Y-118210000D01*
X103282188Y-118334482D01*
X103318498Y-118454180D01*
X103377463Y-118564494D01*
X103456815Y-118661185D01*
X103553506Y-118740537D01*
X103663820Y-118799502D01*
X103783518Y-118835812D01*
X103908000Y-118848072D01*
X105108000Y-118848072D01*
X105232482Y-118835812D01*
X105352180Y-118799502D01*
X105462494Y-118740537D01*
X105479681Y-118726432D01*
X105606516Y-118784237D01*
X105843313Y-118840000D01*
X106086438Y-118848495D01*
X106326549Y-118809395D01*
X106554418Y-118724202D01*
X106630852Y-118683348D01*
X106678159Y-118459764D01*
X106008000Y-117789605D01*
X105993858Y-117803748D01*
X105814253Y-117624143D01*
X105828395Y-117610000D01*
X106187605Y-117610000D01*
X106857764Y-118280159D01*
X107081348Y-118232852D01*
X107182237Y-118011484D01*
X107238000Y-117774687D01*
X107246495Y-117531562D01*
X107207395Y-117291451D01*
X107122202Y-117063582D01*
X107081348Y-116987148D01*
X106857764Y-116939841D01*
X106187605Y-117610000D01*
X105828395Y-117610000D01*
X105814253Y-117595858D01*
X105993858Y-117416253D01*
X106008000Y-117430395D01*
X106678159Y-116760236D01*
X106630852Y-116536652D01*
X106409484Y-116435763D01*
X106172687Y-116380000D01*
X105929562Y-116371505D01*
X105689451Y-116410605D01*
X105475883Y-116490451D01*
X105462494Y-116479463D01*
X105352180Y-116420498D01*
X105232482Y-116384188D01*
X105108000Y-116371928D01*
X103908000Y-116371928D01*
X103783518Y-116384188D01*
X103663820Y-116420498D01*
X103553506Y-116479463D01*
X103456815Y-116558815D01*
X103377463Y-116655506D01*
X103318498Y-116765820D01*
X103282188Y-116885518D01*
X103269928Y-117010000D01*
X100902057Y-117010000D01*
X100901812Y-117007518D01*
X100865502Y-116887820D01*
X100806537Y-116777506D01*
X100727185Y-116680815D01*
X100630494Y-116601463D01*
X100520180Y-116542498D01*
X100400482Y-116506188D01*
X100276000Y-116493928D01*
X97276000Y-116493928D01*
X97151518Y-116506188D01*
X97031820Y-116542498D01*
X96921506Y-116601463D01*
X96824815Y-116680815D01*
X96745463Y-116777506D01*
X96686498Y-116887820D01*
X96650188Y-117007518D01*
X96637928Y-117132000D01*
X92286000Y-117132000D01*
X92286000Y-115043653D01*
X97463952Y-115043653D01*
X97619962Y-115359214D01*
X97994745Y-115550020D01*
X98399551Y-115664044D01*
X98818824Y-115696902D01*
X99236451Y-115647334D01*
X99636383Y-115517243D01*
X99932038Y-115359214D01*
X100088048Y-115043653D01*
X98776000Y-113731605D01*
X97463952Y-115043653D01*
X92286000Y-115043653D01*
X92286000Y-113594824D01*
X96631098Y-113594824D01*
X96680666Y-114012451D01*
X96810757Y-114412383D01*
X96968786Y-114708038D01*
X97284347Y-114864048D01*
X98596395Y-113552000D01*
X98955605Y-113552000D01*
X100267653Y-114864048D01*
X100583214Y-114708038D01*
X100774020Y-114333255D01*
X100888044Y-113928449D01*
X100920902Y-113509176D01*
X100871334Y-113091549D01*
X100741243Y-112691617D01*
X100583214Y-112395962D01*
X100267653Y-112239952D01*
X98955605Y-113552000D01*
X98596395Y-113552000D01*
X97284347Y-112239952D01*
X96968786Y-112395962D01*
X96777980Y-112770745D01*
X96663956Y-113175551D01*
X96631098Y-113594824D01*
X92286000Y-113594824D01*
X92286000Y-112060347D01*
X97463952Y-112060347D01*
X98776000Y-113372395D01*
X100088048Y-112060347D01*
X99932038Y-111744786D01*
X99557255Y-111553980D01*
X99152449Y-111439956D01*
X98733176Y-111407098D01*
X98315549Y-111456666D01*
X97915617Y-111586757D01*
X97619962Y-111744786D01*
X97463952Y-112060347D01*
X92286000Y-112060347D01*
X92286000Y-108261721D01*
X96641000Y-108261721D01*
X96641000Y-108682279D01*
X96723047Y-109094756D01*
X96883988Y-109483302D01*
X97117637Y-109832983D01*
X97415017Y-110130363D01*
X97764698Y-110364012D01*
X98153244Y-110524953D01*
X98565721Y-110607000D01*
X98986279Y-110607000D01*
X99398756Y-110524953D01*
X99787302Y-110364012D01*
X100136983Y-110130363D01*
X100434363Y-109832983D01*
X100668012Y-109483302D01*
X100828953Y-109094756D01*
X100911000Y-108682279D01*
X100911000Y-108261721D01*
X100828953Y-107849244D01*
X100668012Y-107460698D01*
X100434363Y-107111017D01*
X100136983Y-106813637D01*
X99787302Y-106579988D01*
X99398756Y-106419047D01*
X98986279Y-106337000D01*
X98565721Y-106337000D01*
X98153244Y-106419047D01*
X97764698Y-106579988D01*
X97415017Y-106813637D01*
X97117637Y-107111017D01*
X96883988Y-107460698D01*
X96723047Y-107849244D01*
X96641000Y-108261721D01*
X92286000Y-108261721D01*
X92286000Y-103181721D01*
X96641000Y-103181721D01*
X96641000Y-103602279D01*
X96723047Y-104014756D01*
X96883988Y-104403302D01*
X97117637Y-104752983D01*
X97415017Y-105050363D01*
X97764698Y-105284012D01*
X98153244Y-105444953D01*
X98565721Y-105527000D01*
X98986279Y-105527000D01*
X99398756Y-105444953D01*
X99787302Y-105284012D01*
X99957933Y-105170000D01*
X127855928Y-105170000D01*
X127855928Y-106694000D01*
X127868188Y-106818482D01*
X127904498Y-106938180D01*
X127963463Y-107048494D01*
X128042815Y-107145185D01*
X128139506Y-107224537D01*
X128249820Y-107283502D01*
X128369518Y-107319812D01*
X128494000Y-107332072D01*
X130018000Y-107332072D01*
X130142482Y-107319812D01*
X130262180Y-107283502D01*
X130372494Y-107224537D01*
X130469185Y-107145185D01*
X130548537Y-107048494D01*
X130607502Y-106938180D01*
X130643812Y-106818482D01*
X130656072Y-106694000D01*
X130656072Y-105170000D01*
X130643812Y-105045518D01*
X130607502Y-104925820D01*
X130548537Y-104815506D01*
X130469185Y-104718815D01*
X130372494Y-104639463D01*
X130262180Y-104580498D01*
X130142482Y-104544188D01*
X130018000Y-104531928D01*
X129993317Y-104531928D01*
X130041960Y-104357565D01*
X129256000Y-103571605D01*
X128470040Y-104357565D01*
X128518683Y-104531928D01*
X128494000Y-104531928D01*
X128369518Y-104544188D01*
X128249820Y-104580498D01*
X128139506Y-104639463D01*
X128042815Y-104718815D01*
X127963463Y-104815506D01*
X127904498Y-104925820D01*
X127868188Y-105045518D01*
X127855928Y-105170000D01*
X99957933Y-105170000D01*
X100136983Y-105050363D01*
X100434363Y-104752983D01*
X100668012Y-104403302D01*
X100828953Y-104014756D01*
X100911000Y-103602279D01*
X100911000Y-103464017D01*
X127854090Y-103464017D01*
X127895078Y-103736133D01*
X127988364Y-103995023D01*
X128050344Y-104110980D01*
X128290435Y-104177960D01*
X129076395Y-103392000D01*
X129435605Y-103392000D01*
X130221565Y-104177960D01*
X130461656Y-104110980D01*
X130578756Y-103861952D01*
X130645023Y-103594865D01*
X130657910Y-103319983D01*
X130616922Y-103047867D01*
X130523636Y-102788977D01*
X130461656Y-102673020D01*
X130221565Y-102606040D01*
X129435605Y-103392000D01*
X129076395Y-103392000D01*
X128290435Y-102606040D01*
X128050344Y-102673020D01*
X127933244Y-102922048D01*
X127866977Y-103189135D01*
X127854090Y-103464017D01*
X100911000Y-103464017D01*
X100911000Y-103181721D01*
X100828953Y-102769244D01*
X100668012Y-102380698D01*
X100434363Y-102031017D01*
X100220911Y-101817565D01*
X128470040Y-101817565D01*
X128537020Y-102057656D01*
X128667644Y-102119079D01*
X128652977Y-102124364D01*
X128537020Y-102186344D01*
X128470040Y-102426435D01*
X129256000Y-103212395D01*
X130041960Y-102426435D01*
X129974980Y-102186344D01*
X129844356Y-102124921D01*
X129859023Y-102119636D01*
X129974980Y-102057656D01*
X130041960Y-101817565D01*
X129256000Y-101031605D01*
X128470040Y-101817565D01*
X100220911Y-101817565D01*
X100136983Y-101733637D01*
X99787302Y-101499988D01*
X99398756Y-101339047D01*
X98986279Y-101257000D01*
X98565721Y-101257000D01*
X98153244Y-101339047D01*
X97764698Y-101499988D01*
X97415017Y-101733637D01*
X97117637Y-102031017D01*
X96883988Y-102380698D01*
X96723047Y-102769244D01*
X96641000Y-103181721D01*
X92286000Y-103181721D01*
X92286000Y-100924017D01*
X127854090Y-100924017D01*
X127895078Y-101196133D01*
X127988364Y-101455023D01*
X128050344Y-101570980D01*
X128290435Y-101637960D01*
X129076395Y-100852000D01*
X129435605Y-100852000D01*
X130221565Y-101637960D01*
X130461656Y-101570980D01*
X130578756Y-101321952D01*
X130645023Y-101054865D01*
X130657910Y-100779983D01*
X130616922Y-100507867D01*
X130523636Y-100248977D01*
X130461656Y-100133020D01*
X130221565Y-100066040D01*
X129435605Y-100852000D01*
X129076395Y-100852000D01*
X128290435Y-100066040D01*
X128050344Y-100133020D01*
X127933244Y-100382048D01*
X127866977Y-100649135D01*
X127854090Y-100924017D01*
X92286000Y-100924017D01*
X92286000Y-96812000D01*
X96637928Y-96812000D01*
X96637928Y-99812000D01*
X96650188Y-99936482D01*
X96686498Y-100056180D01*
X96745463Y-100166494D01*
X96824815Y-100263185D01*
X96921506Y-100342537D01*
X97031820Y-100401502D01*
X97151518Y-100437812D01*
X97276000Y-100450072D01*
X100276000Y-100450072D01*
X100400482Y-100437812D01*
X100520180Y-100401502D01*
X100630494Y-100342537D01*
X100727185Y-100263185D01*
X100806537Y-100166494D01*
X100865502Y-100056180D01*
X100901812Y-99936482D01*
X100914072Y-99812000D01*
X100914072Y-98174408D01*
X127859000Y-98174408D01*
X127859000Y-98449592D01*
X127912686Y-98719490D01*
X128017995Y-98973727D01*
X128170880Y-99202535D01*
X128365465Y-99397120D01*
X128594273Y-99550005D01*
X128665943Y-99579692D01*
X128652977Y-99584364D01*
X128537020Y-99646344D01*
X128470040Y-99886435D01*
X129256000Y-100672395D01*
X130041960Y-99886435D01*
X129974980Y-99646344D01*
X129839240Y-99582515D01*
X129917727Y-99550005D01*
X130146535Y-99397120D01*
X130341120Y-99202535D01*
X130494005Y-98973727D01*
X130599314Y-98719490D01*
X130653000Y-98449592D01*
X130653000Y-98174408D01*
X130599314Y-97904510D01*
X130494005Y-97650273D01*
X130341120Y-97421465D01*
X130146535Y-97226880D01*
X129917727Y-97073995D01*
X129663490Y-96968686D01*
X129393592Y-96915000D01*
X129118408Y-96915000D01*
X128848510Y-96968686D01*
X128594273Y-97073995D01*
X128365465Y-97226880D01*
X128170880Y-97421465D01*
X128017995Y-97650273D01*
X127912686Y-97904510D01*
X127859000Y-98174408D01*
X100914072Y-98174408D01*
X100914072Y-96812000D01*
X100901812Y-96687518D01*
X100865502Y-96567820D01*
X100806537Y-96457506D01*
X100727185Y-96360815D01*
X100630494Y-96281463D01*
X100520180Y-96222498D01*
X100400482Y-96186188D01*
X100276000Y-96173928D01*
X97276000Y-96173928D01*
X97151518Y-96186188D01*
X97031820Y-96222498D01*
X96921506Y-96281463D01*
X96824815Y-96360815D01*
X96745463Y-96457506D01*
X96686498Y-96567820D01*
X96650188Y-96687518D01*
X96637928Y-96812000D01*
X92286000Y-96812000D01*
X92286000Y-94723653D01*
X97463952Y-94723653D01*
X97619962Y-95039214D01*
X97994745Y-95230020D01*
X98399551Y-95344044D01*
X98818824Y-95376902D01*
X99236451Y-95327334D01*
X99636383Y-95197243D01*
X99932038Y-95039214D01*
X100088048Y-94723653D01*
X98776000Y-93411605D01*
X97463952Y-94723653D01*
X92286000Y-94723653D01*
X92286000Y-93274824D01*
X96631098Y-93274824D01*
X96680666Y-93692451D01*
X96810757Y-94092383D01*
X96968786Y-94388038D01*
X97284347Y-94544048D01*
X98596395Y-93232000D01*
X98955605Y-93232000D01*
X100267653Y-94544048D01*
X100583214Y-94388038D01*
X100774020Y-94013255D01*
X100888044Y-93608449D01*
X100920902Y-93189176D01*
X100871334Y-92771549D01*
X100741243Y-92371617D01*
X100583214Y-92075962D01*
X100267653Y-91919952D01*
X98955605Y-93232000D01*
X98596395Y-93232000D01*
X97284347Y-91919952D01*
X96968786Y-92075962D01*
X96777980Y-92450745D01*
X96663956Y-92855551D01*
X96631098Y-93274824D01*
X92286000Y-93274824D01*
X92286000Y-91740347D01*
X97463952Y-91740347D01*
X98776000Y-93052395D01*
X100088048Y-91740347D01*
X99932038Y-91424786D01*
X99557255Y-91233980D01*
X99152449Y-91119956D01*
X98733176Y-91087098D01*
X98315549Y-91136666D01*
X97915617Y-91266757D01*
X97619962Y-91424786D01*
X97463952Y-91740347D01*
X92286000Y-91740347D01*
X92286000Y-87941721D01*
X96641000Y-87941721D01*
X96641000Y-88362279D01*
X96723047Y-88774756D01*
X96883988Y-89163302D01*
X97117637Y-89512983D01*
X97415017Y-89810363D01*
X97764698Y-90044012D01*
X98153244Y-90204953D01*
X98565721Y-90287000D01*
X98986279Y-90287000D01*
X99398756Y-90204953D01*
X99787302Y-90044012D01*
X100136983Y-89810363D01*
X100434363Y-89512983D01*
X100668012Y-89163302D01*
X100828953Y-88774756D01*
X100911000Y-88362279D01*
X100911000Y-87941721D01*
X100832286Y-87546000D01*
X103523928Y-87546000D01*
X103523928Y-88746000D01*
X103536188Y-88870482D01*
X103572498Y-88990180D01*
X103631463Y-89100494D01*
X103710815Y-89197185D01*
X103807506Y-89276537D01*
X103917820Y-89335502D01*
X104037518Y-89371812D01*
X104162000Y-89384072D01*
X105362000Y-89384072D01*
X105486482Y-89371812D01*
X105606180Y-89335502D01*
X105716494Y-89276537D01*
X105733681Y-89262432D01*
X105860516Y-89320237D01*
X106097313Y-89376000D01*
X106340438Y-89384495D01*
X106580549Y-89345395D01*
X106808418Y-89260202D01*
X106884852Y-89219348D01*
X106932159Y-88995764D01*
X106262000Y-88325605D01*
X106247858Y-88339748D01*
X106068253Y-88160143D01*
X106082395Y-88146000D01*
X106441605Y-88146000D01*
X107111764Y-88816159D01*
X107335348Y-88768852D01*
X107436237Y-88547484D01*
X107492000Y-88310687D01*
X107500495Y-88067562D01*
X107461395Y-87827451D01*
X107376202Y-87599582D01*
X107335348Y-87523148D01*
X107111764Y-87475841D01*
X106441605Y-88146000D01*
X106082395Y-88146000D01*
X106068253Y-88131858D01*
X106247858Y-87952253D01*
X106262000Y-87966395D01*
X106932159Y-87296236D01*
X106884852Y-87072652D01*
X106663484Y-86971763D01*
X106426687Y-86916000D01*
X106183562Y-86907505D01*
X105943451Y-86946605D01*
X105729883Y-87026451D01*
X105716494Y-87015463D01*
X105606180Y-86956498D01*
X105486482Y-86920188D01*
X105362000Y-86907928D01*
X104162000Y-86907928D01*
X104037518Y-86920188D01*
X103917820Y-86956498D01*
X103807506Y-87015463D01*
X103710815Y-87094815D01*
X103631463Y-87191506D01*
X103572498Y-87301820D01*
X103536188Y-87421518D01*
X103523928Y-87546000D01*
X100832286Y-87546000D01*
X100828953Y-87529244D01*
X100668012Y-87140698D01*
X100434363Y-86791017D01*
X100136983Y-86493637D01*
X99787302Y-86259988D01*
X99398756Y-86099047D01*
X98986279Y-86017000D01*
X98565721Y-86017000D01*
X98153244Y-86099047D01*
X97764698Y-86259988D01*
X97415017Y-86493637D01*
X97117637Y-86791017D01*
X96883988Y-87140698D01*
X96723047Y-87529244D01*
X96641000Y-87941721D01*
X92286000Y-87941721D01*
X92286000Y-85474408D01*
X134209000Y-85474408D01*
X134209000Y-85749592D01*
X134262686Y-86019490D01*
X134367995Y-86273727D01*
X134520880Y-86502535D01*
X134715465Y-86697120D01*
X134944273Y-86850005D01*
X135021515Y-86882000D01*
X134944273Y-86913995D01*
X134715465Y-87066880D01*
X134520880Y-87261465D01*
X134367995Y-87490273D01*
X134262686Y-87744510D01*
X134209000Y-88014408D01*
X134209000Y-88289592D01*
X134262686Y-88559490D01*
X134367995Y-88813727D01*
X134520880Y-89042535D01*
X134715465Y-89237120D01*
X134944273Y-89390005D01*
X135021515Y-89422000D01*
X134944273Y-89453995D01*
X134715465Y-89606880D01*
X134520880Y-89801465D01*
X134367995Y-90030273D01*
X134262686Y-90284510D01*
X134209000Y-90554408D01*
X134209000Y-90829592D01*
X134262686Y-91099490D01*
X134367995Y-91353727D01*
X134520880Y-91582535D01*
X134715465Y-91777120D01*
X134944273Y-91930005D01*
X135021515Y-91962000D01*
X134944273Y-91993995D01*
X134715465Y-92146880D01*
X134520880Y-92341465D01*
X134367995Y-92570273D01*
X134262686Y-92824510D01*
X134209000Y-93094408D01*
X134209000Y-93369592D01*
X134262686Y-93639490D01*
X134367995Y-93893727D01*
X134520880Y-94122535D01*
X134715465Y-94317120D01*
X134944273Y-94470005D01*
X135021515Y-94502000D01*
X134944273Y-94533995D01*
X134715465Y-94686880D01*
X134520880Y-94881465D01*
X134367995Y-95110273D01*
X134262686Y-95364510D01*
X134209000Y-95634408D01*
X134209000Y-95909592D01*
X134262686Y-96179490D01*
X134367995Y-96433727D01*
X134520880Y-96662535D01*
X134715465Y-96857120D01*
X134944273Y-97010005D01*
X135021515Y-97042000D01*
X134944273Y-97073995D01*
X134715465Y-97226880D01*
X134520880Y-97421465D01*
X134367995Y-97650273D01*
X134262686Y-97904510D01*
X134209000Y-98174408D01*
X134209000Y-98449592D01*
X134262686Y-98719490D01*
X134367995Y-98973727D01*
X134520880Y-99202535D01*
X134715465Y-99397120D01*
X134944273Y-99550005D01*
X135021515Y-99582000D01*
X134944273Y-99613995D01*
X134715465Y-99766880D01*
X134520880Y-99961465D01*
X134367995Y-100190273D01*
X134262686Y-100444510D01*
X134209000Y-100714408D01*
X134209000Y-100989592D01*
X134262686Y-101259490D01*
X134367995Y-101513727D01*
X134520880Y-101742535D01*
X134715465Y-101937120D01*
X134944273Y-102090005D01*
X135021515Y-102122000D01*
X134944273Y-102153995D01*
X134715465Y-102306880D01*
X134520880Y-102501465D01*
X134367995Y-102730273D01*
X134262686Y-102984510D01*
X134209000Y-103254408D01*
X134209000Y-103529592D01*
X134262686Y-103799490D01*
X134367995Y-104053727D01*
X134520880Y-104282535D01*
X134715465Y-104477120D01*
X134944273Y-104630005D01*
X135021515Y-104662000D01*
X134944273Y-104693995D01*
X134715465Y-104846880D01*
X134520880Y-105041465D01*
X134367995Y-105270273D01*
X134262686Y-105524510D01*
X134209000Y-105794408D01*
X134209000Y-106069592D01*
X134262686Y-106339490D01*
X134367995Y-106593727D01*
X134520880Y-106822535D01*
X134715465Y-107017120D01*
X134944273Y-107170005D01*
X135021515Y-107202000D01*
X134944273Y-107233995D01*
X134715465Y-107386880D01*
X134520880Y-107581465D01*
X134367995Y-107810273D01*
X134262686Y-108064510D01*
X134209000Y-108334408D01*
X134209000Y-108609592D01*
X134262686Y-108879490D01*
X134367995Y-109133727D01*
X134520880Y-109362535D01*
X134715465Y-109557120D01*
X134944273Y-109710005D01*
X135021515Y-109742000D01*
X134944273Y-109773995D01*
X134715465Y-109926880D01*
X134520880Y-110121465D01*
X134367995Y-110350273D01*
X134262686Y-110604510D01*
X134209000Y-110874408D01*
X134209000Y-111149592D01*
X134262686Y-111419490D01*
X134367995Y-111673727D01*
X134520880Y-111902535D01*
X134715465Y-112097120D01*
X134944273Y-112250005D01*
X135021515Y-112282000D01*
X134944273Y-112313995D01*
X134715465Y-112466880D01*
X134520880Y-112661465D01*
X134367995Y-112890273D01*
X134262686Y-113144510D01*
X134209000Y-113414408D01*
X134209000Y-113689592D01*
X134262686Y-113959490D01*
X134367995Y-114213727D01*
X134520880Y-114442535D01*
X134715465Y-114637120D01*
X134944273Y-114790005D01*
X135021515Y-114822000D01*
X134944273Y-114853995D01*
X134715465Y-115006880D01*
X134520880Y-115201465D01*
X134367995Y-115430273D01*
X134262686Y-115684510D01*
X134209000Y-115954408D01*
X134209000Y-116229592D01*
X134262686Y-116499490D01*
X134367995Y-116753727D01*
X134520880Y-116982535D01*
X134715465Y-117177120D01*
X134944273Y-117330005D01*
X135198510Y-117435314D01*
X135468408Y-117489000D01*
X135743592Y-117489000D01*
X136013490Y-117435314D01*
X136267727Y-117330005D01*
X136496535Y-117177120D01*
X136691120Y-116982535D01*
X136844005Y-116753727D01*
X136949314Y-116499490D01*
X137003000Y-116229592D01*
X137003000Y-115954408D01*
X136949314Y-115684510D01*
X136844005Y-115430273D01*
X136691120Y-115201465D01*
X136496535Y-115006880D01*
X136267727Y-114853995D01*
X136190485Y-114822000D01*
X136267727Y-114790005D01*
X136496535Y-114637120D01*
X136691120Y-114442535D01*
X136844005Y-114213727D01*
X136949314Y-113959490D01*
X137003000Y-113689592D01*
X137003000Y-113414408D01*
X136949314Y-113144510D01*
X136844005Y-112890273D01*
X136691120Y-112661465D01*
X136496535Y-112466880D01*
X136267727Y-112313995D01*
X136190485Y-112282000D01*
X136267727Y-112250005D01*
X136496535Y-112097120D01*
X136691120Y-111902535D01*
X136844005Y-111673727D01*
X136949314Y-111419490D01*
X137003000Y-111149592D01*
X137003000Y-110874408D01*
X136949314Y-110604510D01*
X136844005Y-110350273D01*
X136691120Y-110121465D01*
X136496535Y-109926880D01*
X136267727Y-109773995D01*
X136190485Y-109742000D01*
X136267727Y-109710005D01*
X136496535Y-109557120D01*
X136691120Y-109362535D01*
X136844005Y-109133727D01*
X136949314Y-108879490D01*
X137003000Y-108609592D01*
X137003000Y-108334408D01*
X136949314Y-108064510D01*
X136844005Y-107810273D01*
X136691120Y-107581465D01*
X136496535Y-107386880D01*
X136267727Y-107233995D01*
X136190485Y-107202000D01*
X136267727Y-107170005D01*
X136496535Y-107017120D01*
X136691120Y-106822535D01*
X136844005Y-106593727D01*
X136949314Y-106339490D01*
X137003000Y-106069592D01*
X137003000Y-105794408D01*
X136949314Y-105524510D01*
X136844005Y-105270273D01*
X136691120Y-105041465D01*
X136496535Y-104846880D01*
X136267727Y-104693995D01*
X136190485Y-104662000D01*
X136267727Y-104630005D01*
X136496535Y-104477120D01*
X136691120Y-104282535D01*
X136844005Y-104053727D01*
X136949314Y-103799490D01*
X137003000Y-103529592D01*
X137003000Y-103254408D01*
X136949314Y-102984510D01*
X136844005Y-102730273D01*
X136691120Y-102501465D01*
X136496535Y-102306880D01*
X136267727Y-102153995D01*
X136190485Y-102122000D01*
X136267727Y-102090005D01*
X136496535Y-101937120D01*
X136691120Y-101742535D01*
X136844005Y-101513727D01*
X136949314Y-101259490D01*
X137003000Y-100989592D01*
X137003000Y-100714408D01*
X136949314Y-100444510D01*
X136844005Y-100190273D01*
X136691120Y-99961465D01*
X136496535Y-99766880D01*
X136267727Y-99613995D01*
X136190485Y-99582000D01*
X136267727Y-99550005D01*
X136496535Y-99397120D01*
X136691120Y-99202535D01*
X136844005Y-98973727D01*
X136949314Y-98719490D01*
X137003000Y-98449592D01*
X137003000Y-98174408D01*
X136949314Y-97904510D01*
X136844005Y-97650273D01*
X136691120Y-97421465D01*
X136496535Y-97226880D01*
X136267727Y-97073995D01*
X136190485Y-97042000D01*
X136267727Y-97010005D01*
X136496535Y-96857120D01*
X136691120Y-96662535D01*
X136844005Y-96433727D01*
X136949314Y-96179490D01*
X137003000Y-95909592D01*
X137003000Y-95634408D01*
X136949314Y-95364510D01*
X136844005Y-95110273D01*
X136691120Y-94881465D01*
X136496535Y-94686880D01*
X136267727Y-94533995D01*
X136190485Y-94502000D01*
X136267727Y-94470005D01*
X136496535Y-94317120D01*
X136691120Y-94122535D01*
X136844005Y-93893727D01*
X136949314Y-93639490D01*
X137003000Y-93369592D01*
X137003000Y-93094408D01*
X136949314Y-92824510D01*
X136844005Y-92570273D01*
X136691120Y-92341465D01*
X136496535Y-92146880D01*
X136267727Y-91993995D01*
X136190485Y-91962000D01*
X136267727Y-91930005D01*
X136496535Y-91777120D01*
X136691120Y-91582535D01*
X136844005Y-91353727D01*
X136949314Y-91099490D01*
X137003000Y-90829592D01*
X137003000Y-90554408D01*
X136949314Y-90284510D01*
X136844005Y-90030273D01*
X136691120Y-89801465D01*
X136496535Y-89606880D01*
X136267727Y-89453995D01*
X136190485Y-89422000D01*
X136267727Y-89390005D01*
X136496535Y-89237120D01*
X136691120Y-89042535D01*
X136844005Y-88813727D01*
X136949314Y-88559490D01*
X137003000Y-88289592D01*
X137003000Y-88014408D01*
X136949314Y-87744510D01*
X136844005Y-87490273D01*
X136691120Y-87261465D01*
X136496535Y-87066880D01*
X136267727Y-86913995D01*
X136190485Y-86882000D01*
X136267727Y-86850005D01*
X136496535Y-86697120D01*
X136691120Y-86502535D01*
X136844005Y-86273727D01*
X136949314Y-86019490D01*
X137003000Y-85749592D01*
X137003000Y-85474408D01*
X136949314Y-85204510D01*
X136844005Y-84950273D01*
X136691120Y-84721465D01*
X136496535Y-84526880D01*
X136267727Y-84373995D01*
X136196057Y-84344308D01*
X136209023Y-84339636D01*
X136324980Y-84277656D01*
X136391960Y-84037565D01*
X135606000Y-83251605D01*
X134820040Y-84037565D01*
X134887020Y-84277656D01*
X135022760Y-84341485D01*
X134944273Y-84373995D01*
X134715465Y-84526880D01*
X134520880Y-84721465D01*
X134367995Y-84950273D01*
X134262686Y-85204510D01*
X134209000Y-85474408D01*
X92286000Y-85474408D01*
X92286000Y-72404000D01*
X93565928Y-72404000D01*
X93578188Y-72528482D01*
X93614498Y-72648180D01*
X93673463Y-72758494D01*
X93752815Y-72855185D01*
X93849506Y-72934537D01*
X93959820Y-72993502D01*
X94079518Y-73029812D01*
X94163465Y-73038080D01*
X94075465Y-73096880D01*
X93880880Y-73291465D01*
X93727995Y-73520273D01*
X93622686Y-73774510D01*
X93569000Y-74044408D01*
X93569000Y-74319592D01*
X93622686Y-74589490D01*
X93727995Y-74843727D01*
X93880880Y-75072535D01*
X94075465Y-75267120D01*
X94304273Y-75420005D01*
X94381515Y-75452000D01*
X94304273Y-75483995D01*
X94075465Y-75636880D01*
X93880880Y-75831465D01*
X93727995Y-76060273D01*
X93622686Y-76314510D01*
X93569000Y-76584408D01*
X93569000Y-76859592D01*
X93622686Y-77129490D01*
X93727995Y-77383727D01*
X93880880Y-77612535D01*
X94075465Y-77807120D01*
X94304273Y-77960005D01*
X94381515Y-77992000D01*
X94304273Y-78023995D01*
X94075465Y-78176880D01*
X93880880Y-78371465D01*
X93727995Y-78600273D01*
X93622686Y-78854510D01*
X93569000Y-79124408D01*
X93569000Y-79399592D01*
X93622686Y-79669490D01*
X93727995Y-79923727D01*
X93880880Y-80152535D01*
X94075465Y-80347120D01*
X94304273Y-80500005D01*
X94381515Y-80532000D01*
X94304273Y-80563995D01*
X94075465Y-80716880D01*
X93880880Y-80911465D01*
X93727995Y-81140273D01*
X93622686Y-81394510D01*
X93569000Y-81664408D01*
X93569000Y-81939592D01*
X93622686Y-82209490D01*
X93727995Y-82463727D01*
X93880880Y-82692535D01*
X94075465Y-82887120D01*
X94304273Y-83040005D01*
X94558510Y-83145314D01*
X94828408Y-83199000D01*
X95103592Y-83199000D01*
X95373490Y-83145314D01*
X95376621Y-83144017D01*
X134204090Y-83144017D01*
X134245078Y-83416133D01*
X134338364Y-83675023D01*
X134400344Y-83790980D01*
X134640435Y-83857960D01*
X135426395Y-83072000D01*
X135785605Y-83072000D01*
X136571565Y-83857960D01*
X136811656Y-83790980D01*
X136928756Y-83541952D01*
X136995023Y-83274865D01*
X137007910Y-82999983D01*
X136966922Y-82727867D01*
X136873636Y-82468977D01*
X136811656Y-82353020D01*
X136571565Y-82286040D01*
X135785605Y-83072000D01*
X135426395Y-83072000D01*
X134640435Y-82286040D01*
X134400344Y-82353020D01*
X134283244Y-82602048D01*
X134216977Y-82869135D01*
X134204090Y-83144017D01*
X95376621Y-83144017D01*
X95627727Y-83040005D01*
X95856535Y-82887120D01*
X96051120Y-82692535D01*
X96204005Y-82463727D01*
X96309314Y-82209490D01*
X96363000Y-81939592D01*
X96363000Y-81664408D01*
X96309314Y-81394510D01*
X96204005Y-81140273D01*
X96051120Y-80911465D01*
X95856535Y-80716880D01*
X95627727Y-80563995D01*
X95550485Y-80532000D01*
X95627727Y-80500005D01*
X95856535Y-80347120D01*
X96051120Y-80152535D01*
X96204005Y-79923727D01*
X96309314Y-79669490D01*
X96312750Y-79652212D01*
X121720959Y-79652212D01*
X121720959Y-79875788D01*
X121764576Y-80095067D01*
X121850135Y-80301624D01*
X121974347Y-80487520D01*
X122132439Y-80645612D01*
X122318335Y-80769824D01*
X122524892Y-80855383D01*
X122744171Y-80899000D01*
X122967747Y-80899000D01*
X123187026Y-80855383D01*
X123393583Y-80769824D01*
X123579479Y-80645612D01*
X123737571Y-80487520D01*
X123799786Y-80394408D01*
X134209000Y-80394408D01*
X134209000Y-80669592D01*
X134262686Y-80939490D01*
X134367995Y-81193727D01*
X134520880Y-81422535D01*
X134715465Y-81617120D01*
X134944273Y-81770005D01*
X135015943Y-81799692D01*
X135002977Y-81804364D01*
X134887020Y-81866344D01*
X134820040Y-82106435D01*
X135606000Y-82892395D01*
X136391960Y-82106435D01*
X136324980Y-81866344D01*
X136189240Y-81802515D01*
X136267727Y-81770005D01*
X136496535Y-81617120D01*
X136691120Y-81422535D01*
X136844005Y-81193727D01*
X136949314Y-80939490D01*
X137003000Y-80669592D01*
X137003000Y-80394408D01*
X136949314Y-80124510D01*
X136844005Y-79870273D01*
X136777005Y-79770000D01*
X138015928Y-79770000D01*
X138015928Y-81294000D01*
X138028188Y-81418482D01*
X138064498Y-81538180D01*
X138123463Y-81648494D01*
X138202815Y-81745185D01*
X138299506Y-81824537D01*
X138409820Y-81883502D01*
X138529518Y-81919812D01*
X138613465Y-81928080D01*
X138525465Y-81986880D01*
X138330880Y-82181465D01*
X138177995Y-82410273D01*
X138072686Y-82664510D01*
X138019000Y-82934408D01*
X138019000Y-83209592D01*
X138072686Y-83479490D01*
X138177995Y-83733727D01*
X138330880Y-83962535D01*
X138525465Y-84157120D01*
X138754273Y-84310005D01*
X138831515Y-84342000D01*
X138754273Y-84373995D01*
X138525465Y-84526880D01*
X138330880Y-84721465D01*
X138177995Y-84950273D01*
X138072686Y-85204510D01*
X138019000Y-85474408D01*
X138019000Y-85749592D01*
X138072686Y-86019490D01*
X138177995Y-86273727D01*
X138330880Y-86502535D01*
X138525465Y-86697120D01*
X138754273Y-86850005D01*
X138831515Y-86882000D01*
X138754273Y-86913995D01*
X138525465Y-87066880D01*
X138330880Y-87261465D01*
X138177995Y-87490273D01*
X138072686Y-87744510D01*
X138019000Y-88014408D01*
X138019000Y-88289592D01*
X138072686Y-88559490D01*
X138177995Y-88813727D01*
X138330880Y-89042535D01*
X138525465Y-89237120D01*
X138754273Y-89390005D01*
X138831515Y-89422000D01*
X138754273Y-89453995D01*
X138525465Y-89606880D01*
X138330880Y-89801465D01*
X138177995Y-90030273D01*
X138072686Y-90284510D01*
X138019000Y-90554408D01*
X138019000Y-90829592D01*
X138072686Y-91099490D01*
X138177995Y-91353727D01*
X138330880Y-91582535D01*
X138525465Y-91777120D01*
X138754273Y-91930005D01*
X138831515Y-91962000D01*
X138754273Y-91993995D01*
X138525465Y-92146880D01*
X138330880Y-92341465D01*
X138177995Y-92570273D01*
X138072686Y-92824510D01*
X138019000Y-93094408D01*
X138019000Y-93369592D01*
X138072686Y-93639490D01*
X138177995Y-93893727D01*
X138330880Y-94122535D01*
X138525465Y-94317120D01*
X138754273Y-94470005D01*
X138831515Y-94502000D01*
X138754273Y-94533995D01*
X138525465Y-94686880D01*
X138330880Y-94881465D01*
X138177995Y-95110273D01*
X138072686Y-95364510D01*
X138019000Y-95634408D01*
X138019000Y-95909592D01*
X138072686Y-96179490D01*
X138177995Y-96433727D01*
X138330880Y-96662535D01*
X138525465Y-96857120D01*
X138754273Y-97010005D01*
X138831515Y-97042000D01*
X138754273Y-97073995D01*
X138525465Y-97226880D01*
X138330880Y-97421465D01*
X138177995Y-97650273D01*
X138072686Y-97904510D01*
X138019000Y-98174408D01*
X138019000Y-98449592D01*
X138072686Y-98719490D01*
X138177995Y-98973727D01*
X138330880Y-99202535D01*
X138525465Y-99397120D01*
X138754273Y-99550005D01*
X138831515Y-99582000D01*
X138754273Y-99613995D01*
X138525465Y-99766880D01*
X138330880Y-99961465D01*
X138177995Y-100190273D01*
X138072686Y-100444510D01*
X138019000Y-100714408D01*
X138019000Y-100989592D01*
X138072686Y-101259490D01*
X138177995Y-101513727D01*
X138330880Y-101742535D01*
X138525465Y-101937120D01*
X138754273Y-102090005D01*
X138831515Y-102122000D01*
X138754273Y-102153995D01*
X138525465Y-102306880D01*
X138330880Y-102501465D01*
X138177995Y-102730273D01*
X138072686Y-102984510D01*
X138019000Y-103254408D01*
X138019000Y-103529592D01*
X138072686Y-103799490D01*
X138177995Y-104053727D01*
X138330880Y-104282535D01*
X138525465Y-104477120D01*
X138754273Y-104630005D01*
X138831515Y-104662000D01*
X138754273Y-104693995D01*
X138525465Y-104846880D01*
X138330880Y-105041465D01*
X138177995Y-105270273D01*
X138072686Y-105524510D01*
X138019000Y-105794408D01*
X138019000Y-106069592D01*
X138072686Y-106339490D01*
X138177995Y-106593727D01*
X138330880Y-106822535D01*
X138525465Y-107017120D01*
X138754273Y-107170005D01*
X138831515Y-107202000D01*
X138754273Y-107233995D01*
X138525465Y-107386880D01*
X138330880Y-107581465D01*
X138177995Y-107810273D01*
X138072686Y-108064510D01*
X138019000Y-108334408D01*
X138019000Y-108609592D01*
X138072686Y-108879490D01*
X138177995Y-109133727D01*
X138330880Y-109362535D01*
X138525465Y-109557120D01*
X138754273Y-109710005D01*
X138831515Y-109742000D01*
X138754273Y-109773995D01*
X138525465Y-109926880D01*
X138330880Y-110121465D01*
X138177995Y-110350273D01*
X138072686Y-110604510D01*
X138019000Y-110874408D01*
X138019000Y-111149592D01*
X138072686Y-111419490D01*
X138177995Y-111673727D01*
X138330880Y-111902535D01*
X138525465Y-112097120D01*
X138754273Y-112250005D01*
X138831515Y-112282000D01*
X138754273Y-112313995D01*
X138525465Y-112466880D01*
X138330880Y-112661465D01*
X138177995Y-112890273D01*
X138072686Y-113144510D01*
X138019000Y-113414408D01*
X138019000Y-113689592D01*
X138072686Y-113959490D01*
X138177995Y-114213727D01*
X138330880Y-114442535D01*
X138525465Y-114637120D01*
X138754273Y-114790005D01*
X139008510Y-114895314D01*
X139278408Y-114949000D01*
X139553592Y-114949000D01*
X139643132Y-114931189D01*
X139570176Y-115040376D01*
X139484617Y-115246933D01*
X139441000Y-115466212D01*
X139441000Y-115689788D01*
X139484617Y-115909067D01*
X139570176Y-116115624D01*
X139694388Y-116301520D01*
X139852480Y-116459612D01*
X140038376Y-116583824D01*
X140244933Y-116669383D01*
X140464212Y-116713000D01*
X140687788Y-116713000D01*
X140907067Y-116669383D01*
X141113624Y-116583824D01*
X141299520Y-116459612D01*
X141457612Y-116301520D01*
X141581824Y-116115624D01*
X141667383Y-115909067D01*
X141711000Y-115689788D01*
X141711000Y-115466212D01*
X141667383Y-115246933D01*
X141581824Y-115040376D01*
X141457612Y-114854480D01*
X141299520Y-114696388D01*
X141113624Y-114572176D01*
X140907067Y-114486617D01*
X140687788Y-114443000D01*
X140500655Y-114443000D01*
X140501120Y-114442535D01*
X140654005Y-114213727D01*
X140759314Y-113959490D01*
X140813000Y-113689592D01*
X140813000Y-113414408D01*
X140759314Y-113144510D01*
X140654005Y-112890273D01*
X140501120Y-112661465D01*
X140306535Y-112466880D01*
X140077727Y-112313995D01*
X140000485Y-112282000D01*
X140077727Y-112250005D01*
X140306535Y-112097120D01*
X140501120Y-111902535D01*
X140654005Y-111673727D01*
X140759314Y-111419490D01*
X140813000Y-111149592D01*
X140813000Y-110874408D01*
X140759314Y-110604510D01*
X140654005Y-110350273D01*
X140501120Y-110121465D01*
X140306535Y-109926880D01*
X140077727Y-109773995D01*
X140000485Y-109742000D01*
X140077727Y-109710005D01*
X140306535Y-109557120D01*
X140501120Y-109362535D01*
X140654005Y-109133727D01*
X140759314Y-108879490D01*
X140813000Y-108609592D01*
X140813000Y-108334408D01*
X140759314Y-108064510D01*
X140654005Y-107810273D01*
X140501120Y-107581465D01*
X140306535Y-107386880D01*
X140077727Y-107233995D01*
X140000485Y-107202000D01*
X140077727Y-107170005D01*
X140306535Y-107017120D01*
X140501120Y-106822535D01*
X140654005Y-106593727D01*
X140759314Y-106339490D01*
X140813000Y-106069592D01*
X140813000Y-105794408D01*
X140759314Y-105524510D01*
X140654005Y-105270273D01*
X140501120Y-105041465D01*
X140306535Y-104846880D01*
X140077727Y-104693995D01*
X140000485Y-104662000D01*
X140077727Y-104630005D01*
X140306535Y-104477120D01*
X140501120Y-104282535D01*
X140654005Y-104053727D01*
X140759314Y-103799490D01*
X140813000Y-103529592D01*
X140813000Y-103254408D01*
X140759314Y-102984510D01*
X140654005Y-102730273D01*
X140501120Y-102501465D01*
X140306535Y-102306880D01*
X140077727Y-102153995D01*
X140000485Y-102122000D01*
X140077727Y-102090005D01*
X140306535Y-101937120D01*
X140501120Y-101742535D01*
X140654005Y-101513727D01*
X140759314Y-101259490D01*
X140813000Y-100989592D01*
X140813000Y-100714408D01*
X140759314Y-100444510D01*
X140654005Y-100190273D01*
X140501120Y-99961465D01*
X140306535Y-99766880D01*
X140077727Y-99613995D01*
X140000485Y-99582000D01*
X140077727Y-99550005D01*
X140306535Y-99397120D01*
X140501120Y-99202535D01*
X140654005Y-98973727D01*
X140759314Y-98719490D01*
X140813000Y-98449592D01*
X140813000Y-98174408D01*
X140759314Y-97904510D01*
X140654005Y-97650273D01*
X140501120Y-97421465D01*
X140306535Y-97226880D01*
X140077727Y-97073995D01*
X140000485Y-97042000D01*
X140077727Y-97010005D01*
X140306535Y-96857120D01*
X140501120Y-96662535D01*
X140654005Y-96433727D01*
X140759314Y-96179490D01*
X140813000Y-95909592D01*
X140813000Y-95634408D01*
X140759314Y-95364510D01*
X140654005Y-95110273D01*
X140501120Y-94881465D01*
X140306535Y-94686880D01*
X140077727Y-94533995D01*
X140000485Y-94502000D01*
X140077727Y-94470005D01*
X140306535Y-94317120D01*
X140501120Y-94122535D01*
X140654005Y-93893727D01*
X140759314Y-93639490D01*
X140813000Y-93369592D01*
X140813000Y-93094408D01*
X140759314Y-92824510D01*
X140654005Y-92570273D01*
X140501120Y-92341465D01*
X140306535Y-92146880D01*
X140077727Y-91993995D01*
X140000485Y-91962000D01*
X140077727Y-91930005D01*
X140306535Y-91777120D01*
X140501120Y-91582535D01*
X140654005Y-91353727D01*
X140759314Y-91099490D01*
X140813000Y-90829592D01*
X140813000Y-90554408D01*
X140759314Y-90284510D01*
X140654005Y-90030273D01*
X140501120Y-89801465D01*
X140306535Y-89606880D01*
X140077727Y-89453995D01*
X140000485Y-89422000D01*
X140077727Y-89390005D01*
X140306535Y-89237120D01*
X140501120Y-89042535D01*
X140654005Y-88813727D01*
X140759314Y-88559490D01*
X140813000Y-88289592D01*
X140813000Y-88014408D01*
X140759314Y-87744510D01*
X140654005Y-87490273D01*
X140501120Y-87261465D01*
X140306535Y-87066880D01*
X140077727Y-86913995D01*
X140000485Y-86882000D01*
X140077727Y-86850005D01*
X140306535Y-86697120D01*
X140501120Y-86502535D01*
X140654005Y-86273727D01*
X140759314Y-86019490D01*
X140813000Y-85749592D01*
X140813000Y-85474408D01*
X155799000Y-85474408D01*
X155799000Y-85749592D01*
X155852686Y-86019490D01*
X155957995Y-86273727D01*
X156110880Y-86502535D01*
X156305465Y-86697120D01*
X156534273Y-86850005D01*
X156611515Y-86882000D01*
X156534273Y-86913995D01*
X156305465Y-87066880D01*
X156110880Y-87261465D01*
X155957995Y-87490273D01*
X155852686Y-87744510D01*
X155799000Y-88014408D01*
X155799000Y-88289592D01*
X155852686Y-88559490D01*
X155957995Y-88813727D01*
X156110880Y-89042535D01*
X156305465Y-89237120D01*
X156534273Y-89390005D01*
X156611515Y-89422000D01*
X156534273Y-89453995D01*
X156305465Y-89606880D01*
X156110880Y-89801465D01*
X155957995Y-90030273D01*
X155852686Y-90284510D01*
X155799000Y-90554408D01*
X155799000Y-90829592D01*
X155852686Y-91099490D01*
X155957995Y-91353727D01*
X156110880Y-91582535D01*
X156305465Y-91777120D01*
X156534273Y-91930005D01*
X156611515Y-91962000D01*
X156534273Y-91993995D01*
X156305465Y-92146880D01*
X156110880Y-92341465D01*
X155957995Y-92570273D01*
X155852686Y-92824510D01*
X155799000Y-93094408D01*
X155799000Y-93369592D01*
X155852686Y-93639490D01*
X155957995Y-93893727D01*
X156110880Y-94122535D01*
X156305465Y-94317120D01*
X156534273Y-94470005D01*
X156611515Y-94502000D01*
X156534273Y-94533995D01*
X156305465Y-94686880D01*
X156110880Y-94881465D01*
X155957995Y-95110273D01*
X155852686Y-95364510D01*
X155799000Y-95634408D01*
X155799000Y-95909592D01*
X155852686Y-96179490D01*
X155957995Y-96433727D01*
X156110880Y-96662535D01*
X156305465Y-96857120D01*
X156534273Y-97010005D01*
X156611515Y-97042000D01*
X156534273Y-97073995D01*
X156305465Y-97226880D01*
X156110880Y-97421465D01*
X155957995Y-97650273D01*
X155852686Y-97904510D01*
X155799000Y-98174408D01*
X155799000Y-98449592D01*
X155852686Y-98719490D01*
X155957995Y-98973727D01*
X156110880Y-99202535D01*
X156305465Y-99397120D01*
X156534273Y-99550005D01*
X156611515Y-99582000D01*
X156534273Y-99613995D01*
X156305465Y-99766880D01*
X156110880Y-99961465D01*
X155957995Y-100190273D01*
X155852686Y-100444510D01*
X155799000Y-100714408D01*
X155799000Y-100989592D01*
X155852686Y-101259490D01*
X155957995Y-101513727D01*
X156110880Y-101742535D01*
X156305465Y-101937120D01*
X156534273Y-102090005D01*
X156611515Y-102122000D01*
X156534273Y-102153995D01*
X156305465Y-102306880D01*
X156110880Y-102501465D01*
X155957995Y-102730273D01*
X155852686Y-102984510D01*
X155799000Y-103254408D01*
X155799000Y-103529592D01*
X155852686Y-103799490D01*
X155957995Y-104053727D01*
X156110880Y-104282535D01*
X156305465Y-104477120D01*
X156534273Y-104630005D01*
X156611515Y-104662000D01*
X156534273Y-104693995D01*
X156305465Y-104846880D01*
X156110880Y-105041465D01*
X155957995Y-105270273D01*
X155852686Y-105524510D01*
X155799000Y-105794408D01*
X155799000Y-106069592D01*
X155852686Y-106339490D01*
X155957995Y-106593727D01*
X156110880Y-106822535D01*
X156305465Y-107017120D01*
X156534273Y-107170005D01*
X156611515Y-107202000D01*
X156534273Y-107233995D01*
X156305465Y-107386880D01*
X156110880Y-107581465D01*
X155957995Y-107810273D01*
X155852686Y-108064510D01*
X155799000Y-108334408D01*
X155799000Y-108609592D01*
X155852686Y-108879490D01*
X155957995Y-109133727D01*
X156110880Y-109362535D01*
X156305465Y-109557120D01*
X156534273Y-109710005D01*
X156611515Y-109742000D01*
X156534273Y-109773995D01*
X156305465Y-109926880D01*
X156110880Y-110121465D01*
X155957995Y-110350273D01*
X155852686Y-110604510D01*
X155799000Y-110874408D01*
X155799000Y-111149592D01*
X155852686Y-111419490D01*
X155957995Y-111673727D01*
X156110880Y-111902535D01*
X156305465Y-112097120D01*
X156534273Y-112250005D01*
X156611515Y-112282000D01*
X156534273Y-112313995D01*
X156305465Y-112466880D01*
X156110880Y-112661465D01*
X155957995Y-112890273D01*
X155852686Y-113144510D01*
X155799000Y-113414408D01*
X155799000Y-113689592D01*
X155852686Y-113959490D01*
X155957995Y-114213727D01*
X156110880Y-114442535D01*
X156305465Y-114637120D01*
X156534273Y-114790005D01*
X156788510Y-114895314D01*
X157058408Y-114949000D01*
X157333592Y-114949000D01*
X157603490Y-114895314D01*
X157857727Y-114790005D01*
X158086535Y-114637120D01*
X158281120Y-114442535D01*
X158434005Y-114213727D01*
X158539314Y-113959490D01*
X158593000Y-113689592D01*
X158593000Y-113414408D01*
X158539314Y-113144510D01*
X158434005Y-112890273D01*
X158281120Y-112661465D01*
X158086535Y-112466880D01*
X157857727Y-112313995D01*
X157780485Y-112282000D01*
X157857727Y-112250005D01*
X158086535Y-112097120D01*
X158281120Y-111902535D01*
X158434005Y-111673727D01*
X158539314Y-111419490D01*
X158593000Y-111149592D01*
X158593000Y-110874408D01*
X158539314Y-110604510D01*
X158434005Y-110350273D01*
X158281120Y-110121465D01*
X158086535Y-109926880D01*
X157857727Y-109773995D01*
X157780485Y-109742000D01*
X157857727Y-109710005D01*
X158086535Y-109557120D01*
X158281120Y-109362535D01*
X158434005Y-109133727D01*
X158539314Y-108879490D01*
X158593000Y-108609592D01*
X158593000Y-108334408D01*
X158539314Y-108064510D01*
X158434005Y-107810273D01*
X158281120Y-107581465D01*
X158086535Y-107386880D01*
X157857727Y-107233995D01*
X157780485Y-107202000D01*
X157857727Y-107170005D01*
X158086535Y-107017120D01*
X158281120Y-106822535D01*
X158434005Y-106593727D01*
X158539314Y-106339490D01*
X158593000Y-106069592D01*
X158593000Y-105794408D01*
X158539314Y-105524510D01*
X158434005Y-105270273D01*
X158281120Y-105041465D01*
X158086535Y-104846880D01*
X157857727Y-104693995D01*
X157780485Y-104662000D01*
X157857727Y-104630005D01*
X158086535Y-104477120D01*
X158281120Y-104282535D01*
X158434005Y-104053727D01*
X158539314Y-103799490D01*
X158593000Y-103529592D01*
X158593000Y-103254408D01*
X158539314Y-102984510D01*
X158434005Y-102730273D01*
X158281120Y-102501465D01*
X158086535Y-102306880D01*
X157857727Y-102153995D01*
X157780485Y-102122000D01*
X157857727Y-102090005D01*
X158086535Y-101937120D01*
X158281120Y-101742535D01*
X158434005Y-101513727D01*
X158539314Y-101259490D01*
X158593000Y-100989592D01*
X158593000Y-100714408D01*
X158539314Y-100444510D01*
X158434005Y-100190273D01*
X158281120Y-99961465D01*
X158086535Y-99766880D01*
X157857727Y-99613995D01*
X157780485Y-99582000D01*
X157857727Y-99550005D01*
X158086535Y-99397120D01*
X158281120Y-99202535D01*
X158434005Y-98973727D01*
X158539314Y-98719490D01*
X158593000Y-98449592D01*
X158593000Y-98174408D01*
X158539314Y-97904510D01*
X158434005Y-97650273D01*
X158281120Y-97421465D01*
X158086535Y-97226880D01*
X157857727Y-97073995D01*
X157780485Y-97042000D01*
X157857727Y-97010005D01*
X158086535Y-96857120D01*
X158281120Y-96662535D01*
X158434005Y-96433727D01*
X158539314Y-96179490D01*
X158593000Y-95909592D01*
X158593000Y-95634408D01*
X158539314Y-95364510D01*
X158434005Y-95110273D01*
X158281120Y-94881465D01*
X158086535Y-94686880D01*
X157857727Y-94533995D01*
X157780485Y-94502000D01*
X157857727Y-94470005D01*
X158086535Y-94317120D01*
X158281120Y-94122535D01*
X158434005Y-93893727D01*
X158539314Y-93639490D01*
X158593000Y-93369592D01*
X158593000Y-93094408D01*
X158539314Y-92824510D01*
X158434005Y-92570273D01*
X158281120Y-92341465D01*
X158086535Y-92146880D01*
X157857727Y-91993995D01*
X157780485Y-91962000D01*
X157857727Y-91930005D01*
X158086535Y-91777120D01*
X158281120Y-91582535D01*
X158434005Y-91353727D01*
X158539314Y-91099490D01*
X158593000Y-90829592D01*
X158593000Y-90554408D01*
X158539314Y-90284510D01*
X158434005Y-90030273D01*
X158281120Y-89801465D01*
X158086535Y-89606880D01*
X157857727Y-89453995D01*
X157780485Y-89422000D01*
X157857727Y-89390005D01*
X158086535Y-89237120D01*
X158281120Y-89042535D01*
X158434005Y-88813727D01*
X158539314Y-88559490D01*
X158593000Y-88289592D01*
X158593000Y-88014408D01*
X158539314Y-87744510D01*
X158434005Y-87490273D01*
X158281120Y-87261465D01*
X158086535Y-87066880D01*
X157857727Y-86913995D01*
X157780485Y-86882000D01*
X157857727Y-86850005D01*
X158086535Y-86697120D01*
X158281120Y-86502535D01*
X158434005Y-86273727D01*
X158539314Y-86019490D01*
X158593000Y-85749592D01*
X158593000Y-85474408D01*
X159609000Y-85474408D01*
X159609000Y-85749592D01*
X159662686Y-86019490D01*
X159767995Y-86273727D01*
X159920880Y-86502535D01*
X160115465Y-86697120D01*
X160344273Y-86850005D01*
X160421515Y-86882000D01*
X160344273Y-86913995D01*
X160115465Y-87066880D01*
X159920880Y-87261465D01*
X159767995Y-87490273D01*
X159662686Y-87744510D01*
X159609000Y-88014408D01*
X159609000Y-88289592D01*
X159662686Y-88559490D01*
X159767995Y-88813727D01*
X159920880Y-89042535D01*
X160115465Y-89237120D01*
X160344273Y-89390005D01*
X160421515Y-89422000D01*
X160344273Y-89453995D01*
X160115465Y-89606880D01*
X159920880Y-89801465D01*
X159767995Y-90030273D01*
X159662686Y-90284510D01*
X159609000Y-90554408D01*
X159609000Y-90829592D01*
X159662686Y-91099490D01*
X159767995Y-91353727D01*
X159920880Y-91582535D01*
X160115465Y-91777120D01*
X160344273Y-91930005D01*
X160421515Y-91962000D01*
X160344273Y-91993995D01*
X160115465Y-92146880D01*
X159920880Y-92341465D01*
X159767995Y-92570273D01*
X159662686Y-92824510D01*
X159609000Y-93094408D01*
X159609000Y-93369592D01*
X159662686Y-93639490D01*
X159767995Y-93893727D01*
X159920880Y-94122535D01*
X160115465Y-94317120D01*
X160344273Y-94470005D01*
X160421515Y-94502000D01*
X160344273Y-94533995D01*
X160115465Y-94686880D01*
X159920880Y-94881465D01*
X159767995Y-95110273D01*
X159662686Y-95364510D01*
X159609000Y-95634408D01*
X159609000Y-95909592D01*
X159662686Y-96179490D01*
X159767995Y-96433727D01*
X159920880Y-96662535D01*
X160115465Y-96857120D01*
X160344273Y-97010005D01*
X160421515Y-97042000D01*
X160344273Y-97073995D01*
X160115465Y-97226880D01*
X159920880Y-97421465D01*
X159767995Y-97650273D01*
X159662686Y-97904510D01*
X159609000Y-98174408D01*
X159609000Y-98449592D01*
X159662686Y-98719490D01*
X159767995Y-98973727D01*
X159920880Y-99202535D01*
X160115465Y-99397120D01*
X160344273Y-99550005D01*
X160421515Y-99582000D01*
X160344273Y-99613995D01*
X160115465Y-99766880D01*
X159920880Y-99961465D01*
X159767995Y-100190273D01*
X159662686Y-100444510D01*
X159609000Y-100714408D01*
X159609000Y-100989592D01*
X159662686Y-101259490D01*
X159767995Y-101513727D01*
X159920880Y-101742535D01*
X160115465Y-101937120D01*
X160344273Y-102090005D01*
X160421515Y-102122000D01*
X160344273Y-102153995D01*
X160115465Y-102306880D01*
X159920880Y-102501465D01*
X159767995Y-102730273D01*
X159662686Y-102984510D01*
X159609000Y-103254408D01*
X159609000Y-103529592D01*
X159662686Y-103799490D01*
X159767995Y-104053727D01*
X159920880Y-104282535D01*
X160115465Y-104477120D01*
X160344273Y-104630005D01*
X160421515Y-104662000D01*
X160344273Y-104693995D01*
X160115465Y-104846880D01*
X159920880Y-105041465D01*
X159767995Y-105270273D01*
X159662686Y-105524510D01*
X159609000Y-105794408D01*
X159609000Y-106069592D01*
X159662686Y-106339490D01*
X159767995Y-106593727D01*
X159920880Y-106822535D01*
X160115465Y-107017120D01*
X160344273Y-107170005D01*
X160421515Y-107202000D01*
X160344273Y-107233995D01*
X160115465Y-107386880D01*
X159920880Y-107581465D01*
X159767995Y-107810273D01*
X159662686Y-108064510D01*
X159609000Y-108334408D01*
X159609000Y-108609592D01*
X159662686Y-108879490D01*
X159767995Y-109133727D01*
X159920880Y-109362535D01*
X160115465Y-109557120D01*
X160344273Y-109710005D01*
X160421515Y-109742000D01*
X160344273Y-109773995D01*
X160115465Y-109926880D01*
X159920880Y-110121465D01*
X159767995Y-110350273D01*
X159662686Y-110604510D01*
X159609000Y-110874408D01*
X159609000Y-111149592D01*
X159662686Y-111419490D01*
X159767995Y-111673727D01*
X159920880Y-111902535D01*
X160115465Y-112097120D01*
X160344273Y-112250005D01*
X160421515Y-112282000D01*
X160344273Y-112313995D01*
X160115465Y-112466880D01*
X159920880Y-112661465D01*
X159767995Y-112890273D01*
X159662686Y-113144510D01*
X159609000Y-113414408D01*
X159609000Y-113689592D01*
X159662686Y-113959490D01*
X159767995Y-114213727D01*
X159920880Y-114442535D01*
X160115465Y-114637120D01*
X160344273Y-114790005D01*
X160421515Y-114822000D01*
X160344273Y-114853995D01*
X160115465Y-115006880D01*
X159920880Y-115201465D01*
X159767995Y-115430273D01*
X159662686Y-115684510D01*
X159609000Y-115954408D01*
X159609000Y-116229592D01*
X159662686Y-116499490D01*
X159767995Y-116753727D01*
X159920880Y-116982535D01*
X160115465Y-117177120D01*
X160344273Y-117330005D01*
X160598510Y-117435314D01*
X160868408Y-117489000D01*
X161143592Y-117489000D01*
X161413490Y-117435314D01*
X161667727Y-117330005D01*
X161896535Y-117177120D01*
X162091120Y-116982535D01*
X162244005Y-116753727D01*
X162349314Y-116499490D01*
X162403000Y-116229592D01*
X162403000Y-115954408D01*
X162349314Y-115684510D01*
X162244005Y-115430273D01*
X162091120Y-115201465D01*
X161896535Y-115006880D01*
X161667727Y-114853995D01*
X161590485Y-114822000D01*
X161667727Y-114790005D01*
X161896535Y-114637120D01*
X162091120Y-114442535D01*
X162244005Y-114213727D01*
X162349314Y-113959490D01*
X162403000Y-113689592D01*
X162403000Y-113414408D01*
X162349314Y-113144510D01*
X162244005Y-112890273D01*
X162091120Y-112661465D01*
X161896535Y-112466880D01*
X161667727Y-112313995D01*
X161590485Y-112282000D01*
X161667727Y-112250005D01*
X161896535Y-112097120D01*
X162091120Y-111902535D01*
X162244005Y-111673727D01*
X162349314Y-111419490D01*
X162403000Y-111149592D01*
X162403000Y-110874408D01*
X162349314Y-110604510D01*
X162244005Y-110350273D01*
X162091120Y-110121465D01*
X161896535Y-109926880D01*
X161667727Y-109773995D01*
X161590485Y-109742000D01*
X161667727Y-109710005D01*
X161896535Y-109557120D01*
X162091120Y-109362535D01*
X162244005Y-109133727D01*
X162349314Y-108879490D01*
X162403000Y-108609592D01*
X162403000Y-108334408D01*
X162349314Y-108064510D01*
X162244005Y-107810273D01*
X162091120Y-107581465D01*
X161896535Y-107386880D01*
X161667727Y-107233995D01*
X161590485Y-107202000D01*
X161667727Y-107170005D01*
X161896535Y-107017120D01*
X162091120Y-106822535D01*
X162244005Y-106593727D01*
X162349314Y-106339490D01*
X162403000Y-106069592D01*
X162403000Y-105794408D01*
X162349314Y-105524510D01*
X162244005Y-105270273D01*
X162091120Y-105041465D01*
X161896535Y-104846880D01*
X161667727Y-104693995D01*
X161590485Y-104662000D01*
X161667727Y-104630005D01*
X161896535Y-104477120D01*
X162091120Y-104282535D01*
X162244005Y-104053727D01*
X162349314Y-103799490D01*
X162403000Y-103529592D01*
X162403000Y-103254408D01*
X162349314Y-102984510D01*
X162244005Y-102730273D01*
X162091120Y-102501465D01*
X161896535Y-102306880D01*
X161667727Y-102153995D01*
X161590485Y-102122000D01*
X161667727Y-102090005D01*
X161896535Y-101937120D01*
X162091120Y-101742535D01*
X162244005Y-101513727D01*
X162349314Y-101259490D01*
X162403000Y-100989592D01*
X162403000Y-100714408D01*
X162349314Y-100444510D01*
X162244005Y-100190273D01*
X162091120Y-99961465D01*
X161896535Y-99766880D01*
X161667727Y-99613995D01*
X161590485Y-99582000D01*
X161667727Y-99550005D01*
X161896535Y-99397120D01*
X162091120Y-99202535D01*
X162244005Y-98973727D01*
X162349314Y-98719490D01*
X162403000Y-98449592D01*
X162403000Y-98174408D01*
X162349314Y-97904510D01*
X162244005Y-97650273D01*
X162091120Y-97421465D01*
X161896535Y-97226880D01*
X161667727Y-97073995D01*
X161590485Y-97042000D01*
X161667727Y-97010005D01*
X161896535Y-96857120D01*
X162091120Y-96662535D01*
X162244005Y-96433727D01*
X162349314Y-96179490D01*
X162357883Y-96136408D01*
X173723000Y-96136408D01*
X173723000Y-96411592D01*
X173776686Y-96681490D01*
X173881995Y-96935727D01*
X174034880Y-97164535D01*
X174229465Y-97359120D01*
X174458273Y-97512005D01*
X174712510Y-97617314D01*
X174982408Y-97671000D01*
X175257592Y-97671000D01*
X175527490Y-97617314D01*
X175781727Y-97512005D01*
X176010535Y-97359120D01*
X176205120Y-97164535D01*
X176358005Y-96935727D01*
X176390000Y-96858485D01*
X176421995Y-96935727D01*
X176574880Y-97164535D01*
X176769465Y-97359120D01*
X176998273Y-97512005D01*
X177252510Y-97617314D01*
X177522408Y-97671000D01*
X177797592Y-97671000D01*
X178067490Y-97617314D01*
X178321727Y-97512005D01*
X178550535Y-97359120D01*
X178745120Y-97164535D01*
X178898005Y-96935727D01*
X178930000Y-96858485D01*
X178961995Y-96935727D01*
X179114880Y-97164535D01*
X179309465Y-97359120D01*
X179538273Y-97512005D01*
X179792510Y-97617314D01*
X180062408Y-97671000D01*
X180337592Y-97671000D01*
X180607490Y-97617314D01*
X180861727Y-97512005D01*
X181090535Y-97359120D01*
X181285120Y-97164535D01*
X181438005Y-96935727D01*
X181470000Y-96858485D01*
X181501995Y-96935727D01*
X181654880Y-97164535D01*
X181849465Y-97359120D01*
X182078273Y-97512005D01*
X182332510Y-97617314D01*
X182602408Y-97671000D01*
X182877592Y-97671000D01*
X183147490Y-97617314D01*
X183401727Y-97512005D01*
X183630535Y-97359120D01*
X183825120Y-97164535D01*
X183978005Y-96935727D01*
X184010000Y-96858485D01*
X184041995Y-96935727D01*
X184194880Y-97164535D01*
X184389465Y-97359120D01*
X184618273Y-97512005D01*
X184872510Y-97617314D01*
X185142408Y-97671000D01*
X185417592Y-97671000D01*
X185687490Y-97617314D01*
X185941727Y-97512005D01*
X186170535Y-97359120D01*
X186365120Y-97164535D01*
X186423920Y-97076535D01*
X186432188Y-97160482D01*
X186468498Y-97280180D01*
X186527463Y-97390494D01*
X186606815Y-97487185D01*
X186703506Y-97566537D01*
X186813820Y-97625502D01*
X186933518Y-97661812D01*
X187058000Y-97674072D01*
X188582000Y-97674072D01*
X188706482Y-97661812D01*
X188826180Y-97625502D01*
X188936494Y-97566537D01*
X189033185Y-97487185D01*
X189112537Y-97390494D01*
X189171502Y-97280180D01*
X189207812Y-97160482D01*
X189220072Y-97036000D01*
X189220072Y-95512000D01*
X189207812Y-95387518D01*
X189171502Y-95267820D01*
X189112537Y-95157506D01*
X189033185Y-95060815D01*
X188936494Y-94981463D01*
X188826180Y-94922498D01*
X188706482Y-94886188D01*
X188582000Y-94873928D01*
X187058000Y-94873928D01*
X186933518Y-94886188D01*
X186813820Y-94922498D01*
X186703506Y-94981463D01*
X186606815Y-95060815D01*
X186527463Y-95157506D01*
X186468498Y-95267820D01*
X186432188Y-95387518D01*
X186423920Y-95471465D01*
X186365120Y-95383465D01*
X186170535Y-95188880D01*
X185941727Y-95035995D01*
X185687490Y-94930686D01*
X185417592Y-94877000D01*
X185142408Y-94877000D01*
X184872510Y-94930686D01*
X184618273Y-95035995D01*
X184389465Y-95188880D01*
X184194880Y-95383465D01*
X184041995Y-95612273D01*
X184010000Y-95689515D01*
X183978005Y-95612273D01*
X183825120Y-95383465D01*
X183630535Y-95188880D01*
X183401727Y-95035995D01*
X183147490Y-94930686D01*
X182877592Y-94877000D01*
X182602408Y-94877000D01*
X182332510Y-94930686D01*
X182078273Y-95035995D01*
X181849465Y-95188880D01*
X181654880Y-95383465D01*
X181501995Y-95612273D01*
X181470000Y-95689515D01*
X181438005Y-95612273D01*
X181285120Y-95383465D01*
X181090535Y-95188880D01*
X180861727Y-95035995D01*
X180607490Y-94930686D01*
X180337592Y-94877000D01*
X180062408Y-94877000D01*
X179792510Y-94930686D01*
X179538273Y-95035995D01*
X179309465Y-95188880D01*
X179114880Y-95383465D01*
X178961995Y-95612273D01*
X178930000Y-95689515D01*
X178898005Y-95612273D01*
X178745120Y-95383465D01*
X178550535Y-95188880D01*
X178321727Y-95035995D01*
X178067490Y-94930686D01*
X177797592Y-94877000D01*
X177522408Y-94877000D01*
X177252510Y-94930686D01*
X176998273Y-95035995D01*
X176769465Y-95188880D01*
X176574880Y-95383465D01*
X176421995Y-95612273D01*
X176390000Y-95689515D01*
X176358005Y-95612273D01*
X176205120Y-95383465D01*
X176010535Y-95188880D01*
X175781727Y-95035995D01*
X175527490Y-94930686D01*
X175257592Y-94877000D01*
X174982408Y-94877000D01*
X174712510Y-94930686D01*
X174458273Y-95035995D01*
X174229465Y-95188880D01*
X174034880Y-95383465D01*
X173881995Y-95612273D01*
X173776686Y-95866510D01*
X173723000Y-96136408D01*
X162357883Y-96136408D01*
X162403000Y-95909592D01*
X162403000Y-95634408D01*
X162349314Y-95364510D01*
X162244005Y-95110273D01*
X162091120Y-94881465D01*
X161896535Y-94686880D01*
X161667727Y-94533995D01*
X161590485Y-94502000D01*
X161667727Y-94470005D01*
X161896535Y-94317120D01*
X162091120Y-94122535D01*
X162244005Y-93893727D01*
X162349314Y-93639490D01*
X162403000Y-93369592D01*
X162403000Y-93094408D01*
X162349314Y-92824510D01*
X162244005Y-92570273D01*
X162091120Y-92341465D01*
X161896535Y-92146880D01*
X161667727Y-91993995D01*
X161590485Y-91962000D01*
X161667727Y-91930005D01*
X161896535Y-91777120D01*
X162091120Y-91582535D01*
X162244005Y-91353727D01*
X162349314Y-91099490D01*
X162403000Y-90829592D01*
X162403000Y-90554408D01*
X162349314Y-90284510D01*
X162244005Y-90030273D01*
X162091120Y-89801465D01*
X161896535Y-89606880D01*
X161667727Y-89453995D01*
X161590485Y-89422000D01*
X161667727Y-89390005D01*
X161896535Y-89237120D01*
X162091120Y-89042535D01*
X162244005Y-88813727D01*
X162349314Y-88559490D01*
X162403000Y-88289592D01*
X162403000Y-88040212D01*
X171936000Y-88040212D01*
X171936000Y-88263788D01*
X171979617Y-88483067D01*
X172065176Y-88689624D01*
X172130241Y-88787000D01*
X172065176Y-88884376D01*
X171979617Y-89090933D01*
X171936000Y-89310212D01*
X171936000Y-89533788D01*
X171979617Y-89753067D01*
X172065176Y-89959624D01*
X172189388Y-90145520D01*
X172347480Y-90303612D01*
X172533376Y-90427824D01*
X172739933Y-90513383D01*
X172959212Y-90557000D01*
X173182788Y-90557000D01*
X173402067Y-90513383D01*
X173608624Y-90427824D01*
X173706000Y-90362759D01*
X173803376Y-90427824D01*
X174009933Y-90513383D01*
X174229212Y-90557000D01*
X174452788Y-90557000D01*
X174672067Y-90513383D01*
X174748505Y-90481721D01*
X183001000Y-90481721D01*
X183001000Y-90902279D01*
X183083047Y-91314756D01*
X183243988Y-91703302D01*
X183477637Y-92052983D01*
X183775017Y-92350363D01*
X184124698Y-92584012D01*
X184513244Y-92744953D01*
X184925721Y-92827000D01*
X185346279Y-92827000D01*
X185758756Y-92744953D01*
X186147302Y-92584012D01*
X186496983Y-92350363D01*
X186794363Y-92052983D01*
X187028012Y-91703302D01*
X187188953Y-91314756D01*
X187271000Y-90902279D01*
X187271000Y-90481721D01*
X187188953Y-90069244D01*
X187028012Y-89680698D01*
X186794363Y-89331017D01*
X186496983Y-89033637D01*
X186147302Y-88799988D01*
X185758756Y-88639047D01*
X185346279Y-88557000D01*
X184925721Y-88557000D01*
X184513244Y-88639047D01*
X184124698Y-88799988D01*
X183775017Y-89033637D01*
X183477637Y-89331017D01*
X183243988Y-89680698D01*
X183083047Y-90069244D01*
X183001000Y-90481721D01*
X174748505Y-90481721D01*
X174878624Y-90427824D01*
X175064520Y-90303612D01*
X175222612Y-90145520D01*
X175346824Y-89959624D01*
X175432383Y-89753067D01*
X175476000Y-89533788D01*
X175476000Y-89310212D01*
X175447177Y-89165309D01*
X175526061Y-89181000D01*
X175729939Y-89181000D01*
X175929898Y-89141226D01*
X176118256Y-89063205D01*
X176287774Y-88949937D01*
X176431937Y-88805774D01*
X176545205Y-88636256D01*
X176623226Y-88447898D01*
X176663000Y-88247939D01*
X176663000Y-88044061D01*
X176623226Y-87844102D01*
X176545205Y-87655744D01*
X176431937Y-87486226D01*
X176287774Y-87342063D01*
X176118256Y-87228795D01*
X175929898Y-87150774D01*
X175729939Y-87111000D01*
X175526061Y-87111000D01*
X175449662Y-87126196D01*
X175476000Y-86993788D01*
X175476000Y-86770212D01*
X175432383Y-86550933D01*
X175346824Y-86344376D01*
X175278647Y-86242342D01*
X175328123Y-86172206D01*
X175418446Y-85968864D01*
X175435119Y-85913874D01*
X175308954Y-85739000D01*
X174468000Y-85739000D01*
X174468000Y-85750026D01*
X174452788Y-85747000D01*
X174229212Y-85747000D01*
X174214000Y-85750026D01*
X174214000Y-85739000D01*
X173198000Y-85739000D01*
X173198000Y-86755000D01*
X173209026Y-86755000D01*
X173206000Y-86770212D01*
X173206000Y-86993788D01*
X173209026Y-87009000D01*
X173198000Y-87009000D01*
X173198000Y-87020026D01*
X173182788Y-87017000D01*
X172959212Y-87017000D01*
X172944000Y-87020026D01*
X172944000Y-87009000D01*
X172103046Y-87009000D01*
X171976881Y-87183874D01*
X171993554Y-87238864D01*
X172083877Y-87442206D01*
X172133353Y-87512342D01*
X172065176Y-87614376D01*
X171979617Y-87820933D01*
X171936000Y-88040212D01*
X162403000Y-88040212D01*
X162403000Y-88014408D01*
X162349314Y-87744510D01*
X162244005Y-87490273D01*
X162091120Y-87261465D01*
X161896535Y-87066880D01*
X161667727Y-86913995D01*
X161590485Y-86882000D01*
X161667727Y-86850005D01*
X161896535Y-86697120D01*
X162091120Y-86502535D01*
X162244005Y-86273727D01*
X162349314Y-86019490D01*
X162370322Y-85913874D01*
X171976881Y-85913874D01*
X171993554Y-85968864D01*
X172083877Y-86172206D01*
X172136639Y-86247000D01*
X172083877Y-86321794D01*
X171993554Y-86525136D01*
X171976881Y-86580126D01*
X172103046Y-86755000D01*
X172944000Y-86755000D01*
X172944000Y-85739000D01*
X172103046Y-85739000D01*
X171976881Y-85913874D01*
X162370322Y-85913874D01*
X162403000Y-85749592D01*
X162403000Y-85474408D01*
X162349314Y-85204510D01*
X162244005Y-84950273D01*
X162091120Y-84721465D01*
X161896535Y-84526880D01*
X161667727Y-84373995D01*
X161596057Y-84344308D01*
X161609023Y-84339636D01*
X161724980Y-84277656D01*
X161791960Y-84037565D01*
X161006000Y-83251605D01*
X160220040Y-84037565D01*
X160287020Y-84277656D01*
X160422760Y-84341485D01*
X160344273Y-84373995D01*
X160115465Y-84526880D01*
X159920880Y-84721465D01*
X159767995Y-84950273D01*
X159662686Y-85204510D01*
X159609000Y-85474408D01*
X158593000Y-85474408D01*
X158539314Y-85204510D01*
X158434005Y-84950273D01*
X158281120Y-84721465D01*
X158086535Y-84526880D01*
X157857727Y-84373995D01*
X157786057Y-84344308D01*
X157799023Y-84339636D01*
X157914980Y-84277656D01*
X157981960Y-84037565D01*
X157196000Y-83251605D01*
X156410040Y-84037565D01*
X156477020Y-84277656D01*
X156612760Y-84341485D01*
X156534273Y-84373995D01*
X156305465Y-84526880D01*
X156110880Y-84721465D01*
X155957995Y-84950273D01*
X155852686Y-85204510D01*
X155799000Y-85474408D01*
X140813000Y-85474408D01*
X140759314Y-85204510D01*
X140654005Y-84950273D01*
X140501120Y-84721465D01*
X140306535Y-84526880D01*
X140077727Y-84373995D01*
X140000485Y-84342000D01*
X140077727Y-84310005D01*
X140306535Y-84157120D01*
X140501120Y-83962535D01*
X140654005Y-83733727D01*
X140759314Y-83479490D01*
X140813000Y-83209592D01*
X140813000Y-83144017D01*
X155794090Y-83144017D01*
X155835078Y-83416133D01*
X155928364Y-83675023D01*
X155990344Y-83790980D01*
X156230435Y-83857960D01*
X157016395Y-83072000D01*
X157375605Y-83072000D01*
X158161565Y-83857960D01*
X158401656Y-83790980D01*
X158518756Y-83541952D01*
X158585023Y-83274865D01*
X158591157Y-83144017D01*
X159604090Y-83144017D01*
X159645078Y-83416133D01*
X159738364Y-83675023D01*
X159800344Y-83790980D01*
X160040435Y-83857960D01*
X160826395Y-83072000D01*
X161185605Y-83072000D01*
X161971565Y-83857960D01*
X162028773Y-83842000D01*
X171932928Y-83842000D01*
X171932928Y-84842000D01*
X171945188Y-84966482D01*
X171981498Y-85086180D01*
X172029070Y-85175180D01*
X171993554Y-85255136D01*
X171976881Y-85310126D01*
X172103046Y-85485000D01*
X172944000Y-85485000D01*
X172944000Y-85480072D01*
X173198000Y-85480072D01*
X173198000Y-85485000D01*
X174214000Y-85485000D01*
X174214000Y-84469000D01*
X174468000Y-84469000D01*
X174468000Y-85485000D01*
X175308954Y-85485000D01*
X175369036Y-85401721D01*
X183001000Y-85401721D01*
X183001000Y-85822279D01*
X183083047Y-86234756D01*
X183243988Y-86623302D01*
X183477637Y-86972983D01*
X183775017Y-87270363D01*
X184124698Y-87504012D01*
X184513244Y-87664953D01*
X184925721Y-87747000D01*
X185346279Y-87747000D01*
X185758756Y-87664953D01*
X186147302Y-87504012D01*
X186496983Y-87270363D01*
X186794363Y-86972983D01*
X187028012Y-86623302D01*
X187188953Y-86234756D01*
X187271000Y-85822279D01*
X187271000Y-85401721D01*
X187188953Y-84989244D01*
X187028012Y-84600698D01*
X186794363Y-84251017D01*
X186496983Y-83953637D01*
X186147302Y-83719988D01*
X185758756Y-83559047D01*
X185346279Y-83477000D01*
X184925721Y-83477000D01*
X184513244Y-83559047D01*
X184124698Y-83719988D01*
X183775017Y-83953637D01*
X183477637Y-84251017D01*
X183243988Y-84600698D01*
X183083047Y-84989244D01*
X183001000Y-85401721D01*
X175369036Y-85401721D01*
X175435119Y-85310126D01*
X175418446Y-85255136D01*
X175328123Y-85051794D01*
X175275361Y-84977000D01*
X175328123Y-84902206D01*
X175418446Y-84698864D01*
X175435119Y-84643874D01*
X175308954Y-84469000D01*
X174468000Y-84469000D01*
X174214000Y-84469000D01*
X174209072Y-84469000D01*
X174209072Y-84215000D01*
X174214000Y-84215000D01*
X174214000Y-83372871D01*
X174468000Y-83372871D01*
X174468000Y-84215000D01*
X175308954Y-84215000D01*
X175435119Y-84040126D01*
X175418446Y-83985136D01*
X175328123Y-83781794D01*
X175199865Y-83599980D01*
X175038601Y-83446682D01*
X174850529Y-83327790D01*
X174642876Y-83247874D01*
X174468000Y-83372871D01*
X174214000Y-83372871D01*
X174039124Y-83247874D01*
X173903894Y-83299918D01*
X173815180Y-83252498D01*
X173695482Y-83216188D01*
X173571000Y-83203928D01*
X172571000Y-83203928D01*
X172446518Y-83216188D01*
X172326820Y-83252498D01*
X172216506Y-83311463D01*
X172119815Y-83390815D01*
X172040463Y-83487506D01*
X171981498Y-83597820D01*
X171945188Y-83717518D01*
X171932928Y-83842000D01*
X162028773Y-83842000D01*
X162211656Y-83790980D01*
X162328756Y-83541952D01*
X162395023Y-83274865D01*
X162407910Y-82999983D01*
X162366922Y-82727867D01*
X162273636Y-82468977D01*
X162211656Y-82353020D01*
X161971565Y-82286040D01*
X161185605Y-83072000D01*
X160826395Y-83072000D01*
X160040435Y-82286040D01*
X159800344Y-82353020D01*
X159683244Y-82602048D01*
X159616977Y-82869135D01*
X159604090Y-83144017D01*
X158591157Y-83144017D01*
X158597910Y-82999983D01*
X158556922Y-82727867D01*
X158463636Y-82468977D01*
X158401656Y-82353020D01*
X158161565Y-82286040D01*
X157375605Y-83072000D01*
X157016395Y-83072000D01*
X156230435Y-82286040D01*
X155990344Y-82353020D01*
X155873244Y-82602048D01*
X155806977Y-82869135D01*
X155794090Y-83144017D01*
X140813000Y-83144017D01*
X140813000Y-82934408D01*
X140759314Y-82664510D01*
X140654005Y-82410273D01*
X140501120Y-82181465D01*
X140306535Y-81986880D01*
X140218535Y-81928080D01*
X140302482Y-81919812D01*
X140422180Y-81883502D01*
X140532494Y-81824537D01*
X140629185Y-81745185D01*
X140671141Y-81694061D01*
X143605000Y-81694061D01*
X143605000Y-81897939D01*
X143644774Y-82097898D01*
X143722795Y-82286256D01*
X143836063Y-82455774D01*
X143980226Y-82599937D01*
X144149744Y-82713205D01*
X144338102Y-82791226D01*
X144538061Y-82831000D01*
X144741939Y-82831000D01*
X144941898Y-82791226D01*
X145130256Y-82713205D01*
X145299774Y-82599937D01*
X145443937Y-82455774D01*
X145557205Y-82286256D01*
X145635226Y-82097898D01*
X145675000Y-81897939D01*
X145675000Y-81694061D01*
X145635226Y-81494102D01*
X145557205Y-81305744D01*
X145443937Y-81136226D01*
X145299774Y-80992063D01*
X145130256Y-80878795D01*
X144941898Y-80800774D01*
X144741939Y-80761000D01*
X144538061Y-80761000D01*
X144338102Y-80800774D01*
X144149744Y-80878795D01*
X143980226Y-80992063D01*
X143836063Y-81136226D01*
X143722795Y-81305744D01*
X143644774Y-81494102D01*
X143605000Y-81694061D01*
X140671141Y-81694061D01*
X140708537Y-81648494D01*
X140767502Y-81538180D01*
X140803812Y-81418482D01*
X140816072Y-81294000D01*
X140816072Y-80394408D01*
X155799000Y-80394408D01*
X155799000Y-80669592D01*
X155852686Y-80939490D01*
X155957995Y-81193727D01*
X156110880Y-81422535D01*
X156305465Y-81617120D01*
X156534273Y-81770005D01*
X156605943Y-81799692D01*
X156592977Y-81804364D01*
X156477020Y-81866344D01*
X156410040Y-82106435D01*
X157196000Y-82892395D01*
X157981960Y-82106435D01*
X157914980Y-81866344D01*
X157779240Y-81802515D01*
X157857727Y-81770005D01*
X158086535Y-81617120D01*
X158281120Y-81422535D01*
X158434005Y-81193727D01*
X158539314Y-80939490D01*
X158593000Y-80669592D01*
X158593000Y-80394408D01*
X159609000Y-80394408D01*
X159609000Y-80669592D01*
X159662686Y-80939490D01*
X159767995Y-81193727D01*
X159920880Y-81422535D01*
X160115465Y-81617120D01*
X160344273Y-81770005D01*
X160415943Y-81799692D01*
X160402977Y-81804364D01*
X160287020Y-81866344D01*
X160220040Y-82106435D01*
X161006000Y-82892395D01*
X161791960Y-82106435D01*
X161724980Y-81866344D01*
X161589240Y-81802515D01*
X161667727Y-81770005D01*
X161896535Y-81617120D01*
X162091120Y-81422535D01*
X162244005Y-81193727D01*
X162349314Y-80939490D01*
X162403000Y-80669592D01*
X162403000Y-80394408D01*
X162349314Y-80124510D01*
X162244005Y-79870273D01*
X162091120Y-79641465D01*
X161896535Y-79446880D01*
X161667727Y-79293995D01*
X161413490Y-79188686D01*
X161143592Y-79135000D01*
X160868408Y-79135000D01*
X160598510Y-79188686D01*
X160344273Y-79293995D01*
X160115465Y-79446880D01*
X159920880Y-79641465D01*
X159767995Y-79870273D01*
X159662686Y-80124510D01*
X159609000Y-80394408D01*
X158593000Y-80394408D01*
X158539314Y-80124510D01*
X158434005Y-79870273D01*
X158281120Y-79641465D01*
X158086535Y-79446880D01*
X157857727Y-79293995D01*
X157603490Y-79188686D01*
X157333592Y-79135000D01*
X157058408Y-79135000D01*
X156788510Y-79188686D01*
X156534273Y-79293995D01*
X156305465Y-79446880D01*
X156110880Y-79641465D01*
X155957995Y-79870273D01*
X155852686Y-80124510D01*
X155799000Y-80394408D01*
X140816072Y-80394408D01*
X140816072Y-79770000D01*
X140803812Y-79645518D01*
X140767502Y-79525820D01*
X140708537Y-79415506D01*
X140629185Y-79318815D01*
X140532494Y-79239463D01*
X140422180Y-79180498D01*
X140302482Y-79144188D01*
X140178000Y-79131928D01*
X138654000Y-79131928D01*
X138529518Y-79144188D01*
X138409820Y-79180498D01*
X138299506Y-79239463D01*
X138202815Y-79318815D01*
X138123463Y-79415506D01*
X138064498Y-79525820D01*
X138028188Y-79645518D01*
X138015928Y-79770000D01*
X136777005Y-79770000D01*
X136691120Y-79641465D01*
X136496535Y-79446880D01*
X136267727Y-79293995D01*
X136013490Y-79188686D01*
X135743592Y-79135000D01*
X135468408Y-79135000D01*
X135198510Y-79188686D01*
X134944273Y-79293995D01*
X134715465Y-79446880D01*
X134520880Y-79641465D01*
X134367995Y-79870273D01*
X134262686Y-80124510D01*
X134209000Y-80394408D01*
X123799786Y-80394408D01*
X123861783Y-80301624D01*
X123947342Y-80095067D01*
X123990959Y-79875788D01*
X123990959Y-79652212D01*
X123947342Y-79432933D01*
X123861783Y-79226376D01*
X123784165Y-79110212D01*
X129181000Y-79110212D01*
X129181000Y-79333788D01*
X129224617Y-79553067D01*
X129310176Y-79759624D01*
X129434388Y-79945520D01*
X129592480Y-80103612D01*
X129778376Y-80227824D01*
X129984933Y-80313383D01*
X130204212Y-80357000D01*
X130427788Y-80357000D01*
X130647067Y-80313383D01*
X130853624Y-80227824D01*
X131039520Y-80103612D01*
X131197612Y-79945520D01*
X131321824Y-79759624D01*
X131407383Y-79553067D01*
X131451000Y-79333788D01*
X131451000Y-79110212D01*
X131407383Y-78890933D01*
X131321824Y-78684376D01*
X131197612Y-78498480D01*
X131039520Y-78340388D01*
X130853624Y-78216176D01*
X130647067Y-78130617D01*
X130427788Y-78087000D01*
X130204212Y-78087000D01*
X129984933Y-78130617D01*
X129778376Y-78216176D01*
X129592480Y-78340388D01*
X129434388Y-78498480D01*
X129310176Y-78684376D01*
X129224617Y-78890933D01*
X129181000Y-79110212D01*
X123784165Y-79110212D01*
X123737571Y-79040480D01*
X123579479Y-78882388D01*
X123393583Y-78758176D01*
X123187026Y-78672617D01*
X122967747Y-78629000D01*
X122744171Y-78629000D01*
X122524892Y-78672617D01*
X122318335Y-78758176D01*
X122132439Y-78882388D01*
X121974347Y-79040480D01*
X121850135Y-79226376D01*
X121764576Y-79432933D01*
X121720959Y-79652212D01*
X96312750Y-79652212D01*
X96363000Y-79399592D01*
X96363000Y-79124408D01*
X96309314Y-78854510D01*
X96204005Y-78600273D01*
X96051120Y-78371465D01*
X95856535Y-78176880D01*
X95627727Y-78023995D01*
X95550485Y-77992000D01*
X95627727Y-77960005D01*
X95856535Y-77807120D01*
X96051120Y-77612535D01*
X96204005Y-77383727D01*
X96309314Y-77129490D01*
X96363000Y-76859592D01*
X96363000Y-76584408D01*
X96309314Y-76314510D01*
X96204005Y-76060273D01*
X96051120Y-75831465D01*
X95856535Y-75636880D01*
X95627727Y-75483995D01*
X95550485Y-75452000D01*
X95627727Y-75420005D01*
X95856535Y-75267120D01*
X96051120Y-75072535D01*
X96204005Y-74843727D01*
X96309314Y-74589490D01*
X96363000Y-74319592D01*
X96363000Y-74044408D01*
X96309314Y-73774510D01*
X96239126Y-73605061D01*
X150606000Y-73605061D01*
X150606000Y-73808939D01*
X150645774Y-74008898D01*
X150723795Y-74197256D01*
X150837063Y-74366774D01*
X150981226Y-74510937D01*
X151150744Y-74624205D01*
X151339102Y-74702226D01*
X151539061Y-74742000D01*
X151742939Y-74742000D01*
X151942898Y-74702226D01*
X152131256Y-74624205D01*
X152300774Y-74510937D01*
X152444937Y-74366774D01*
X152558205Y-74197256D01*
X152636226Y-74008898D01*
X152676000Y-73808939D01*
X152676000Y-73605061D01*
X152636226Y-73405102D01*
X152558205Y-73216744D01*
X152444937Y-73047226D01*
X152300774Y-72903063D01*
X152131256Y-72789795D01*
X151942898Y-72711774D01*
X151742939Y-72672000D01*
X151539061Y-72672000D01*
X151339102Y-72711774D01*
X151150744Y-72789795D01*
X150981226Y-72903063D01*
X150837063Y-73047226D01*
X150723795Y-73216744D01*
X150645774Y-73405102D01*
X150606000Y-73605061D01*
X96239126Y-73605061D01*
X96204005Y-73520273D01*
X96051120Y-73291465D01*
X95856535Y-73096880D01*
X95768535Y-73038080D01*
X95852482Y-73029812D01*
X95972180Y-72993502D01*
X96082494Y-72934537D01*
X96179185Y-72855185D01*
X96258537Y-72758494D01*
X96317502Y-72648180D01*
X96353812Y-72528482D01*
X96366072Y-72404000D01*
X96363000Y-71927750D01*
X96204250Y-71769000D01*
X95093000Y-71769000D01*
X95093000Y-71789000D01*
X94839000Y-71789000D01*
X94839000Y-71769000D01*
X93727750Y-71769000D01*
X93569000Y-71927750D01*
X93565928Y-72404000D01*
X92286000Y-72404000D01*
X92286000Y-70880000D01*
X93565928Y-70880000D01*
X93569000Y-71356250D01*
X93727750Y-71515000D01*
X94839000Y-71515000D01*
X94839000Y-70403750D01*
X95093000Y-70403750D01*
X95093000Y-71515000D01*
X96204250Y-71515000D01*
X96363000Y-71356250D01*
X96366072Y-70880000D01*
X96353812Y-70755518D01*
X96317502Y-70635820D01*
X96258537Y-70525506D01*
X96179185Y-70428815D01*
X96082494Y-70349463D01*
X95972180Y-70290498D01*
X95852482Y-70254188D01*
X95728000Y-70241928D01*
X95251750Y-70245000D01*
X95093000Y-70403750D01*
X94839000Y-70403750D01*
X94680250Y-70245000D01*
X94204000Y-70241928D01*
X94079518Y-70254188D01*
X93959820Y-70290498D01*
X93849506Y-70349463D01*
X93752815Y-70428815D01*
X93673463Y-70525506D01*
X93614498Y-70635820D01*
X93578188Y-70755518D01*
X93565928Y-70880000D01*
X92286000Y-70880000D01*
X92286000Y-68382881D01*
X104104724Y-68382881D01*
X104464912Y-68872548D01*
X105128882Y-69232849D01*
X105850385Y-69456694D01*
X106601695Y-69535480D01*
X107353938Y-69466178D01*
X108078208Y-69251452D01*
X108746670Y-68899555D01*
X108787088Y-68872548D01*
X109147276Y-68382881D01*
X164104724Y-68382881D01*
X164464912Y-68872548D01*
X165128882Y-69232849D01*
X165850385Y-69456694D01*
X166601695Y-69535480D01*
X167353938Y-69466178D01*
X168078208Y-69251452D01*
X168746670Y-68899555D01*
X168787088Y-68872548D01*
X169147276Y-68382881D01*
X166626000Y-65861605D01*
X164104724Y-68382881D01*
X109147276Y-68382881D01*
X106626000Y-65861605D01*
X104104724Y-68382881D01*
X92286000Y-68382881D01*
X92286000Y-65896891D01*
X94794519Y-65896891D01*
X94891843Y-66171252D01*
X95040822Y-66421355D01*
X95235731Y-66637588D01*
X95469080Y-66811641D01*
X95731901Y-66936825D01*
X95879110Y-66981476D01*
X96109000Y-66860155D01*
X96109000Y-65667000D01*
X94915186Y-65667000D01*
X94794519Y-65896891D01*
X92286000Y-65896891D01*
X92286000Y-65183109D01*
X94794519Y-65183109D01*
X94915186Y-65413000D01*
X96109000Y-65413000D01*
X96109000Y-64219845D01*
X96363000Y-64219845D01*
X96363000Y-65413000D01*
X96383000Y-65413000D01*
X96383000Y-65667000D01*
X96363000Y-65667000D01*
X96363000Y-66860155D01*
X96592890Y-66981476D01*
X96740099Y-66936825D01*
X97002920Y-66811641D01*
X97236269Y-66637588D01*
X97312034Y-66553534D01*
X97336498Y-66634180D01*
X97395463Y-66744494D01*
X97474815Y-66841185D01*
X97571506Y-66920537D01*
X97681820Y-66979502D01*
X97801518Y-67015812D01*
X97926000Y-67028072D01*
X99626000Y-67028072D01*
X99750482Y-67015812D01*
X99870180Y-66979502D01*
X99980494Y-66920537D01*
X100077185Y-66841185D01*
X100156537Y-66744494D01*
X100215502Y-66634180D01*
X100251812Y-66514482D01*
X100264072Y-66390000D01*
X100264072Y-65657695D01*
X102772520Y-65657695D01*
X102841822Y-66409938D01*
X103056548Y-67134208D01*
X103408445Y-67802670D01*
X103435452Y-67843088D01*
X103925119Y-68203276D01*
X106446395Y-65682000D01*
X106805605Y-65682000D01*
X109326881Y-68203276D01*
X109816548Y-67843088D01*
X110176849Y-67179118D01*
X110400694Y-66457615D01*
X110479480Y-65706305D01*
X110475002Y-65657695D01*
X162772520Y-65657695D01*
X162841822Y-66409938D01*
X163056548Y-67134208D01*
X163408445Y-67802670D01*
X163435452Y-67843088D01*
X163925119Y-68203276D01*
X166446395Y-65682000D01*
X166805605Y-65682000D01*
X169326881Y-68203276D01*
X169816548Y-67843088D01*
X170050476Y-67412000D01*
X172217928Y-67412000D01*
X172230188Y-67536482D01*
X172266498Y-67656180D01*
X172325463Y-67766494D01*
X172404815Y-67863185D01*
X172501506Y-67942537D01*
X172611820Y-68001502D01*
X172684380Y-68023513D01*
X172552525Y-68155368D01*
X172390010Y-68398589D01*
X172278068Y-68668842D01*
X172221000Y-68955740D01*
X172221000Y-69248260D01*
X172278068Y-69535158D01*
X172390010Y-69805411D01*
X172552525Y-70048632D01*
X172759368Y-70255475D01*
X172933760Y-70372000D01*
X172759368Y-70488525D01*
X172552525Y-70695368D01*
X172390010Y-70938589D01*
X172278068Y-71208842D01*
X172221000Y-71495740D01*
X172221000Y-71788260D01*
X172278068Y-72075158D01*
X172390010Y-72345411D01*
X172552525Y-72588632D01*
X172759368Y-72795475D01*
X172933760Y-72912000D01*
X172759368Y-73028525D01*
X172552525Y-73235368D01*
X172390010Y-73478589D01*
X172278068Y-73748842D01*
X172221000Y-74035740D01*
X172221000Y-74328260D01*
X172278068Y-74615158D01*
X172390010Y-74885411D01*
X172552525Y-75128632D01*
X172759368Y-75335475D01*
X172933760Y-75452000D01*
X172759368Y-75568525D01*
X172552525Y-75775368D01*
X172390010Y-76018589D01*
X172278068Y-76288842D01*
X172221000Y-76575740D01*
X172221000Y-76868260D01*
X172278068Y-77155158D01*
X172390010Y-77425411D01*
X172552525Y-77668632D01*
X172759368Y-77875475D01*
X172933760Y-77992000D01*
X172759368Y-78108525D01*
X172552525Y-78315368D01*
X172390010Y-78558589D01*
X172278068Y-78828842D01*
X172221000Y-79115740D01*
X172221000Y-79408260D01*
X172278068Y-79695158D01*
X172390010Y-79965411D01*
X172552525Y-80208632D01*
X172759368Y-80415475D01*
X173002589Y-80577990D01*
X173272842Y-80689932D01*
X173559740Y-80747000D01*
X173852260Y-80747000D01*
X174139158Y-80689932D01*
X174409411Y-80577990D01*
X174652632Y-80415475D01*
X174746386Y-80321721D01*
X183001000Y-80321721D01*
X183001000Y-80742279D01*
X183083047Y-81154756D01*
X183243988Y-81543302D01*
X183477637Y-81892983D01*
X183775017Y-82190363D01*
X184124698Y-82424012D01*
X184513244Y-82584953D01*
X184925721Y-82667000D01*
X185346279Y-82667000D01*
X185758756Y-82584953D01*
X186147302Y-82424012D01*
X186496983Y-82190363D01*
X186794363Y-81892983D01*
X187028012Y-81543302D01*
X187188953Y-81154756D01*
X187271000Y-80742279D01*
X187271000Y-80321721D01*
X187188953Y-79909244D01*
X187028012Y-79520698D01*
X186794363Y-79171017D01*
X186496983Y-78873637D01*
X186147302Y-78639988D01*
X185758756Y-78479047D01*
X185346279Y-78397000D01*
X184925721Y-78397000D01*
X184513244Y-78479047D01*
X184124698Y-78639988D01*
X183775017Y-78873637D01*
X183477637Y-79171017D01*
X183243988Y-79520698D01*
X183083047Y-79909244D01*
X183001000Y-80321721D01*
X174746386Y-80321721D01*
X174859475Y-80208632D01*
X175021990Y-79965411D01*
X175133932Y-79695158D01*
X175191000Y-79408260D01*
X175191000Y-79115740D01*
X175133932Y-78828842D01*
X175021990Y-78558589D01*
X174859475Y-78315368D01*
X174652632Y-78108525D01*
X174478240Y-77992000D01*
X174652632Y-77875475D01*
X174859475Y-77668632D01*
X175021990Y-77425411D01*
X175133932Y-77155158D01*
X175191000Y-76868260D01*
X175191000Y-76575740D01*
X175133932Y-76288842D01*
X175021990Y-76018589D01*
X174859475Y-75775368D01*
X174652632Y-75568525D01*
X174478240Y-75452000D01*
X174652632Y-75335475D01*
X174746386Y-75241721D01*
X183001000Y-75241721D01*
X183001000Y-75662279D01*
X183083047Y-76074756D01*
X183243988Y-76463302D01*
X183477637Y-76812983D01*
X183775017Y-77110363D01*
X184124698Y-77344012D01*
X184513244Y-77504953D01*
X184925721Y-77587000D01*
X185346279Y-77587000D01*
X185758756Y-77504953D01*
X186147302Y-77344012D01*
X186496983Y-77110363D01*
X186794363Y-76812983D01*
X187028012Y-76463302D01*
X187188953Y-76074756D01*
X187271000Y-75662279D01*
X187271000Y-75241721D01*
X187188953Y-74829244D01*
X187028012Y-74440698D01*
X186794363Y-74091017D01*
X186496983Y-73793637D01*
X186147302Y-73559988D01*
X185758756Y-73399047D01*
X185346279Y-73317000D01*
X184925721Y-73317000D01*
X184513244Y-73399047D01*
X184124698Y-73559988D01*
X183775017Y-73793637D01*
X183477637Y-74091017D01*
X183243988Y-74440698D01*
X183083047Y-74829244D01*
X183001000Y-75241721D01*
X174746386Y-75241721D01*
X174859475Y-75128632D01*
X175021990Y-74885411D01*
X175133932Y-74615158D01*
X175191000Y-74328260D01*
X175191000Y-74035740D01*
X175133932Y-73748842D01*
X175021990Y-73478589D01*
X174859475Y-73235368D01*
X174652632Y-73028525D01*
X174478240Y-72912000D01*
X174652632Y-72795475D01*
X174859475Y-72588632D01*
X175021990Y-72345411D01*
X175133932Y-72075158D01*
X175191000Y-71788260D01*
X175191000Y-71495740D01*
X175133932Y-71208842D01*
X175021990Y-70938589D01*
X174859475Y-70695368D01*
X174652632Y-70488525D01*
X174478240Y-70372000D01*
X174652632Y-70255475D01*
X174746386Y-70161721D01*
X183001000Y-70161721D01*
X183001000Y-70582279D01*
X183083047Y-70994756D01*
X183243988Y-71383302D01*
X183477637Y-71732983D01*
X183775017Y-72030363D01*
X184124698Y-72264012D01*
X184513244Y-72424953D01*
X184925721Y-72507000D01*
X185346279Y-72507000D01*
X185758756Y-72424953D01*
X186147302Y-72264012D01*
X186496983Y-72030363D01*
X186794363Y-71732983D01*
X187028012Y-71383302D01*
X187188953Y-70994756D01*
X187271000Y-70582279D01*
X187271000Y-70161721D01*
X187188953Y-69749244D01*
X187028012Y-69360698D01*
X186794363Y-69011017D01*
X186496983Y-68713637D01*
X186147302Y-68479988D01*
X185758756Y-68319047D01*
X185346279Y-68237000D01*
X184925721Y-68237000D01*
X184513244Y-68319047D01*
X184124698Y-68479988D01*
X183775017Y-68713637D01*
X183477637Y-69011017D01*
X183243988Y-69360698D01*
X183083047Y-69749244D01*
X183001000Y-70161721D01*
X174746386Y-70161721D01*
X174859475Y-70048632D01*
X175021990Y-69805411D01*
X175133932Y-69535158D01*
X175191000Y-69248260D01*
X175191000Y-68955740D01*
X175133932Y-68668842D01*
X175021990Y-68398589D01*
X174859475Y-68155368D01*
X174727620Y-68023513D01*
X174800180Y-68001502D01*
X174910494Y-67942537D01*
X175007185Y-67863185D01*
X175086537Y-67766494D01*
X175145502Y-67656180D01*
X175181812Y-67536482D01*
X175194072Y-67412000D01*
X175191000Y-66847750D01*
X175032250Y-66689000D01*
X173833000Y-66689000D01*
X173833000Y-66709000D01*
X173579000Y-66709000D01*
X173579000Y-66689000D01*
X172379750Y-66689000D01*
X172221000Y-66847750D01*
X172217928Y-67412000D01*
X170050476Y-67412000D01*
X170176849Y-67179118D01*
X170400694Y-66457615D01*
X170478882Y-65712000D01*
X172217928Y-65712000D01*
X172221000Y-66276250D01*
X172379750Y-66435000D01*
X173579000Y-66435000D01*
X173579000Y-65235750D01*
X173833000Y-65235750D01*
X173833000Y-66435000D01*
X175032250Y-66435000D01*
X175191000Y-66276250D01*
X175194072Y-65712000D01*
X175181812Y-65587518D01*
X175145502Y-65467820D01*
X175086537Y-65357506D01*
X175007185Y-65260815D01*
X174910494Y-65181463D01*
X174800180Y-65122498D01*
X174680482Y-65086188D01*
X174556000Y-65073928D01*
X173991750Y-65077000D01*
X173833000Y-65235750D01*
X173579000Y-65235750D01*
X173420250Y-65077000D01*
X172856000Y-65073928D01*
X172731518Y-65086188D01*
X172611820Y-65122498D01*
X172501506Y-65181463D01*
X172404815Y-65260815D01*
X172325463Y-65357506D01*
X172266498Y-65467820D01*
X172230188Y-65587518D01*
X172217928Y-65712000D01*
X170478882Y-65712000D01*
X170479480Y-65706305D01*
X170410178Y-64954062D01*
X170195452Y-64229792D01*
X169964987Y-63792000D01*
X182997928Y-63792000D01*
X182997928Y-66792000D01*
X183010188Y-66916482D01*
X183046498Y-67036180D01*
X183105463Y-67146494D01*
X183184815Y-67243185D01*
X183281506Y-67322537D01*
X183391820Y-67381502D01*
X183511518Y-67417812D01*
X183636000Y-67430072D01*
X186636000Y-67430072D01*
X186760482Y-67417812D01*
X186880180Y-67381502D01*
X186990494Y-67322537D01*
X187087185Y-67243185D01*
X187166537Y-67146494D01*
X187225502Y-67036180D01*
X187261812Y-66916482D01*
X187274072Y-66792000D01*
X187274072Y-63792000D01*
X187261812Y-63667518D01*
X187225502Y-63547820D01*
X187166537Y-63437506D01*
X187087185Y-63340815D01*
X186990494Y-63261463D01*
X186880180Y-63202498D01*
X186760482Y-63166188D01*
X186636000Y-63153928D01*
X183636000Y-63153928D01*
X183511518Y-63166188D01*
X183391820Y-63202498D01*
X183281506Y-63261463D01*
X183184815Y-63340815D01*
X183105463Y-63437506D01*
X183046498Y-63547820D01*
X183010188Y-63667518D01*
X182997928Y-63792000D01*
X169964987Y-63792000D01*
X169843555Y-63561330D01*
X169816548Y-63520912D01*
X169326881Y-63160724D01*
X166805605Y-65682000D01*
X166446395Y-65682000D01*
X163925119Y-63160724D01*
X163435452Y-63520912D01*
X163075151Y-64184882D01*
X162851306Y-64906385D01*
X162772520Y-65657695D01*
X110475002Y-65657695D01*
X110410178Y-64954062D01*
X110195452Y-64229792D01*
X109843555Y-63561330D01*
X109816548Y-63520912D01*
X109326881Y-63160724D01*
X106805605Y-65682000D01*
X106446395Y-65682000D01*
X103925119Y-63160724D01*
X103435452Y-63520912D01*
X103075151Y-64184882D01*
X102851306Y-64906385D01*
X102772520Y-65657695D01*
X100264072Y-65657695D01*
X100264072Y-64690000D01*
X100251812Y-64565518D01*
X100215502Y-64445820D01*
X100156537Y-64335506D01*
X100077185Y-64238815D01*
X99980494Y-64159463D01*
X99870180Y-64100498D01*
X99750482Y-64064188D01*
X99626000Y-64051928D01*
X97926000Y-64051928D01*
X97801518Y-64064188D01*
X97681820Y-64100498D01*
X97571506Y-64159463D01*
X97474815Y-64238815D01*
X97395463Y-64335506D01*
X97336498Y-64445820D01*
X97312034Y-64526466D01*
X97236269Y-64442412D01*
X97002920Y-64268359D01*
X96740099Y-64143175D01*
X96592890Y-64098524D01*
X96363000Y-64219845D01*
X96109000Y-64219845D01*
X95879110Y-64098524D01*
X95731901Y-64143175D01*
X95469080Y-64268359D01*
X95235731Y-64442412D01*
X95040822Y-64658645D01*
X94891843Y-64908748D01*
X94794519Y-65183109D01*
X92286000Y-65183109D01*
X92286000Y-62981119D01*
X104104724Y-62981119D01*
X106626000Y-65502395D01*
X109147276Y-62981119D01*
X164104724Y-62981119D01*
X166626000Y-65502395D01*
X169147276Y-62981119D01*
X168787088Y-62491452D01*
X168123118Y-62131151D01*
X167401615Y-61907306D01*
X166650305Y-61828520D01*
X165898062Y-61897822D01*
X165173792Y-62112548D01*
X164505330Y-62464445D01*
X164464912Y-62491452D01*
X164104724Y-62981119D01*
X109147276Y-62981119D01*
X108787088Y-62491452D01*
X108123118Y-62131151D01*
X107401615Y-61907306D01*
X106650305Y-61828520D01*
X105898062Y-61897822D01*
X105173792Y-62112548D01*
X104505330Y-62464445D01*
X104464912Y-62491452D01*
X104104724Y-62981119D01*
X92286000Y-62981119D01*
X92286000Y-61714279D01*
X92295580Y-61616576D01*
X92314580Y-61553644D01*
X92345445Y-61495595D01*
X92386989Y-61444657D01*
X92437644Y-61402752D01*
X92495471Y-61371485D01*
X92558272Y-61352044D01*
X92653835Y-61342000D01*
X190593721Y-61342000D01*
X190691424Y-61351580D01*
G37*
G04 #@! TD.AperFunction*
M02*
