M48
; DRILL file {KiCad (5.1.9)-1} date 03/05/21 15:48:53
; FORMAT={-:-/ absolute / inch / decimal}
; #@! TF.CreationDate,2021-03-05T15:48:53+01:00
; #@! TF.GenerationSoftware,Kicad,Pcbnew,(5.1.9)-1
; #@! TF.FileFunction,Plated,1,4,PTH
FMAT,2
INCH
T1C0.0157
T2C0.0236
T3C0.0256
T4C0.0300
T5C0.0394
T6C0.0598
T7C0.1260
%
G90
G05
T1
X3.7845Y-4.8803
X3.8445Y-4.1703
X3.9345Y-4.1703
X4.3945Y-2.7803
X4.3945Y-3.4703
X4.3945Y-3.8803
X4.3945Y-4.3703
X4.3945Y-4.8703
X4.8368Y-3.1403
X4.8995Y-3.1603
X4.9945Y-4.8803
X5.0045Y-4.3803
X5.0945Y-2.7803
X5.0945Y-3.4703
X5.1306Y-3.119
X5.2045Y-4.3203
X5.2645Y-4.3203
X5.4145Y-3.4703
X5.4145Y-3.7303
X5.4145Y-4.0203
X5.5345Y-4.5503
X5.5545Y-4.4303
X5.5945Y-4.2203
X5.5945Y-4.3203
X5.6245Y-2.9703
X5.6945Y-3.2203
X5.7045Y-4.3203
X5.7245Y-2.8703
X5.7245Y-3.0803
X5.7945Y-3.1803
X5.8545Y-2.9103
X5.8545Y-2.9903
X5.9645Y-4.9003
X5.9701Y-2.9019
X6.2145Y-2.8003
X6.2145Y-2.9003
X6.2145Y-3.0103
X6.2645Y-4.1203
X6.2645Y-4.4103
X6.4845Y-3.5203
X6.5745Y-3.5203
X6.6845Y-2.9003
X6.6845Y-3.0103
X6.8945Y-4.1803
X6.9145Y-3.4703
X7.3945Y-4.1803
X7.3945Y-4.6803
T2
X4.1145Y-4.6303
X4.1245Y-3.4703
X4.1735Y-4.6303
X4.1835Y-3.4703
X7.2945Y-4.9103
X7.2945Y-4.9694
T3
X6.8138Y-3.3206
X6.8138Y-3.3706
X6.8138Y-3.4206
X6.8138Y-3.4706
X6.8138Y-3.5206
X6.8638Y-3.3206
X6.8638Y-3.3706
X6.8638Y-3.4206
X6.8638Y-3.4706
X6.8638Y-3.5206
T4
X3.7388Y-2.8206
X3.7388Y-2.9206
X3.7388Y-3.0206
X3.7388Y-3.1206
X3.7388Y-3.2206
X5.0888Y-3.8706
X5.0888Y-3.9706
X5.0888Y-4.0706
X5.0888Y-4.1706
X5.3388Y-3.1706
X5.3388Y-3.2706
X5.3388Y-3.3706
X5.3388Y-3.4706
X5.3388Y-3.5706
X5.3388Y-3.6706
X5.3388Y-3.7706
X5.3388Y-3.8706
X5.3388Y-3.9706
X5.3388Y-4.0706
X5.3388Y-4.1706
X5.3388Y-4.2706
X5.3388Y-4.3706
X5.3388Y-4.4706
X5.3388Y-4.5706
X5.4888Y-3.1706
X5.4888Y-3.2706
X5.4888Y-3.3706
X5.4888Y-3.4706
X5.4888Y-3.5706
X5.4888Y-3.6706
X5.4888Y-3.7706
X5.4888Y-3.8706
X5.4888Y-3.9706
X5.4888Y-4.0706
X5.4888Y-4.1706
X5.4888Y-4.2706
X5.4888Y-4.3706
X5.4888Y-4.4706
X6.1888Y-3.1706
X6.1888Y-3.2706
X6.1888Y-3.3706
X6.1888Y-3.4706
X6.1888Y-3.5706
X6.1888Y-3.6706
X6.1888Y-3.7706
X6.1888Y-3.8706
X6.1888Y-3.9706
X6.1888Y-4.0706
X6.1888Y-4.1706
X6.1888Y-4.2706
X6.1888Y-4.3706
X6.1888Y-4.4706
X6.3388Y-3.1706
X6.3388Y-3.2706
X6.3388Y-3.3706
X6.3388Y-3.4706
X6.3388Y-3.5706
X6.3388Y-3.6706
X6.3388Y-3.7706
X6.3388Y-3.8706
X6.3388Y-3.9706
X6.3388Y-4.0706
X6.3388Y-4.1706
X6.3388Y-4.2706
X6.3388Y-4.3706
X6.3388Y-4.4706
X6.3388Y-4.5706
X6.8945Y-3.7903
X6.9945Y-3.7903
X6.9945Y-4.7903
X7.0945Y-3.7903
X7.0945Y-4.7903
X7.1945Y-3.7903
X7.1945Y-4.7903
X7.2945Y-3.7903
X7.2945Y-4.7903
X7.3945Y-3.7903
T5
X3.7888Y-2.5803
X3.8888Y-2.5803
X6.8388Y-2.6206
X6.8388Y-2.7206
X6.8388Y-2.8206
X6.8388Y-2.9206
X6.8388Y-3.0206
X6.8388Y-3.1206
T6
X3.8888Y-3.4706
X3.8888Y-3.6706
X3.8888Y-3.8706
X3.8888Y-4.0706
X3.8888Y-4.2706
X3.8888Y-4.4706
X3.8888Y-4.6706
X7.2888Y-2.5706
X7.2888Y-2.7706
X7.2888Y-2.9706
X7.2888Y-3.1706
X7.2888Y-3.3706
X7.2888Y-3.5706
T7
X4.1979Y-2.5859
X4.1979Y-4.8694
X6.5601Y-2.5859
X6.5601Y-4.8694
T0
M30
