G04 #@! TF.GenerationSoftware,KiCad,Pcbnew,(5.1.9)-1*
G04 #@! TF.CreationDate,2021-03-05T16:25:43+01:00*
G04 #@! TF.ProjectId,BOBcad,424f4263-6164-42e6-9b69-6361645f7063,v1.0.2*
G04 #@! TF.SameCoordinates,Original*
G04 #@! TF.FileFunction,Soldermask,Top*
G04 #@! TF.FilePolarity,Negative*
%FSLAX46Y46*%
G04 Gerber Fmt 4.6, Leading zero omitted, Abs format (unit mm)*
G04 Created by KiCad (PCBNEW (5.1.9)-1) date 2021-03-05 16:25:43*
%MOMM*%
%LPD*%
G01*
G04 APERTURE LIST*
%ADD10C,1.524000*%
%ADD11R,1.200000X1.200000*%
%ADD12C,1.200000*%
%ADD13R,1.500000X1.250000*%
%ADD14R,1.250000X1.500000*%
%ADD15R,1.524000X1.524000*%
%ADD16R,0.700000X0.510000*%
%ADD17R,0.800000X0.900000*%
%ADD18R,1.300000X1.500000*%
%ADD19C,3.000000*%
%ADD20R,3.000000X3.000000*%
%ADD21R,1.000000X1.000000*%
%ADD22O,1.000000X1.000000*%
%ADD23R,1.700000X1.700000*%
%ADD24O,1.700000X1.700000*%
%ADD25C,6.400000*%
%ADD26R,1.500000X1.300000*%
G04 APERTURE END LIST*
D10*
X161006000Y-116092000D03*
X161006000Y-113552000D03*
X161006000Y-111012000D03*
X161006000Y-108472000D03*
X161006000Y-105932000D03*
X161006000Y-103392000D03*
X161006000Y-100852000D03*
X161006000Y-98312000D03*
X161006000Y-95772000D03*
X161006000Y-93232000D03*
X161006000Y-90692000D03*
X161006000Y-88152000D03*
X161006000Y-85612000D03*
X161006000Y-83072000D03*
X161006000Y-80532000D03*
X135606000Y-93232000D03*
X135606000Y-80532000D03*
X135606000Y-103392000D03*
X135606000Y-90692000D03*
X135606000Y-83072000D03*
X135606000Y-100852000D03*
X135606000Y-113552000D03*
X135606000Y-111012000D03*
X135606000Y-98312000D03*
X135606000Y-108472000D03*
X135606000Y-88152000D03*
X135606000Y-95772000D03*
X135606000Y-85612000D03*
X135606000Y-116092000D03*
X135606000Y-105932000D03*
D11*
X104762000Y-88146000D03*
D12*
X106262000Y-88146000D03*
D11*
X104508000Y-117610000D03*
D12*
X106008000Y-117610000D03*
D11*
X185280000Y-124722000D03*
D12*
X185280000Y-126222000D03*
D13*
X157300000Y-117356000D03*
X154800000Y-117356000D03*
D14*
X154038000Y-107724000D03*
X154038000Y-110224000D03*
D10*
X157196000Y-80532000D03*
X157196000Y-83072000D03*
X157196000Y-85612000D03*
X157196000Y-88152000D03*
X157196000Y-90692000D03*
X157196000Y-93232000D03*
X157196000Y-95772000D03*
X157196000Y-98312000D03*
X157196000Y-100852000D03*
X157196000Y-103392000D03*
X157196000Y-105932000D03*
X157196000Y-108472000D03*
X157196000Y-111012000D03*
X157196000Y-113552000D03*
X139416000Y-113552000D03*
X139416000Y-111012000D03*
X139416000Y-108472000D03*
X139416000Y-105932000D03*
X139416000Y-103392000D03*
X139416000Y-100852000D03*
X139416000Y-98312000D03*
X139416000Y-95772000D03*
X139416000Y-93232000D03*
X139416000Y-90692000D03*
X139416000Y-88152000D03*
X139416000Y-85612000D03*
X139416000Y-83072000D03*
D15*
X139416000Y-80532000D03*
X129256000Y-105932000D03*
D10*
X129256000Y-103392000D03*
X129256000Y-100852000D03*
X129256000Y-98312000D03*
D15*
X94966000Y-71642000D03*
D10*
X94966000Y-74182000D03*
X94966000Y-76722000D03*
X94966000Y-79262000D03*
X94966000Y-81802000D03*
D16*
X125996000Y-79272000D03*
X125996000Y-80222000D03*
X125996000Y-81172000D03*
X128316000Y-81172000D03*
X128316000Y-80222000D03*
X128316000Y-79272000D03*
D17*
X153386000Y-76722000D03*
X151486000Y-76722000D03*
X152436000Y-78722000D03*
D18*
X147036000Y-74022000D03*
X147036000Y-76722000D03*
X150211000Y-71007000D03*
X150211000Y-73707000D03*
D17*
X143811000Y-76722000D03*
X141911000Y-76722000D03*
X142861000Y-78722000D03*
D18*
X147671000Y-115617000D03*
X147671000Y-112917000D03*
D19*
X98776000Y-113552000D03*
X98776000Y-108472000D03*
D20*
X98776000Y-118632000D03*
D19*
X98776000Y-103392000D03*
D20*
X98776000Y-98312000D03*
D19*
X98776000Y-93232000D03*
X98776000Y-88152000D03*
D21*
X173071000Y-84342000D03*
D22*
X174341000Y-84342000D03*
X173071000Y-85612000D03*
X174341000Y-85612000D03*
X173071000Y-86882000D03*
X174341000Y-86882000D03*
X173071000Y-88152000D03*
X174341000Y-88152000D03*
X173071000Y-89422000D03*
X174341000Y-89422000D03*
D18*
X142608000Y-115537000D03*
X142608000Y-112837000D03*
X145131000Y-115617000D03*
X145131000Y-112917000D03*
X150228000Y-107704000D03*
X150228000Y-110404000D03*
X150228000Y-101702000D03*
X150228000Y-104402000D03*
D10*
X177660000Y-121674000D03*
X180200000Y-121674000D03*
X182740000Y-121674000D03*
X185280000Y-121674000D03*
X175120000Y-96274000D03*
X177660000Y-96274000D03*
X180200000Y-96274000D03*
X182740000Y-96274000D03*
X185280000Y-96274000D03*
D15*
X187820000Y-96274000D03*
D19*
X185136000Y-70372000D03*
X185136000Y-75452000D03*
D20*
X185136000Y-65292000D03*
D19*
X185136000Y-80532000D03*
X185136000Y-85612000D03*
X185136000Y-90692000D03*
D23*
X173706000Y-66562000D03*
D24*
X173706000Y-69102000D03*
X173706000Y-71642000D03*
X173706000Y-74182000D03*
X173706000Y-76722000D03*
X173706000Y-79262000D03*
D23*
X98776000Y-65540000D03*
D24*
X96236000Y-65540000D03*
D25*
X166626000Y-123682000D03*
X106626000Y-123682000D03*
X166626000Y-65682000D03*
X106626000Y-65682000D03*
D26*
X154640000Y-124468000D03*
X157340000Y-124468000D03*
X154720000Y-120912000D03*
X157420000Y-120912000D03*
M02*
